<mxfile host="app.diagrams.net" modified="2023-12-07T17:01:58.891Z" agent="Mozilla/5.0 (Macintosh; Intel Mac OS X 10_15_7) AppleWebKit/537.36 (KHTML, like Gecko) Chrome/119.0.0.0 Safari/537.36" etag="_V28p1yUWsGThfC3Gm9y" version="22.1.7" type="google">
  <diagram name="Page-1" id="H8VHB2mL2E9G7YCRtskF">
    <mxGraphModel grid="1" page="1" gridSize="10" guides="1" tooltips="1" connect="1" arrows="1" fold="1" pageScale="1" pageWidth="850" pageHeight="1100" math="0" shadow="0">
      <root>
        <mxCell id="0" />
        <mxCell id="1" parent="0" />
        <mxCell id="VQ3jYR1XkbSHoC4K4Hg8-5" style="edgeStyle=orthogonalEdgeStyle;rounded=0;orthogonalLoop=1;jettySize=auto;html=1;entryX=1;entryY=0.5;entryDx=0;entryDy=0;" edge="1" parent="1" target="VQ3jYR1XkbSHoC4K4Hg8-6">
          <mxGeometry relative="1" as="geometry">
            <mxPoint x="640" y="255" as="sourcePoint" />
          </mxGeometry>
        </mxCell>
        <mxCell id="VQ3jYR1XkbSHoC4K4Hg8-2" value="Open AI&lt;br&gt;gpt-3.5" style="html=1;dashed=0;whiteSpace=wrap;" vertex="1" parent="1">
          <mxGeometry x="160" y="230" width="100" height="50" as="geometry" />
        </mxCell>
        <mxCell id="VQ3jYR1XkbSHoC4K4Hg8-6" value="Dell corp site" style="html=1;dashed=0;whiteSpace=wrap;" vertex="1" parent="1">
          <mxGeometry x="400" y="230" width="100" height="50" as="geometry" />
        </mxCell>
        <mxCell id="VQ3jYR1XkbSHoC4K4Hg8-7" value="" style="endArrow=classic;html=1;rounded=0;entryX=1;entryY=0.5;entryDx=0;entryDy=0;exitX=0;exitY=0.5;exitDx=0;exitDy=0;" edge="1" parent="1" source="VQ3jYR1XkbSHoC4K4Hg8-6" target="VQ3jYR1XkbSHoC4K4Hg8-2">
          <mxGeometry width="50" height="50" relative="1" as="geometry">
            <mxPoint x="400" y="350" as="sourcePoint" />
            <mxPoint x="450" y="300" as="targetPoint" />
          </mxGeometry>
        </mxCell>
        <mxCell id="VQ3jYR1XkbSHoC4K4Hg8-8" value="Data" style="html=1;dashed=0;whiteSpace=wrap;shape=mxgraph.dfd.start" vertex="1" parent="1">
          <mxGeometry x="20" y="80" width="90" height="20" as="geometry" />
        </mxCell>
        <mxCell id="VQ3jYR1XkbSHoC4K4Hg8-9" value="Entity" style="html=1;dashed=0;whiteSpace=wrap;" vertex="1" parent="1">
          <mxGeometry x="10" y="120" width="100" height="50" as="geometry" />
        </mxCell>
        <mxCell id="VQ3jYR1XkbSHoC4K4Hg8-11" value="User" style="html=1;dashed=0;whiteSpace=wrap;" vertex="1" parent="1">
          <mxGeometry x="640" y="230" width="100" height="50" as="geometry" />
        </mxCell>
        <mxCell id="VQ3jYR1XkbSHoC4K4Hg8-12" value="" style="shape=image;verticalLabelPosition=bottom;labelBackgroundColor=default;verticalAlign=top;aspect=fixed;imageAspect=0;image=data:image/png,iVBORw0KGgoAAAANSUhEUgAAAR4AAAEYCAYAAACKkJnLAAAMO2lDQ1BJQ0MgUHJvZmlsZQAASImVVwdYU8kWnluSkJDQAqFICb0JIr1ICaFFqnSwEZIAocQYCCp2ZVHBtYsI2NAVEQXXAshaELG7CPa+WFBR1sWCvbxJAV33le/N982d//5z5j9nzp177wwA6m1csTgX1QAgT1QgiQ0NZCanpDJJjwERGAMEOAMyl5cvZsXERABYhtq/lzdXoSUslxxkWv/s/69Fky/I5wGAxECczs/n5UG8HwC8mieWFABAlPHm0wrEMgwr0JbAACFeLMOZClwtw+kKvEduEx/LhrgDABUqlyvJBECtC/LMQl4m1FAbgNhJxBeKAFBnQuyXlzeFD3EaxDbQRgyxTN8z/TudzL9ppg9rcrmZw1gxF3lRCRLmi3O5M/7PdPzvkpcrHfJhBSs1SxIWK5szzNv1nCnhMkyFuF+UHhUNsRbE74R8uT3EKCVLGpagsEcNeflsmDPAgNiJzw0Kh9gQ4hBRblSEkk/PEIZwIIYrBJ0uLODEQ6wH8WJBfnCc0mazZEqs0hfalCFhs5T8aa5E7lfm6640J4Gl1H+ZJeAo9TG1oqz4JIgpEFsUChOjIFaD2DE/Jy5caTOmKIsdNWQjkcbK4reAOFYgCg1U6GOFGZKQWKV9aV7+0HyxzVlCTpQS7y3Iig9T5Afr4HHl8cO5YF0CESthSEeQnxwxNBe+IChYMXfsiUCUEKfUeScuCIxVjMUp4twYpT1uJsgNlfFmELvmF8Ypx+KJBXBBKvTxDHFBTLwiTrwomzs2RhEPvgJEADYIAkwghTUdTAHZQNjZ39wP7xQ9IYALJCATCICDkhkakSTvEcFrHCgCf0IkAPnD4wLlvQJQCPnPw6zi6gAy5L2F8hE54BHEeSAc5MJ7qXyUaNhbIngIGeE/vHNh5cF4c2GV9f97foj9xrAgE6FkpEMemepDlsRgYhAxjBhCtMUNcD/cB4+A1wBYnXFP3GtoHt/sCY8I3YT7hCuEHsKNycIFkh+ijAQ9UD9EmYv073OBW0FNNzwQ94XqUBln4AbAAXeFfli4P/TsBlm2Mm5ZVpg/aP9tBt89DaUd2YmMknXJAWSbH0eq2am5DavIcv19fhSxpg/nmz3c86N/9nfZ58M2/EdLbDG2DzuFHcPOYIewZsDEjmIt2HnssAwPr66H8tU15C1WHk8O1BH+w9/Qk5VlMt+p3qnP6ZOir0AwXfaNBuwp4hkSYWZWAZMF/wgCJkfEcxzJdHZydgFA9n9RfL5eMeT/DYRx9hs3tQ0Ar1JIZn7juOYAHHwEAP3NN878JXxtVgBwuIsnlRQqOFx2IcCvhDp80/Th/8sc2MD5OAN34AMCQDAYC6JBPEgBk2D0WXCdS8A0MAvMByWgDKwAa0El2AS2gh1gN9gLmsEhcAycBOdAF7gCbsHV0wuegQHwBnxEEISE0BA6oo+YIJaIPeKMeCJ+SDASgcQiKUgakomIECkyC1mIlCGrkEpkC1KH/IocRI4hZ5Bu5AZyD+lDXiIfUAylotqoEWqFjkI9URYajsajE9FMdCpahBajy9AKtAbdhTahx9Bz6BW0B32GDmIAU8UYmCnmgHlibCwaS8UyMAk2ByvFyrEarAFrhc/5EtaD9WPvcSJOx5m4A1zBYXgCzsOn4nPwpXglvgNvwjvwS/g9fAD/QqARDAn2BG8Ch5BMyCRMI5QQygnbCQcIJ+C71Et4QyQSGURrogd8F1OI2cSZxKXEDcRGYhuxm/iAOEgikfRJ9iRfUjSJSyoglZDWk3aRjpIuknpJ71RUVUxUnFVCVFJVRCoLVMpVdqocUbmo8ljlI1mDbEn2JkeT+eQZ5OXkbeRW8gVyL/kjRZNiTfGlxFOyKfMpFZQGygnKbcorVVVVM1Uv1XGqQtV5qhWqe1RPq95TfU/VotpR2dQJVCl1GbWW2ka9QX1Fo9GsaAG0VFoBbRmtjnacdpf2To2u5qjGUeOrzVWrUmtSu6j2XJ2sbqnOUp+kXqRerr5P/YJ6vwZZw0qDrcHVmKNRpXFQ45rGoCZdc7RmtGae5lLNnZpnNJ9okbSstIK1+FrFWlu1jms9oGN0czqbzqMvpG+jn6D3ahO1rbU52tnaZdq7tTu1B3S0dFx1EnWm61TpHNbpYWAMKwaHkctYztjLuMr4oGuky9IV6C7RbdC9qPtWb4RegJ5Ar1SvUe+K3gd9pn6wfo7+Sv1m/TsGuIGdwTiDaQYbDU4Y9I/QHuEzgjeidMTeETcNUUM7w1jDmYZbDc8bDhoZG4UaiY3WGx036jdmGAcYZxuvMT5i3GdCN/EzEZqsMTlq8pSpw2Qxc5kVzA7mgKmhaZip1HSLaafpRzNrswSzBWaNZnfMKeae5hnma8zbzQcsTCwiLWZZ1FvctCRbelpmWa6zPGX51sraKslqkVWz1RNrPWuOdZF1vfVtG5qNv81Umxqby7ZEW0/bHNsNtl12qJ2bXZZdld0Fe9Te3V5ov8G+eyRhpNdI0ciakdccqA4sh0KHeod7jgzHCMcFjs2Oz0dZjEodtXLUqVFfnNyccp22Od0arTV67OgFo1tHv3S2c+Y5VzlfdqG5hLjMdWlxeeFq7ypw3eh63Y3uFum2yK3d7bO7h7vEvcG9z8PCI82j2uOap7ZnjOdSz9NeBK9Ar7leh7zee7t7F3jv9f7Lx8Enx2enz5Mx1mMEY7aNeeBr5sv13eLb48f0S/Pb7Nfjb+rP9a/xvx9gHsAP2B7wmGXLymbtYj0PdAqUBB4IfMv2Zs9mtwVhQaFBpUGdwVrBCcGVwXdDzEIyQ+pDBkLdQmeGtoURwsLDVoZd4xhxeJw6zsBYj7Gzx3aEU8PjwivD70fYRUgiWiPRyLGRqyNvR1lGiaKao0E0J3p19J0Y65ipMb+NI46LGVc17lHs6NhZsafi6HGT43bGvYkPjF8efyvBJkGa0J6onjghsS7xbVJQ0qqknuRRybOTz6UYpAhTWlJJqYmp21MHxwePXzu+d4LbhJIJVydaT5w+8cwkg0m5kw5PVp/MnbwvjZCWlLYz7RM3mlvDHUznpFenD/DYvHW8Z/wA/hp+n8BXsErwOMM3Y1XGk0zfzNWZfVn+WeVZ/UK2sFL4Ijsse1P225zonNqcr7lJuY15KnlpeQdFWqIcUccU4ynTp3SL7cUl4p6p3lPXTh2QhEu25yP5E/NbCrThRv681Eb6k/ReoV9hVeG7aYnT9k3XnC6afn6G3YwlMx4XhRT9MhOfyZvZPst01vxZ92azZm+Zg8xJn9M+13xu8dzeeaHzdsynzM+Z//sCpwWrFrxemLSwtdioeF7xg59Cf6ovUSuRlFxb5LNo02J8sXBx5xKXJeuXfCnll54tcyorL/u0lLf07M+jf674+euyjGWdy92Xb1xBXCFacXWl/8odqzRXFa16sDpyddMa5prSNa/XTl57pty1fNM6yjrpup6KiIqW9RbrV6z/VJlVeaUqsKqx2rB6SfXbDfwNFzcGbGzYZLSpbNOHzcLN17eEbmmqsaop30rcWrj10bbEbad+8fylbrvB9rLtn2tFtT07Ynd01HnU1e003Lm8Hq2X1vftmrCra3fQ7pYGh4YtjYzGsj1gj3TP01/Tfr26N3xv+z7PfQ37LfdXH6AfKG1CmmY0DTRnNfe0pLR0Hxx7sL3Vp/XAb46/1R4yPVR1WOfw8iOUI8VHvh4tOjrYJm7rP5Z57EH75PZbx5OPX+4Y19F5IvzE6ZMhJ4+fYp06etr39KEz3mcOnvU823zO/VzTebfzB353+/1Ap3tn0wWPCy1dXl2t3WO6j1z0v3jsUtClk5c5l89dibrSfTXh6vVrE671XOdff3Ij98aLm4U3P96ad5twu/SOxp3yu4Z3a/6w/aOxx73n8L2ge+fvx92/9YD34NnD/Iefeosf0R6VPzZ5XPfE+cmhvpC+rqfjn/Y+Ez/72F/yp+af1c9tnu//K+Cv8wPJA70vJC++vlz6Sv9V7WvX1+2DMYN33+S9+fi29J3+ux3vPd+f+pD04fHHaZ9Inyo+235u/RL+5fbXvK9fxVwJV74VwGBFMzIAeFkLAC0F7h3g+YwyXnH+kxdEcWaVI/CfsOKMKC/uANQGAJAwD4AIuEfZCKslxFTYyrbw8QEAdXEZrkNnNfm5UlaI8Byw2VGGunqfgx+L4sz5Xdw/tkCm6gp+bP8Fqwt6rJedCTUAAACKZVhJZk1NACoAAAAIAAQBGgAFAAAAAQAAAD4BGwAFAAAAAQAAAEYBKAADAAAAAQACAACHaQAEAAAAAQAAAE4AAAAAAAAAkAAAAAEAAACQAAAAAQADkoYABwAAABIAAAB4oAIABAAAAAEAAAEeoAMABAAAAAEAAAEYAAAAAEFTQ0lJAAAAU2NyZWVuc2hvdIGYM1cAAAAJcEhZcwAAFiUAABYlAUlSJPAAAAHWaVRYdFhNTDpjb20uYWRvYmUueG1wAAAAAAA8eDp4bXBtZXRhIHhtbG5zOng9ImFkb2JlOm5zOm1ldGEvIiB4OnhtcHRrPSJYTVAgQ29yZSA2LjAuMCI+CiAgIDxyZGY6UkRGIHhtbG5zOnJkZj0iaHR0cDovL3d3dy53My5vcmcvMTk5OS8wMi8yMi1yZGYtc3ludGF4LW5zIyI+CiAgICAgIDxyZGY6RGVzY3JpcHRpb24gcmRmOmFib3V0PSIiCiAgICAgICAgICAgIHhtbG5zOmV4aWY9Imh0dHA6Ly9ucy5hZG9iZS5jb20vZXhpZi8xLjAvIj4KICAgICAgICAgPGV4aWY6UGl4ZWxZRGltZW5zaW9uPjI4MDwvZXhpZjpQaXhlbFlEaW1lbnNpb24+CiAgICAgICAgIDxleGlmOlBpeGVsWERpbWVuc2lvbj4yODY8L2V4aWY6UGl4ZWxYRGltZW5zaW9uPgogICAgICAgICA8ZXhpZjpVc2VyQ29tbWVudD5TY3JlZW5zaG90PC9leGlmOlVzZXJDb21tZW50PgogICAgICA8L3JkZjpEZXNjcmlwdGlvbj4KICAgPC9yZGY6UkRGPgo8L3g6eG1wbWV0YT4KyToqKgAAABxpRE9UAAAAAgAAAAAAAACMAAAAKAAAAIwAAACMAAC83sn1pAMAAEAASURBVHgB7L1ptF3Hdd+575sfZoCYOAIECA4gSIqiSIqSSEmUaVmyLdtyHDsrSTtOnNiOe/VqZ3WvldlJZ63+kg+9Ou04PaSzOomtxEnajm3ZlmTJsk2J4jzPBAiAmGfgPbz5vXv799t1zr33gaAMCAJE97r13rl1Tp06Vbt2Vf1r166p0cJEz/Q40ONAjwNXkAONHvBcQW73oupxoMeB5EAPeHoFoceBHgeuOAd6wHPFWd6LsMeBHgd6wNMrAz0O9DhwxTnQA54rzvJehD0O9DjQA55eGehxoMeBK86BHvBccZb3IuxxoMeBHvD0ykCPAz0OXHEO9IDnirO8F2GPAz0O9ICnVwZ6HOhx4IpzoAc8V5zlvQh7HOhxoAc8vTLQ40CPA1ecAz3gueIs70XY40CPAz3g6ZWBHgd6HLjiHOgBzxVneS/CHgd6HLjswON2P39etvxpUB5gCL9c7W2KdMU08q03vK3ceKo3M0q74+wX39Y0mhF9+sBuGwJp8tzgRWMAVz015rnmojk3EROT49E/0IjBwf4YHBrEQ4YQcwvzMb/Qir7+wej3iiHo6osFfmdm+b6/n3e6SWBfZUN7k+9buBGvb9pJNmoc+gw+E2YeEg7ENhoL5erD5rkOzft+fKSZb0aTq/CkD5qhtY+roQ+/6AtexwKX6R3oHyCukpYqhDZNPjcq+vKenwxX2xftJ9/2zJXkQINC4vWdmMsKPE1L1Z8jIwuvJPAkrtQsysghwLpU3beaM9FszQAaC9hzsbDgfSP6AJ9SUYtHqnkCTwsQaVZXHxW9QUUHKqjvA/wO5H2p+EYDgDb5vgt4jNcQNQk89YMOLQld4IW0zAJEc/ksXvQBAMIG8MH3fCToLOiX5/Qg8Ag6/aShlTSSCMIosNWnv3MLcDfYdN8TiizS9ICn8OF7/fuuRuMCCLpswPPnSdKp+WQ9Www8uGTlyze+Ta/vknhwritDHdafZQs6KURYP/FMPbRelgcCayLFzMxMxNz8VAwMIuUMIeUMK+VoCloVOvJrISFm5hdiano2prmGhkZiaHg0hoeX8EZ5pP6q2NKb7YI3XIaipNXHjRiQz7hpuu/1Ptecha4ZsGiOb1pILNDX34ec1V+S0FyIBWjpU5JB2iLUvPxW2pR0hoZHeAc48qf7uxhY01S9kwaNdvrnBjmsfvJVz3yPOPCdSD6XDXj+vEk75lmpYBTmLNn5U7l2ve1qmWsfvu2+r31rv5exlyDwpNRT6mUhID8oXZsmHpotKjDv7aX0ITUs8DyPNDE77zvccRsEZPobw2FnKLsw83a7+sp3JEr3WfzOgk5zCCozM82YmZ5JEJjDcX5OoEBKkSbDxL8g1E/ES5eMxrJlo7FiRX+MjCDVZIXvgJewUTpPSjwGMBd90NdK4gyLD+BZP8jaL/2gXb4igrk5uohcw8PDMTAg8pa4a2ZKR22yV8WDbsSSNz3gkRHvD3OxUk8PeLryzUKd7W+WbH/qol/sVoJO1UJ3fedtflK51V+d42XRY1YkamBKWLWIkaEomxCaHlL8KJ9ZyXwzzzcCj7obu1WKSko2AwBTeQ+4ADDT017zMTkzG2cBGa9pKvkMz1OT0zE5OcU1DQAhvRCW4NMk7CKpAhRKMQS6fPmyWLliWaxevSKWLh0BJJBq1DMNNbgfjNHRoVgyOhwjCGND0JdkN+cL5+iepX6PpAwg+ajLqXmj+8zMTMxCz+joaAwNVtKcSS9JXvSbbtU7rIwo7UWcX/RJ7+EKcqAHPJfIbAt4B1o6d92unapRin79fP6n8xPUlzDBF0gwqT9JcQO/qRNB3BB0kpIGUo6K2FZ2URpKBrwSZCqIKvf4AVdiYipibGwh9u7bH/u49u4/GIePn4hjp08j8TQTZASfmdm5mJuZi3kknSbudrvQHCGcFH2LQDE0NABYqBxGQ9R1KQEJRNdeuzE2bb4+tm7ZHFdfvTbWLVXqiRBCEiiw5Umqh7hRsEMvnrbvjbPFTx9p7RN88dPNcbykqcNaHGoJu/6t/fbs7w0HesDzXed7p9ifP2ir1rl+urVA5/+qYQcIRa1dE8QN6hxh0J9SEVwUPn0xixQyS7epxRBXw1EhKi362NQHG+ocUSPIxNHjrThy7GQcPno8jp84HSdOnY5jgM3xEye5PxOnzp6NMxOTQVAp1ditWkiwwQGpqQYcu3J9SFAJAlDUQleDB57xR5+wj0udzvDwQCxB+lmzZmWsX782rt64odwDRhuvWhUb1qyKdWtXx8rljRiRZkMxqVyqqVBZJfiYBl/KvbwEXxy8f7cprvromMVPHffe3ZXmQA94LpnjtLnvKvk6dBfyqnKkU+1ef1RXnNr9/AQ1YpbaB+g0p6M5672KWMHFDssgsfXH+MRMTNBd6h9YgmJ5OAbRsaSeRkmB6M4i3Zw41YqXXt0TL7/yerz86hux/+DhOHHyVKm+SE8NhrIXkGIWkCiaKm6UavxLyYZuk7oXwE79Sw7FqxDmu7m52ZgEsOw75agVgOOoVgv0aKJUbtKdQgbjHSQDLl5rli+JHbduiztvuzl2bL81Nt2wIdZfhbSEH0GHz2IJyRtSoEtK+CEt3ivp1BePGOOreepzLQvVbt+ev37RM1eOAz3guUReq8cpVWBxQKW4d785P8AoHNQgVVeRxSHVTyhhWiBHcAkIDUAHyWZhwREoRnv6RtDV9KPT6U8pR9lDieXM2VYcPRmxc/eBeHPn7njtzbfj0JHjANBYzCAhqVzmP7tm83Rj1Am1lKIAoAI8vBS12uhaqr3P/qkITruLCw0lnUxYhlzAB8W3ICSitOhL0SFEz9OI9Ug9K+mKLV8yHDduuj62bb0x7th+S1y3cWmsXUXIfJKCHvYIZKkbSoGKtJnyAi8y0avmYLFL3uBcv9FLz7wvONADnkvKBoq9kgFhtOsl91WxLzbdgU7bW1eQ2o+R48Z/XWXadUOHfChvGjEDyEwgMcyAN0XKsS81PUs3qDUUA0MoTKDFEakpBCIB5/jpiP2HTsTufYfjldd3Ajq74g3AZ2oGKYQYlyxbHkMjSxCaBlMBrRJ6zrFrgEfJp5USD9RLorSkzTNeaiVw0oh7w+HxwaIMTrW2IEMsRcVdJB8/dGKhI292y/q4H1QyWqDruDAbG9ZdFTfecF184I7tsX3bjbHtxutj9fL+WDbirCJABynJrpcSEbrs5FmZzlADEJ7SmC8V+9qcxb9p6Jn3BQd6wHNJ2WB3xKsu5CUwHjEFcNr3bQCqJZ/iJ73yo7/F9aJ8Wd7oi8mBC1MAzyyVnNqXs437s2u1EMMJIH4PpsQhdDg7d5+Il1/fFS++8la8tXs/OpsZRqzmUwfU53D64BDhKCG10A0x2RAg8HuV0Uo6Kqjx4E9eRaop97q1n/FXz8vohxdKMwVYABgkKLtXdrkEIaWgTJVzAowNwJmfnsrRsKWMdrXmQUz6V1AVW264Ou6+/ZZ4+KEH4s5brwaA+FL1FuP8AhFqo4oygkoYleCOqZ8EoAI4UFw7drz17r5HHOgBzyUxvgM8VqXalOppKa/Bp7IrsSErX76rvyh2p15QgdOp+CwVnUqJnqeFjmceqaTVoKJyLbTsEo2CEY04eHQh9uw7Fq++tS/e2LU/3nz7AG6n4uSZKbpf+E+dkP6ZQUPQ0rwATc71SWqNLkfHao2KDhUNKdKV5zbo1FUfwKlFopSEDLkWkTIWngWbrPnEVNkNgKkJ4A3wvaNXSj0tJho2ZydjxegA3bBlseOWLXH7ts1x69Yb4sbrNsS1G5fFKLg7CIlVpw8apdLUaDpcTJKLY0aZdHdeV2961veCAz3guRSuU2FyBRL1zmJfVdG6OlaVoQM6wkmBFG0MlbNTD3Dhv7zpBp7ibgwOqc8tTMfZs5MJOn2DS1LSUU8zjurn6ed2x2NPvRjPPP967HrnSBw7OY4EQ1dqZFkMjS5DLUQXjW7UNEPjMyiDEaGovSiP6SKVvgvU2NVKHZKdmySo1OUEEp7TrbJNg6CTbqSF2dNZuWtEEMQSZOQOYdeSTpVqlz4MqksizvnZ6WCydQzQ9VLimZ04HZNnjscQCp7rNqyOj9z7gfjUQx+OBz9yZyqc1ffY3aqjkIpiKh7jUPPWd5KRfmrH2nvP/p5w4M8F8LxrXc4Fsqq0vhfo+TvwVvQ7patl1dJkIW/bVgK6GFTaAiVFF5EVgArr+qR5ZhRbeV2j5PC0PrObY0i461ZVGV3oKs3EGMNT/Qk6w6lI3rVnIr7+p08k4Lz61l4m/7VichatkIpnJR0u9UItulbqbebpDi2kogaqFwk3PGfFrB21Me3KCgVtyccXmRJvip8EJ+7bkk39gnBrt0xhHSDTAZS+CEfQGgCYXKraryKapR8tJJ8BpLxlw32xfs2yuHrtqth07fr49Kc+HnfcdlOsWg5QwZ4a56TTGdD9oFEKbhVZ8l5KUx9URy1pPXNBHLgc9a8HPBfE+vN76gYetRhZuBfZFHgqeCn4tW3tMDzUrnQ1nB+TUkOCD7UIYKDu8JbqhFt9ZeXE3Ul/0yhyWuhf5vj07b3H49kXXo+vP/oEuhwm/x0bi8aQ0g3K5v5hgMfh8aK3ye4VYaqTSiBod3+kgSvlNmmDju4JQDqlqVK4CHzqd922CTCRXIukHN1wKgzgV6nKi74T3T3lxz5slc7MSgKA0PewwNRrgPVeAyyAXYao89lPPxwf/tBdcROTEdcCSEyUTvAxbD5P0ElJSHLTwE1J4b4ooyvnnnVBHOgBzwWxqePpSko85wOeXEvdBTxWRCudrfICko6o34cy1zqqrkXAaTg/h8sqapizLJ70vR0QRr+z9jioNcaUmb37xuPf/vp/jOdeepP5OoxwzffFFApYR7UYLwI/il6nRXgqjMviciMxnApoEny67nlVQAfgE3wWmaomf1vgkXIMRBeAMT7dKnfsfMSl6ZQApwIAPiWvCvj0C0IJOqzjIiU1+GgP0vVavWwkbt66KR766H3xobvviNu2rkrgqXGGKUMJ6sNMANKtiWSp4turBzww5CJND3gukmFXEnisulmfu21Ap2zk4FsrXKmA0tUGHvQuOueaKpBH0OmnS+QX4swMw+U45gCTuhyWS8XpsVY8+/zOePypZ+O5F19JBfIClbjVh4SDwjm7WDw3BocJw86eoAMMWOOTSOkg9ASf2iZwn31lNW4p9dRVWTdN9fwu9/K27SPTqe8MDOfFdu3u/KOWACkA5TdKhVxKPdCn5KMUpOTTVwMR4BNs97F6+Whs3XxtPPjAvfHRD38ort2wMpYj5AmVSjdKPHn53L7qPMChZy6YAz3guWBWFY+XG3isWmWGb+mkWC0t5NqCjBWsVKRy366AvFugFVbicb6Mko7AM4dyxyUQ/cyJAQJS1+O+XKp58BosEgdknHl8NL74B1+JP/rjP2V28tKUHCbpfjWYqtzHpSThCJZhO4lwvgICiJIwLkPPGLgX3qrnRcBDhO8CGFLG5+ca01ubWpopbu/2XEBHdzlD2gWevAxBOmqeFX1Pwiag08juF1KiW2xMn0UHNJ2AZJfrkw9+OO675y70P6uDUfmcZOgyC3qymR/tETDzpOaF0fXMBXGgBzwXxKaOpysBPPU8HquMlc2r6BPqCqRtRasrYWVn3cM3upoi7Qg0VDO6RDnjth1YCdPB9L0HW/HkM/vjt7/4ZRZzHohTZ84CNEPoehp0r+hcAUKDo0sTdJwIOMXCLOfq5PoEvk/QsXLXkk5KPV3AkxWfiFO/U0OoH1YGmiXrfKZ2r4FHP7XbIv+Z/Ew8HKGLBUg2U8+jr3zZxa+iF1Pv49RIJSFHvAb74SkAtDBzlkmFzVi3enl8/od/IB647+7YumkteiBmOZlsaSC5dr0crheA1Ln1zMVxoAc8F8evSm9wkR9dlHeBosCK+pMUJvjeCtdn60qVaoNOu6W19upZiaJINdkVwqfAo8JYXY5rPOl1ZYt9FtQ5crLFUPnO+Mbjr8SfPvZUrhbvHxpOqcbvptUF8UEfCqDhpcsIA+AZQ9GMDokx6ypVVmzjt/J5dYOO73BLKSdTwDO2zpXR9VzTdjPYRS/VpyxyOM+D4GZn1NG8YgRdTf3sfeFj6Yap8xFUtJl9GNPjJ9jtdRpl853xEF0uJxxuWLMkVtDtYkcOJCRShd6LhfMJPj3gkaMXZ3rAc3H8uiLAk9IJdFmNrTJ5ZSV0XMqKbBWqL27zngpH36kFOMyguOlHF2PzrA5nmkoyzTLy4SVuhlV87z44Hc+8tCd+4ze/Gi++cQBQWprKaLe+GGAxqHNzhJCxM+P0x2Zi9OqrCR9l85kzAA9D1o45Z8wVHUmTFFdXgmQtmQmV5aqhZDGgZFD5k+4GiVnkB/Ba9Fy8dHzxzbnvjVNATq1YgrnPApM+u/hHt6s1N43XZixlmH2IPaYb85Nx5ugBFpxuib/503+ZCYebmGi4PJYA3na5TL3SjkstjKFnLo4DPeC5OH5dGeChKKeQIG1VhbKqZNVNsb6uNNjepqdSodRBzKlQdlMrnGjDGcUqyx4GwBOB6BSK5MeffCG+8ifPxtMv72U5xFwMMCGwCVhYhQbZ5q8FiM0wSpbLHhyeZ9sMJwv2M87cdJ4Qc2SMN/HG+PNGu0hkRR8FzcUD6amU0XylMT3vMnxeu9d2Ji091i61jWPbf+0mODl6VSSZMjUBpXrGbXcTuOAe+C1R15KQc3xmXCjLQhFEGoGnj6UkE6eOxKolA3H7TZvicz/wcDyM3kfgWTrcCHbkyM6cIfWAp7DzYn57wHMx3MLvldDxZEttXFxWqfaVlVhosIL71qs2wBKPVjnHbxoDoA4fKrUg8GR3y3tUOMzTORJf+spX47e//M04Ozca061lseCkwPxjqcEwyyb4dp71Vn0jdL0AobnDh+lbDMXS669jx8BpKiqb8Oi/JiHJgXIc7OhkF5F7ac+qSSVXaV53e9I5f+oA8NW5rb6r3UoomaAMjZ82MhtI/R6sdbQKuFVxnMAD2DTbFwtOE3yEiwLU2UVFz9OaMz2A6QBjYuh6+llG0pibjIXJkzF56mj85Z/4XPzkj32OGc9rYv2qJax+L9JO0b2ZJz1zMRzoAc/FcAu/VwJ4rEhZj4mvqh5VpdSVQp61va6llU1FzG1DadFzCwo+VEck2NTgc/x0K3bvPcwyiOfj0ccej28+82aMrL4hWiNrkW7wj6Sg1LPAUgO7bX1LR0tcAMYg+x4LRAvsIthAmsolEURdSKngRUkLNwGkVMhyL/wsMA6dkofj0Zm6yupGG5x8VcNI2jzrUsXgA366n7p9G7+TAzkJgwWwQqBryBYSeLDz1AsUM7iVLleRgBKu7TehMW5OnmF2MyNcLCMZGWiyVHYm+ufOxvoVI3HbTZvjb//sT7PXz9U5cOeiUnVDPYmnZMvF/PaA52K4ZZnPmnaRH12UdytSAR4/y6d2ZeRmUVerO+Ai8dilsZvkzoDZDlMxtG3PX37tJDOSX4xvfIsZybt2x95jkzG08tpYGFrDcgh8GZnA4IpurAba09znhvCGV66IWTYLWzhyNBrogBpIP5pyPI03LCkgThWvfdV9A1tcUfKYJ4wCPkai4YWmDTzVc2XlK4nguYadvMv3dRiLbZ/62V+ovkoXy4mOgg/TABJ4oFstO92tjvSDnGhaWdneZD1XC0kHkY4h9FaMsnJ/kK1DmpOnYs2y4fhrf+kn4qEH7ombNm/MYfYc1SqcluSeuUAO9IDnAhlVe7tSwGN81jErU15Z4YQQb2qbW016xFe1BmueCj/BVg/agwgtSjyT/Pz+H74SX/uTR+Objz8FMPFu2fqYnB+MCa6WIo9739DNGlG6QYczN4YimTFjJRz3JW4bgMS/JMkfwvJBoGFUOrGkBh1tXy8IPO2uVn7ph1WQftT1iLuPOvp9MRX8dD3X7h2bsSylHa7+lHiUsmodj+ADuDBKl4CjLAlI55VgTvrcxoPV7I7QDZOQIew+1nc1p8djEElqBE3yupXL49MPPxT/7d/6LOu9YBmkC7hpFoFo7eib7nufO2nyKZ/b6Sou3b++MoRyhlfNmcrHuUHjXIdeh1GeMwRD6br0UfG6tBDl2zYt5w+pE0OngTSk85l2UF0v61Bru+vVn3n77erf/2/Xan27RP+ZHLtgD1V2UEm7TXkqitsO8FCIsuDxU1Uiu0qzC3Q0mCWsnsZexUka8D2H5+I//L+/y9D5M+weOBatgREUystRPKtEZuiZblJDaYc5OgMAUCqaZ+hyOQwGaJQ+FRQlIYWaEjduSYMgwWsvvVUlrpTnCnxMU6YrP+jQngktbiXkqjLUYbSrEm/bJbn4NLb80nC5QdYDN1gSob5GN2nnMkT54eydKnZe+54LN4/iEVybs3TRPH8HEBphh7Ahvu0HmGYmzzLHZ4Y9nJfFfR/8YPzFzz0cd25bETeu51uRnWCc3uQCXfcO8nSMTGoVm2p7eSp8uoLebnFepKcPcPTSf/mG8CSSy+R62Kqw3wX9PC02pkLTbXtfP5d3hmDAlfIdbtCxxk/hN51rqSuR1nxOguqQ8Nmmu4RoDPIuD03UqTI1j/Oxm4jqfT3ocJ5XdRDntb9dHfxzATznTdX7xZHMrtr3pKguA6XoWUhKASpVqC5MFBjeOHFw2hXkLOYEf9xVOd7cvxBPv7QzvvCbvx/Ps4nX4OhKJqQsA1NY7MnM5qbKIM3FloLyVeeX0lYHUWx+LYGVVdLhm6pYtktnKfi1ew0NNXgZQHd46Tsd/Gn7TjqyQAMg4onAohAoJhu2gJD7BAEkLaQZ61TiNT8uKZGseYYA5zhup4U9wE6Kw0Mce8MmZ2fRys9xfMYI85k2bd4SH77zhvjRT+6IBz8wSlfMuArwzNFNdT8gN6OXMgFHKg18nvgzZ4kvN7onnzx5tY9uoHtOi5HpFzraPXocaBsyH92OP0MkzwSAWlDzK0EjT8rAb7YffFevsjf2QoO0SINICUAC0gV4ytHPA/Vsb5FOAPIyYX5tXkGr0y0UfqW7fp+0s59IZmfllZdp0q1+6LIzVBPZTmjXy+/wtgc83yHj6s+6+7+lspZ8L78WniwF2DXo+FwKggtDpyk4LRZzspNFnGAU67Hn3o4v/8lT8eRLb8WBQyeRgpbSpVqOXXWhshtlGN8DQ7RVkSXyGoAKHUpL1V1aBX5q3x3bl/WXCVbwQKkiwSf7QfJJiUNppOzTnICQlVQCmGTJMTui0CiztJtU7Dl0Xk1nXgIKw0NLqB9KRNLqoYJLY+OK+fi5n/p4/MQj22KFKiOIXUDS8giePOIZiqzU/gkKGjeHnWdS5pwnnCrlAPz9NBCeqJH1Gz/G4WyFrJj84C2mwIlTk026y5zq6r5HzB6fhd45u8cJXO5BxCRP9G4eTOj5YKN0mVcsY6mseFqSmHHkaR1Kg4z+uWG+VPXBIzdOY2EN4TIznfhGnEgKGAourgH0zLOkGyR3Q/5B5mZ4kGObcGits2txmSUITP3O+0xbOpJrPeCRE+8TY0GUlO7MTNKsXlYis9H7YnvvCE4WEjJypokuA/H3DD2l1/aciK8++kx88WuPxZHTMzE+zfd9S8o2F7TyeXxMNp3dRSMjuzI/0JtprWLrvtdpMfiUt50vFoOPDNOlDOnzZG0mAHUjKsndL0i7lhyTZVWNz+kBAM8Ie0bb4XAi5iySD0jF7GQAwq4QNcqK78r04fkT8ZOf/VD8+CN3xQduu55TTpmS4Fo5pjEoeShdAV2l0mdXz9njwBDRKy14VJAttFIOUZTzyCaYsDk+H6dOjccE0tUUWwL4zQTHSJ9htG2K2dQefNgGHu4L8HCSK43IMGDhJfCMADx2C4fQ0Xkk0AhbLHoY4kqmX69YwUb4bIaPtwQmkl2VHihmRNPlJEPMTpd//hXpjHcQ715OHoo4QHzyu6wPhDcFW82yLJW8Knb9nG+Km7mYOWne94Cn4sz7wcoK001IDQodoDELO8Djk3oMWie8FOBhn2SOnfmjbz4bv/9HjyHxPBn9S66KvuEV0WQHwehD68wX5ZSGGsy647wc93U6FofdAZfinoWyFM2Ox7oZrdw784GK76ooU5CpHAlmpAk++pmwbOVO/UBd0P1MPisWGSYTJNVnOXlyUD0Xbk12VGzR2jeo/PYv3FhsbmoqZriaE4fig9tWx6fuvyl+9q9+PrZs3Uo4yDiE76TLuRRbqLYuLwFdnLg5xSGG/UgKnoQhJ2quT4Ef42ykv//AWOx550Ds3Lkn3nlnfxw8eIRdAwAh9pCegb45aMidFZGYmqzU9T5BjHz3iKCBlEagHXsQwFkyyqmrjNYJPp4xds21G2LbTVviJiZEbrlxfazmxA0XwGrsfIE3ufm9co6ilwCr3kug8Sjp3ALEdxoS4NHPnsQ6JNi5fqQ4p92+h7V1rmt7VRznoQc8bWa9L27MGbKnZBi/+VxnW7HrtzW9HiVMeaQwq15F4qEc7No/Hf/+P/9OPPrky/HyW/uZDLgq+tHvDC5ZBTixkNL5OsZCi9gpHnWIl8OW9nebxcCTicVTbXf7r92KLfQWU9vU8QQeuzdUGoDFjmlJnX5slrW5eJcK0Wyq5QHOjmoJQH4FUcPoLeAkkwlxQ3ej0tk5Tl6N6ePx8P3b4jMP3Rk/+MhHY+36DWymRiWkq+Om9wKdjYAr+cus7QI0ApDnkh07Mcnhhyfj4KFjaXsY4vETY3Hi9FicQZ80wV4lU1MzdLscLEAbg+36s3IWWVECly4chJP3KcgZV0HYBGDLyAB9rSHG/JcsGUmJZzlbf6zg7DEln7WA0YYN6/I0Vu2N6xqxeiUnhdg9gwsCkeAwJB+IRu7ZK29a0PBhvqU+CaBTyquN32rqtqL7ub5X0vGLnsSTrHp//JybYQVkzLJynQs61poFdBAz6CScs9Kk5Z6grrzw2qH41f/71+OlN/eh62H5Q/9S9kpeESMr1ub6rXlGarLkOPkmw76c6a+LXG0bF5W/+zGLYnEvlJTCXLx0CnZBiXf706Xeb0db4CljNlYZrgSZUnnz3melHisRPBN0mmeZQOiWGeg9RlEQM/snt0uN2SnweS6WIyIs55z2NSwYffiBHfHx+7fH7TdvjtGlS1m5zxns2IJPDToCjaNp9orGJlpxenwScDnLTgCH4u09bJ6/aw8HIB7NU1in0Nt4aiuiF3oilM108bRbjFDOE2C9oVs5ANHKjlyWq/4BV8DJyxNa7SbmYYcAaQIDwCGQegzQggBKOuSMR0Bffc0GJKAtceOWzazCB4SuXh5rVzNDnV0ZPfanPnUVLMoiQhCJqK4ZTL2QXUucunNKrxrLsanJ/IPPeV88JuB42wMeOfU+Me0MI2dqkCkZZCtRsrLY/mb2IcqzgFNlKAXVwYlXdo7FN554PiWeQ7SuzABER8Cclv5R9Bir2VWQwjp1lq4A32epEnwuo8kWLotgVyTSXpt2SjNFJV2+K+mrfRW7/q62a39+xTorgSNHbZR2rBYkUC0toOx+zOW+AJESRJkkScUUeKbG8N7MUyeGGSefY0Lh2NH9zHM6G0sAonvv3hEfve+e+MRHPxjXrV8Ra9EsD7C2awApZ5ARMLcMEXRcmGvUYEcuWTlwpBV/8o3HOYNsT+wDaE4g1ZzMayLzzd0A+uiG9bG4N09zlS6CsCvVZLAADOG+quIWEPmSBcV7JSD/BIHi3g/YjNBtVBQSbOZNmxMkld4KegBcSkRMDkUfNMyphq6+37plfWy/5VrOIbs1zyO7eo3hK+WANwjIds08kcMiA5vpbs2iD1LHlC666r1tkkRoKjZvE+ihvifxtHn0vrkxk1IGwU5oIZPM0AIzxS75q0ul26EoKMK7yZ+job/3tdfiK19/LP7k8edjzOk4S9awzUWZwdvHUHqeDjrHwkjLi12t7G5dJhZAvpSWQqldCnO3rWv3cz6mP/3W/otr5/lcd3kj6HAx4U/QsXsi4Dg6lWe/a+ez38IomJ16LrUc1C6P+mGBFhMHJ1mrdZYJgtMxyjHPm6+5KraxO+HdO26Ju7ZzRDIXB5WmRDTPOi/DHmRUqd6CRPvkmfk4xFFA+w8fj7ffORgvvvpW7KNr5TyqKUbNppFuPLMsN1hTunGkSAkH0Mn8hymmyA5fnzQLQLzIpTEyLD2RDvw7SqYCvMwJAn505k/gcXi/eC7D6S3SKQCl9GN/CmlIoBoenIk1qweQepaFOzFu23Jj3HTjZnZiXMfR0CjeIWEpwDMC27LIVNIPKiTVYxiJKjmZdlvKqXKfZ0nW6N0c6Ek8cuN9YpxW0y5TFByzLa9KauhkVqlYqVRG+VevzVJz86v/+ivxu1/+kzjARu3TTUrL0PKYb4xQvZi7o+aCCkh7Rc5bKC18dZG4DEygLJaiZ1rqoumdJotfprD7uX2fLWTtt7iWsn2OW76y0CtqeDEipYRQSTraDdMMQBS0xUp9CN6UApAKXO+xhG0xZsaPx8zpI9GaOBkr6FN96M5b4nOf+SRH4XyEDcL6g+O5rM/WV8JEaqj0G8Y+STCOcivpvPzqsfjDr38jHnvy2di15yD75LP1CLyfFUBYlJue3Owazy30JCqm1ecsuPu+jQ1JdMja0zxU4JpuQafMvfKBCKnCKenQ7RJ4PH9e8FlAEe7eSXwAOqLn4WTXQSaGSqqgI1guOEubQAd4n1LP0EJMTRyDFafwNBubrrsmtt+8LR7++Mfirtu2xPUbkKL4wraqyRocOakElEVHfmTGyAVp1+auAhvtfJP52QOeZM776seCAUHCgZKPIGP7l6M1ZF0W9sxCM7IGHnQAfkc9U7o5wmjWr/xfX4ivcjzNHAfzTaNInlmgtjCa5bE07rlXduirgUc7S/HlYYXl0DSUokcc5U67voTWvF8ENJ337yLMink+0xB0TA92elHiKZeSQ97jnktAHLVxxIrjfVrTE9yXFepLOFX0qpUjVLpNHHmzJT5w+7a4adOGuHo9Z98gPQzRBRtCupFUo1CPI4aZhP0HJ2PP3kMc78zRzhwL9Nbb+zhttRlnGbry5NV5wNB9rOuDEJ1L5Zny9HsIB9ARKKQJhMidHgELUa7FjOpEOyNBwsnILCAJA235AT+6efGGMB3ubtEdyjCllq6VCme7WKWkIREZvg0cS01aTXRZ8M4dGUcAJPVZ16xfGzfdcE3ccctNeRLrLTeixzJ8iwysZv97sY0uLs/GkaCjMryQU+w691MOSwoTr98rHw3qIk1vAuFFMmyRd8qMClGKAhKMbZnDw+VKqDGjzMnMOnfZcxEknQu+E3wOctTw67uPxb/+d/8pvvn0S7Fk1YYcXvdcLIa0aD2d+OW+yZQWmy0Vy0o9VxR4Cv2ZDFJoWgrwcH9e4NH/uabmQ7c7buhbyhoGAQiTehHDRRLIPxlMpUAiWKBCNtF9uAlYiz2X1XlctWqUln593HLT9fHAvXfFHdu3ct46M5gNimtycpKqPh+jS5YnzcTGTHE2yz/TiiN0q3a9/U68Cug89cxLceDgcbYhmYkVq9YjaC2h6zUB35Vg3EAfqRNgUCfn2WSIK0RgZRXFAAFrJQDRYPm768eaE0gvCahIOEg1BXzkXXUJOBJY2/BxAB2PwNNkGxMmACXYuquAC2IHmcSjtCboqP9xgazHP1sO+tD7DYMkTRTqc9N2OWc4g2x57Nh2Y3zigfvigXvuZGsQRsfYl8hFsnbBcmdG2Q8ZhRBLcIccX+Rzllv88U7Ki9+8ueSfHvBcCgvJkZzUjm2DIvC4VijPhuI5u1nZSphtFFouyn1w1h7rsyJe3TWZgPPbX/p6vPTGO7FszUZE+wFaXFo+x9iZ0ey0/xkUQla2Bl0LBYErAzxF6ikgY5Gz+CWcYkNHG3SKO44Y788x7Vayuyjrh4orgLp4yqsLpO2QuIC1T9EkpRwqM8Pirs1qqutC2rnxuqvjUw9/LO75wO1xG8cce7bWMnZtZM1syhXGMJ8jReQJ3TbloyIjceLqMwfjN3/rd2Pf/sMMi49Tmfs4XdW5O/CZUzoagP4AXS1qdUqcs4hJs9IhjQlASjik1eSidynyggDkndIbgQmq6QFPKdlYBvxAW/6VbpduOWfJuUSySC+AmxKUBxPm9icAr3OXUuIDgHJqgYoaaSIfXH/VZxdU0GOTNDdHW4Fyfduma9gY7cb40F3bE4hu2sQkRcJP3lZRYUlBIbFKSZKLe8nz8iu1hUC/uHTTA55L4GH2icmPIvVYnFxH43EsDI3WFSkrnoWtAh78J/Dg8uiTh+M//c5XGErfHfuPjtG7WkkrO4gikwKXilWnvFP40SV4pngjSw0fXkaJp+ikLGw18Mggi6YFrwKeuvtQueneBg4Byct02xVJZSn3uHl6hnNI/FNJvEA6WrTYLXQULVp6W3jXYamPsKKxJoDRGUb5AJ0B/K9hTstGThPdsum6uO3mLXHXHbfFpk3XxsaNhFhFm3Xa7zE2Bhrr88v7xuKtPUcYJl+IV159I77x6LeYCMjsYqIZYgFuk5HGGXcJYDy9QRd3RCkJ4HEajN0qQSxnUhuR/RSxAxBIqSdjMjaulOIACm0jTt7wjXZelgXvqcoVH3M+T8630Zn3ySeV0OQC8TYFHkCmKNahT9BRkrLfKIB5NpsSEGXEU1iHkLaGkY5HuVYtGWIKwY1x312sVWNP6qvXsh81c1IRjFJwY95iUlOKq+lJoosj8ddUm/P1K6i8ZNMDnktgYQEeZ1mUQq42pgAPlRbJJzOqBh6AxFEb/c5SbgSf3/rSzvhffvXfxDgOE3MMsbNS1HOxPAG0n2Nq/HRmCtHbAkA5y6Yqu1pV4bgE2t/rU4GngI4VyXgscuXK+6wsdeXpFMskVpDJrgXulf4jdRZ6A3DUtQxU4KNCdd7Wm+7JnNLMGJuWIa6MqFglRiW8+bNjMcdcnQFa8pWMC9+xbUvcyzE2n/n+h+PWm9YpGFjvkje20qno51mqpZ7qmhcyUvyX330y/uCPnoiDR87E6VNjMc5h80O5qJSz5dmPpOkuAUiW2tTkGOCd/J8H9OV/VskEGhwT+HU3lspu3wMAgo5XVlss7RQjZER1ZbeyvtePxufamArNuXZxpTBAnLTQDWMuUouuVgs+5ixoZlsvRZlz6vD+GD95lGkEo3HvB3bEj3zmkfjgndtj87VLY3J8ji5aH5MQ7dZWPCP7CpASLKTIW9fRJVV1ea6jv0S7BzyXwECBx31rOsBjZ8qTL5GBLLV5GYFZS3VyBIM72vAYQxr/rS+9Gv/i//x37LMzwOLCQbpZQJcFiRbXDeAVwWft8xOHI7QpylvAqQCXy3QDT6lu3cCDstUSmenRrq+KmiSr0GZr7ZXqkGy1mZeCFGMLbhxKPgsoTS3ofSPOq4E/VeURaBYmzuQEwXXLR+IWpJpP0Fpv33JDbLr+6lh/1epYxUSWEVeSUP8EHKcnuDLcrqhVHsEm3nh7f7z42mvx1Is7Y9/RyTh4cpY9rGdjapIumyvah5cAPkughUmE+J9liEvsNNB+Rqdc/1RzOiWBBBdc6tFFaM/uYoKPH5I3fYIO9zXwZAA1nyq7G4Tqfs0i0JEGjN++Z15XCe3nLDX0Q3axWlMsIMP/KEqcNYg1M+OnY3rsJAmbZIRvWdx84/Uo32/J687tN8eaVaSTKJx4KIibdrOXrAFwXaDbzLVkUt0pyz5cuukBzyXwsBt4LHZ2poSWAcTdDvBYeqwRjmXmzjMxRtk8yNam//XLT8f/8W9/A90Dm3a2hhN4WiBMgyFbC76ZPec+O+R8v5XUFteC+J6F8RISU33aAR6kEQqeaSwjchY/7i2Zi4DHD7NoelMVUCQ/Su8A3Qbt3C0Q0DEt2W0gXEdrWqQJtXE02Ct6ORNtJk6diDlmaNtFWEnlWctEFEHnQztuje978IHYtHFtTpxz0MgztgZHVP4SJZVmGp66gdok9tGxSebjHOVkjpfiaXZxfOqFNwG5VcS3El0OtDprkArfqLbRcN6Nyx3cZqOV72jlndwJ7eVPnivdmJfa5rYNgPedSxBq50+dR+8ClsJH4y+mes4H7o1ikXmXQ/WWRNvVopwMLGHoX6lxiiYN0HbIfc2qZWCfXdWzMXnGI4A4fQRJSPC5G35+/6ceYt7PNexHzbA7SXVOYVJSRZf5BDFDKriNMYcCFxF2SQ894LkE9tXAQ1nPokj+pcQz6GzTlHYoGGkDPA3HWspQ+nFk/1f3TsbvfPWx+LX/8rsxz/KIeRaCzqlQBpycbm/Bt+I7muP2CK6kzmLfXTougfb3+rQAT9XdgvYCPIJPRsyzIFruSxhZLMttphUqobt0NamgNKOpbOedqgklINUYSkMCjzqeSZBkdvxUNI8fpTLNxPJ1q+OjjMZ8GrC5m8l/W65dF6tGURzLHqMnWLd+mEUh2w9osU9ajhTSi4o33zmE7uyZePyZ52LPwcNxlqUNjZHVMTbVx3awBsBIof1WhsWdc6MOzdG0XMbggWZ1BaPLWFJmypPzRKzeqwBNsQWgzjsSzVsbCL5IgJYthKKXKjTvyn3NN98Lb7V73nT95Mddz+U2qWIOkY3UACvb5XOCz6RSD/od+IJ+OXU+M3ZZAaAmK+c9+vn6q9fFh+Hvxzj++RMfu1Gyc8DUtaPOep5j29xcsEr+ZNolwbz9Lpoe8FwCMy1c81wWP8FHpajjIIOOMFD52uCjQFsBj0Pphzn+6rEX9scXv/4EUs8fI+u6Cp2tGuz3WymqIVhb9SaT5QYoGSoUU91byikxXR5jIax1PIJQAR5Bz6pRV6hyXyjwHmPBVK9Duss8Exd/OsIH4FAR1H9lKIIS9/p3e6tZlKIzgE1rZjKuY6TKOSi30aW6c9vmuAul6OaNK2M1A0xMW4G/SEeil5WacNS/TDDteIyu09usDn99z4F46a3d8fKud+LtfQfZVoQZv4wMDjATfHKO3FkA/AdcKkENE1gyHNKUtJMG6dcQfL7j2a1IsvJBa/LFfM17cz1zJG3v/dDtW8u0CfLRgNLUdvVYu2Vd7oBO+kq3bn/nv3dNWa7GB8WVGDMqaHUOUSqaocfh8wEU4X2gievhPP5ZVcAIp3OsAYA8edUTWK+/ekWsYcGp7aV6834KwTANglKQOL9op4Dzk3PRrj3guWiWdT6ogUfQsRh2gAcXQKMNPmZfAs9AtszvcCroHzz6Ynzp0Wfja998miUSq6MF+Cw4q9DKkM26FZkwADErrvNByqmltqgdGr7bd93AIzjUEk5p96XNyGsCahunrLwUfJWxFnIqaD+leCi7XHZBcUdvIJAqxS0AOHMAzjR6nQFqyApOyfjRH/pMfOoTDzLzFglnKfNOYAG9qVSZzLBok1lQ6L7cRoIoiNrFnPuPjMdbe/bFo088w7ljr8drzM2ZZFTQPZudfezkv9kWxwEhVTa8UCSXle5WNPjraFECDgAArXav7B4KNm41YZej7n4SK+4CDLbpxS5u9b1vAR7iltpiunhUubzbwg9B1BD07vfvdmmSUbk/U0WPSpqcxGieOfSuzod0WZRGmVi4hPVdoyic5ybHYxK9zynWtG1nGsKP/fCn45Mfu49TOVaqCsr9q5d7mCRRpnQKafIiR97eTcZ37NIDnu+YdZQVKqESj8DjJfA413hAebUNPBZUs9FWqQDP28da8Z9+/9H46uMvxRMvvM5G7lcBPCyTUEuaxoLIdyk51XsSW6Drq/ZXef8uWgKPrXe27ha4IqfgRvFrg04df23ry4JK1aHgN1iR2HJZA+DinspDiOxuvj5ISRZ0pifOxviZU1TwZtxK4b+LeSb33H0XiuPrOAF0dba+1JVssW2BrZSyw9h8FHCOcOrGq2/sRHn8Vrzyxi4A6HgcPzMZZ1lXNQOAC+I58Q+Jp4GU0+wboWI6ycd5vBgCzG01nD9j5c1hbLu5xJOVGjcjNT3EWgON97UpvOo8J48ScLqBp/Zd2x3/nbuStvq39vnetnmBBEmxmqeMtNhzKBsEuo99LNcQP3MphxIb5dCZzwqKSuMuyvXo5zkW2C4f7Wd4fQVLTB6Oj3/k3th0zfJAl5+DpwKyGkknJ7ZHtt6boIt+0wOei2ZZ54PzAw+K0wSMSuLJ1tTS7IQJ1v5w+9ahZvw//+VL8cdPvxYv79xXgIctMFRwZtWiAqe4jGjcYISkH9uWlFJFgaNQJwB06Piu3kFCAR0qXVay0s1aDDo14FResMCVlBRSSkPBKeCoOnaET4Wn66vU9Qg+wygslzGSdfW6VfEhJgDed8+OuOeDNxXRnmTWydPOXmcV3Vla5BMu5jxyLHbufideePm1ePXN3aytOkCXDarhj6esOuPYbusCQJ67ByLluO7KpSfqzxJ0ki4qrVKlwJI1k25LoomSm41HCkC8lycaAUjbJ0G2vtfWyCvDV9qpJZ580fWTH5GHxe56cYG3FTMoF4Moi13DNateR5rUCw6PgqHIl+qqMgp/uMgPZ33bfRryIERG3Ramx2L27AmOAPpgPPyxe+P7HvpwXLuWmdJGgeK6H5AaJGNdziH4fDdND3gugZs18NCGtLtabCvVAR5BxwIuaHQBz+v75+Nf/dpvxTee3xm7DhyPweVXRVOJR+WmhYSMz9aYZRJKBX3YCw7dJPAIPlXhuwTa3/PTjL7WXVhos72v4jTe+qpCKORS5SiovJplBz6n7y9FtFe8X8Z14sghRPuD0Tp1MpasuyruvH17fPYHHokH77srrrlqWVzFyAoTtIkjZY+cnoLahnVTrViyHF0DdVi55K29s/HcS6/G4089m3vjuFfOGMscJhnS6kPD7HycAYbH68WlymGublcB6xyd+WrCXcZivmTlJ48gvAg8gBcV1IWZefQz9NQby5vqknZtKiHAVrpGvuHK/q+V04u8Mr9KzceujfwsDFOW1NR2PvhTImo/Lr4xnuLSB/DIFwoKkyDRZaV+sI6/2CrPG44e2v1C99OcHKOryXwqtM4usF2YPh1nTxxikmE/a7s2xS/+7F9FmX9jrFuRKaDc0d20wQB0kg+Libmkpx7wXAL71H/kuivCsGIoxDv5zWN1s+W3cCuuWxgTeNA3cPvKO7Pxv/6b34jHXmLG8vHxGFi2JppDKJcdzqUCq2vIrgpT7wdY3dfHEoE5JrY1mFjYQlf0vQEeC7OmqmjlIStCQhPpVK9jy+omXI5O5YJObFQLzJYdihuu2Ri3bNsK8NzGos6tcdM1o7GaRZ4jVAz3Kx5iKTnTmOgqMTzONVXZh07Mx4uvvxWv79oTb+3ex7HOB+I4oGPX1BnHKQ3yoRuye+VWGgCBeolUk2Fnh6kC7OQxoCPYeDVYQ6Ck06D74ibwBXxQKuM/lcztNMsDK7+gwr2VPYGmck+3wqGaPR27Ah0oSUN8NfQs9sNTB186r8pH7eeyLMeUU17Q7+REDtI8h7I92zruG5y44WGO+d5uFw0CrQLhcxyQeoHZcfYwOsHUowkagKXxmYc/Eo88eB9rvG5Nec2lFZmfEFT40I7+km96wHMJLPxOgeelvdPxz//3X4snXtkbR8aQapYKPMzFYOiXnKagUKatuIi6zKtjDsY0eg1KI5PFVFIXhe8lEP7tPqWwFRmHWp+mPHW6WjoKPpWp/VPD7V4NID04bX9y7FTMs1iyhTLzhi2b4u47tscjn3woPrBja2zdTBeB5A2T3BXU2X5E/nEWdC5ZtYYkDsWEoEO42rsPT6I0fiN+5ytfZ+TqKPsasxhSEEb6ayDduIizT0kQv56Uqu1Of41srekyMeTsNqhWQLeayK5VggzAYzciMYRKSdORyzhIQ9bcrPwlnYKWAGPlLjaiRoJPBUCVu1IPKeMiD5MQeWTt1Wh3LrxWz8WufaWf6l1xKzQs4jmf9MNvpWK7uMMc7WM33kMhpxjJa+XRtAIPinRmNTfY+CyVz9DWdFgdAGow0XGA1e198zwj+Yw0ZmITm6X92Gc+ET/70z8VSyl3bimSgwJS2iFQgi/ZvE+Bp2b2d5I+OVS+7w6lw7fOXTt0CuJ5TTp3h1J81aFTvGKOiqO0I2QUiQepx0qoEs/m1jFK6UmJh82nuH1xz2T8z//y38YTr7HNKVNs+5euYoIbIzDsA0yNIbfxpHKWkIddnwUIiUmNGngWpe98tPMNprwp99UnuFbP6aPjq10/vEl++LVX3ZrX32GXgDMkvVolbYEtpGdRGrfOskcMdfIaJvztuHUrOwHeEXfdzi55169MxTEHKGRVHSWpI4blnja2yHQNlHROsS3FG/sOx/Nvvh1PvIQehxnIh09PsMwEgIEHM4IwepTcLCxDIjIqXbb0AE5OZa5qisppFcNunuV8qNzZDzoF+NQf0awLOE3ya971TvhR4uxXGUIKPdiP5p4UGkeRLAr1PtvXkT9e+scQlsMNdGR8SKfy430Sw2/tXt0lv/V1jnv5kN+a920HukHwC0B1UfIgs9xzG11omMsBCuiqJT++zSRkX5IYXKSF1MNrpPPp6Gcjtdmzx/PM+bXLB+L+u26JRz7+kbj/gzti6w1r0SHYYS3SoVxIkwBb0/Ju2nxTfFb+20WmPAvPF6szIg+rHK3j/S7ZTfUhaUxIO4mV22Lr2yVVnyas5lH6rT7IZJPJ2eel4JntRfrWPk+ofJDf+GMTVQLI8I1DKUDgEUwEHoufEqwi6iDJ6XP/SbezMGim5dMEEURfPLvnTPyzX/n38fjrh+I0W2A0WKSY++9YARPGoI3uiiR56oBDum4gbjfClq2kMImSCugiDFwLgbr4VOhL8YkuYUpJ6ZUfK2fdIhNJDi/znIsgBUsrguCXFaKqWHX6fcV9uhqOw9G0vA2UnI6YuEp6ZKgVm5j0d/ttW1NxfOvNm2Pz9aNM5SeZfCh1pqJUbUghSjfkOsreRIeOn4g9Bw7Hy4DOcyzmfHPPfkarJpCEUAKpv0HCmXfEKr+28hOgtElRwZPyDGkysJ+0Z5eKl0oj2Y0y7fJNWvi0HB6IxGMZzKDcB8eRKXzxU/MzP/Cj7i5WHTcf+qnavpR4EnjSgR9D0hR7sWK5ftf13ts2GJVQdeo2RaKD3xCYez0jJgOlsAKeCDqWFWjLYfBqvZkr6vPYZ2gboP/LGCtldCpmJ2go6HYtp5G7dv1KAOea+Is/9sNsNXJLbp3qfCAVzf0opHPnROLxPLMmOjOPzsnSkHwqaUlVAWRbv0xrXpn2Oq2McL6n8r07lZ37ywc8WRjqSlMiTDJrWnE6NwvOfa7JzDzju7T15AXzalOfUqmdfXzeIZzzenGIRm3GSVp9WbxEa3eO82O2Rk7gAWKy4JtJRiXwDHKuUx8Hu5UhHyGJ6kYr+czuk/FP/+UX4vG3jsX4DGnOSW0O9VJwkHRabP2QIi5xWKiyEfeHeFPvQCa2xfm857ndHshDC6A2w8MWDIeQ+daTS3Puit0Ph5Gdr0L3Y8B1UgBObq/J/A/pbTCP3hAMq+hMCNN6SYEboEAPSQthtGYYVZlgawnOLG/NTcaOW7bGhz64PT72kbtj+62b2JqTQkbSHeJ1A/P+AXQ58opqMhfM1uZuHOA5Pd6K5186FM8+/0I8gfJ474GDcfL0eCxZsSqGl65gFHwUJfIce+y4it2hcbVpcrrrShAwIt2KMb8EnCKBKIkClL4ScTCZx1Ulz3t8l3e+L37adhW+IVqpNXlf3ZXQYBKhmj8dkzF2HnnfdqmjyLdt1y6/732b3bl83Z3npJ1y0z5zftHnxKtUBw+cDyXwoGHOGc0OsY+o6+L8ebv5P/83fyZ+6Ac+yeRCdHCyk0k+w/2zTHFgES9d2znOEZuZmmMrEpZmOCFToZUCYsoM23ZhAb42keB1U6/mr0aecchO3l/oz2UEHguEKZSJ55hzHLrzqvu+/spylGXJ78j/tJQKYEasB6KGAABAAElEQVQpp7LA+ErrLlMEIY0VO/fJtaIbToIM21BaidUdcOevBc9lPS798WJxeZZXU2B8HpU7QmYMzjOP3/1mMnI8kmnP7x2Pf/wrX4jHdp5I4HF+SXajVDhQAMzkATNRwEChPK9Ir+6Bz1MJCr12bVKfgD85JvDUQJHzfaDSWbQ5N8iKmMswQAAqrBJOCq4UQqUVC6P1MLsYrBZn23Tc2IbD1YO2nIrvDFe7jmmA+35HhwCcBsDaz/foh+OadStj+7ZNcSdSzvbbNsWWzWtiLZuP50LOzBDGwvtmwGrAOKW6RpyINfHa/ma8tm+eM6oOxRtvvBG7d++Jo0ePxjQncJoPeYKDNJAPbrKeQgn38tMU615SLufLvXYxvE9Td39QfGcF0D251rbrsHQv39ffVraZWplMTuYyvivANzRzPitXu/DVX3z37SSHeGqyCv0d2ustNxbHjH9bD75KYEQ6zSF2wMHZ8YP0S+fZ3dGz53/wsz8Qjzz8iXjw/nVxFYJmPwA13GBfawBjCOl9npHEWbrES0eR1m29KZ4SIz0OECTwEN4CimxqF+7+WlbLH/sQ4OnCzWUDHs/J7s7wmqFJWtdDXRx0r+9ruyQbptYtnjwmWEFlnoqbB9YjbqbIyUe1CChDHFXJEGGix44k+FDQXcszQGW1xc7KCS11fAoNbujFNi6p4FHR563RDtCYLOVmuOkcC/Q1tpC+oOV+Yd9E/KP/7dfisbcAHlCrkZPbVHycAzyAVHYtEnigL+uT8EwGJvDUAGSajdmCiKesjAV45tzcivQoITSYXNYACQYY7VDnMc+izXlWNDcpaM5jUfJZwrqfacDEuSF9KCazUFHbG1yeWdUPHxvOPOY7ZxUvZ4HPxqtWoTS+Jb7/YRcero+r2R9HpbjMyN4jSbdsOoVmgTDKjOXZ2HuiGd984Z146tXD8drrOzkU72CcHR9HWTqa19DwCCvJpzkDi3lMgF4/9PvOfYxNrmktkp2MseoXu+RQnUvaAk8BvA7w1N/wOr/t+j6lIb+rwjDvKrMYdHTMKl+9ha426Jgfl89k6O24OrwoNJM20uBfMbXNV3kLnTY66Hsc6XJ4fQRRXSl7gaUr05SH227ZFg/cf2/81I8/GJvZv3kUcBpssUUJZVHgaVKu5rlG3DBNfll9akO5MCsWkKCaCTwFdvzVSNf7DHjkSn1luU1C65/kc/WQ/EvfZkGdycVOf6bRK9ECWz98pDjo4sJ5bDfs7ndbSfrzLkmoQyrsKaGmGz/iUuqKCUk9RaV7TKBXP2GjbFH2nnqbwLMG3Fjar2iLnod+dgsJwZGY5w5MpsTzrbeOfwfAYzJqwKkByMIv+NiykI4KeJR8HOlo6yRMjEaJQWJVosIs1Tl28ZyzMQ9vhtGnjNK9GR8/mwXRtA4yrN/P8P7UOMOv6AWWLxmkW3VjAs52NuXasvm6uP6atbkLIANIGaZ5JC/raLlle9GIw0dOxdPPvhDPvL43drPkYe+xCbYiZdN2RrZElGGOJh4GdAYAmmn2I5phmoENQR5Lg7v3Sj7mbYJPpt4EGWN9lff8EuZiiUc/HkWTfjMMPSUHsWupyfeaYucvCVnkms/dqSOqNhgsdi9hfTd/DV8CbGy8q+g2b6WSdBXgqSk27pomgZsGSeBxx0KAZ5hCnZIourocLSMYpz78zZ/+ifjg9nVxHSeZDsQ4kra6IQo7I2eekDrkCl2jqNrtvCea7GIpqDMPzVJZoCczLemiaZGgCzaXWeIxBTWjavsc2uR1xcBi1y1Oh6n52nU4lk6lCJvbzBDComDP8m4ugYeOE0ONjUrjKe+UGDWyyN4WEn9MMrZ7hmHc8bMTnJONlMD3tsAWUvUmc0z863e6OvFMsTWBWLdqqBm3b+KYlY3LkSYIzSbauf5IG88p8fzKr8e3kHjOpsSDJOKI1fkkHrta6oZEvRS7iBba1Vk4b6ZIPvLAezK4Bh182NVSv6Od9KoIFkEtlLIXtjhhV/BxHZWKR4diB9lofoSTLjyPfH6W4VaPkEFqG+ibimWjrdiwbimSzca4a8c2rpti86aNbCi1IsG4FH/oxdQ5CPRy2iaAc7gVb+/eH28w2/jl13ayknx/nABYxuHfHDyVo3Z1BZjSxaLbB2CbD16FbptTQsZfu7JBXSkFVYyZuDp2bYBHxTeczC6G31fAk99lWHhLimsA8rtOGIknesG0y580nWMy2EzJeV6e4/fSHg3fUoptcpIH8KFOe2UX8DEm00L5sBxhuxtk7mWNxJMNKRKN0yHcOH6Id6eOH+Mo5TXxV37yB+Phj9wWH7plLXDD8Dvh9KtyoOvt5YGFaSSlZhlR2MVyCnST7lYNOgJQ8UIX/P0HPCUd5/5KcJrMz5KAZDqOdUHo8gAiU9wFH0FH5ZeX4GPFJDDZL6+063u7Tegv8Ysb9+wOgIKzFceOn4m9+/bHvn0HODMbpefJUxxdy3RzJJh54lFKGERqcnGhG4wvW0bFvGZ1/PgjTMj68A72A7bLRPzWHrpPz70zHv/oX/wawHOsAzy2HI7vouNpoONxqYEnHKjjcaA6R1zq/p6AA/VFzyPg+CxPzForYXWR1n6ATnFs1sTIDw0A52bptmxNN0+n1eunnziConk5ysKZ8dkYPzHB6Q1X4XWWHfsOce42Ynb/dHz0gTtQHN8VDz54T1x3zRq2WaDbRoVm3A3l72TOlRlgMSaCOfQQNddZot5/oBVf+/oz8a3Hn4tnn3sVaWZZNBHvxxHtG5y7smzFCpIPQMKjSbp5c4C0pzjYtRpQO01IM6Rhnm4Xu4ZBlxKqoVdAUVc4XHQrprZLLpeTS7tqiAWh9lKHkx/qWL0oSNJ+bnsvEXR+LZftlz54XU5T8ruUYmLLBidLBXRU9Nc2ZAhASZWbGVFehpay8yJoOs/zApJPk8sRySXMo1qxbEnse2dPAtDDD90Tn//M/fGj33dXDgWkhpMGro+RxQQgo5KlXiU7smvvtrYN8rcDPAJQ4Ym0jLxflMtFx9OVd6TjfJlX8pYEZBrqhKTnLv+4K+14JdhQoc0YClGZYaE0ALhwsaYwD2qzi7SfyWq79h5gMttMnBmfiBMc5nbi9Jk4xXVm7GycBVSmEIFmE2yUemCuOg9aETPR3fXGzpyJ5QDPbZvWx1/7/PfHD3/iXpYPEJGgAj1WlqcYTv8nv/of4omUeCSNUZoEHnKuAh73GPZ4m1QuI/EU4OF9FiaIpvAo9bRBpwIfi6OFEI+UBSpysogWytEtgMt9cATKnMFHPz9XMAFCKhZTwQhj5kCKmdNOLuPYFCbarFu3PG7edn1s335DbLv5mti8eS3H6a7ijG/EbrToCygesw7T+imI08Ek7r44xo5nO3cd4cyqd+L1Nw7GO/tPxQlOSh3jiOYpphHMcABfg6H33O2VkRAV3vJ0DkBUQFQJPuiiR3hnt3gG0GkJoLrZkGBKC296NaV0tO185Ade2rzU0mF6bfst39Vf5rfJs9rlXLt83Y4jH2s/PvhxfeXLy/RjY0M5yMsobFDr5gd6qjKQdGaZkUbogn/yeZDz2e1iO69JXZ/g02DUcRTl3FImWp0+cdyXccPVK+PHP/tA/MxPfT9K5iYjXEjnfO+UCqeNpCRYk2E2eJGHCTyIUgJP6WoVuUd6CvDYmFy4uaxdrU721RmnnazrorC41Q4Fx+unyrbUtjPfUKn0cMSNvOeYBOZ2pW6V6VEnJ8ebbIc5FSfYte5N9nF5mdXOxxnGPXridBw+diIBSD1DZiRSi3oH53j0ofgw5Nx/B+6rdJ1HR3Lq5HFajGVx+5aN8XN/6XPx+e+7n2FIIjLzAR6Fjqf2nI7/6V/9RjzBqNYE9ahhZraBh1mlOarVkXhc9JijUO0uYwEeC14BHgshFRjwqUGnBqAFpDLLZj/nhHtMikLTNN3BppIGBc3zmFxX5RwcRzjmOS98ANFvmH1E+5A6rmIq/d0fvC0efOje+OjHbo9VjFTBAiaqUVhbU3nNAjwC20j/cnZTbLL3TT/g3YjX3zoUj33rlXj8yTc4t+oIWbASCWYNBXsDM5BRGs+dRp9DSe0jXisAgJjzueCVPO73SskGsKSLOCdgcjXUywFyRRgxF7y0Krt+Lq781vwSfOryU/tteypf1a/bYdT+OnbxUj/7ffd9KXvnLZedqC75rgYdRzY15rd0nFfyqd6lx1z8SnmBhwKPoJxHB9HNFpjtZrnrYG5dQnmO2TPxI5++N37hpz8XN25cxoZsSxNbBB0vo0e4IRweLFwCD+XcbTusdghGcL9IO0XiKbwaUU90EeayAU89nN0BDFNV2Cl9hVzdio/6t36TL6qf5Kd9WaUAJR3H95AezCKKbtoIM3GIrRWefemNeOGVN+Pl13fFKTYAdwvNafQcnm0+g+7BGSB21/oEm+yygeJWAnUitMwOPi9hMpah238eY+buyhWca7R1Y/ytn/yh+NGH78x9ZTIBhXyAZyx+GR2P83g4N64AT+p4iIt5FB3gKRLPAiMJOYMWOjI98KWuTFCTlakURN0TgopNRVSC0M1p887czfk6tHCCjAtQR+liuU9LDqOyz/EU3cj1nHZx08br4sN33hV33nVr3Hb71li/YTRWrmZOjrpECtQ8ELOQF4DFnyu/7RLuPXqYM8cPxTPP74rX3zzAuqpTHBvjbONRukrDgAdzQLiGR1YC4oxwNccAL/RI8C7BFZrLaRSkVaDFZGop2NpepievLBSlZKRT+ane6682Ak+GgkMJwTf5JY8lhKqsVa+LWxU2Popzl70I5Ip7CS8hny/k++UzJfwixZUE1PmuNO+93W0oSjqlrEqLz/IipUrrh8VbXQ0+qC9NAGgBiX6Jx08ARGeO7o1PfvjW+G/+wqfivjs4oXT9VYuBh/riiGeGbiBmmZK9ZY37DvB0c56pJikZXzh/LjPwmL3lKllZslu3im35djG5xWebsfj0K/UDVlaHkWmO0+346ek4wqLMg0dPcy72CSapub3Cwdi973AcOHwipgCc1KtkF4eRLrsnDkPD0BRjIcIwF6wkedFxQ2oYogIPiutk1OT4mVi1akXcsfXq+Nmf+Ez88Me3Mx3dGZ/0iZ1diHlyz3j8MsPpTwA8rsJ2VnNRLvOeyYN96ngEsqqr1QEeJ4ZZoEyhlckM9yKdee+bwqla7C6jdfigMHkOt9+pi3JbBPbDxB3pBwWjk8dGoW8104u3b94c9952W9zNtXXb5tjIJDIx11071H1ZoJxiZNVyz+QpWsZjnNywez9zcXbuidfe3BcvvbaHEx3G6Z6ikhlBVzS0Ct06uiames8zabLBMGx/P1IiZ56TYMJ3sqR7v5AieOx8kzypk+SYZruJ2tYUpSI5sMhkskvaF7m3H6ovrHRpOraNs6Zdktp+imu+9K21FCOPC5+TOFx058pwSp7kglk9XyZT8r0CHuKo8ztTkWVEGku5bdOHvwLmNBQ0PgKEUsqAk0gp45ahOXQ+Hgy4nMECS9rpQ7s5k2t9fObjd8UPfep+RjI3J2Sws4YCjQUgl28k7wjL/ElGwFTVGQKPbPGqoVgfnKPC74Wbyww8klaytUNu5mZmbbmriCWBnTd1QfCdWcIYDC29FcXRJo3SzrMv7Y0nOLHz0W89i+j/Tuw7eAIVCkO3S1bFslXrqBgNDtNj9IZKMeBwrseGkIkLZMgsc1fUPTj6kyIlGTVIH7bBuhelBRdGOsnPORBrVq+KO2+6On7m84/EZxgRaE2dZdiRPWhQxDqo9OTusfinv/rrCTxT3cCjRFNJPO8JPEoBpEsZoxt4yn3hSKkghSdDpgGeTJ88QSFBdIbmlWtIL9siTJ45HqePHYw5jkFZxT68t27dzFYVd8cn7r8nHrpna7BPVKqmbMXcscP1YhOMdDkPaukKpUgkcfh6+PhMPPviq/H7f/j1eJMdAPcfPhnjLC1vciTz4OhKMsGtKljQyURJ9xNyi485Rgdb7AGsnN6gq7cEvdiA4/CUylnWrM1QAVKfY4UAkOx2FeApjUpKR2ZsGtJtaW6bRQ+Vq5qFUqqKg7ySkcUu4FNDiu7VZ2nBy67yZoUuFcwQoc+QrXD5GemhAVLxfzlNB3god5juPC+AI2xU9SLBQFqhNKVIgacomW1U5a3AYxkSeObZWGzZyuXZQJ05ti+uWdVHeV4XfwPVwUc4sZWThnLPntTxkMx+ASwZBgOSJfKjuCT45L20dAxaus7DBdxdAeApLbhkF1JrcqvWvEqEKdNHSWnnXjdFfupIbqvgni37DhyJnZyL/cqrb9Ei74v9h9iHhCMJZjmjvIVit8mK7wUO0ssd66puWcqezu0h06hCKc3krE8LVEYrk81iCxmZj4jqyMAcIzKrnVB383XxMz/+SHz2I1sgBCUuGbuUmqzE8NTus/FPWKulxHPhwEOCBCaV1KS80CJvCr+kMiuRtCVvKrtuvXFPZbS6KPQ71HyWdczEVZy5dO361XnkyR0sd7h1y3Vxw4ZVcc0a1lZlR56QicbLquSMAG2lnj37J+O1nbvjxVfeYMsK5uQgOY4B3JMejGfXC62xuiv56kZcOafIAldJLkmvAdc0FpL5NRGmzXcWaoyVxysrjs/pyo/+MLXYUp7O+a2kpXZhL3FaokrchkHJIa66zLWDr0IqpbEqZ9IvAdjOZC/EaBsc3KE85AZo6XJ5fsqsdSSezA3jgDb4U+gskk4CZOVeaMSbvPZKXtrFwq+9AyR4lckadT/DwzQC8GN67FgsZcbyNezJ/Es//1fj+z7+ADsXot8nuSn1EFSe+JrpLo0hoiyOhZPZ7SOuupQavm8oGd5esLnswJMVyAJRkSplRYlY+GVmy1yrUSamDKdUz/jhTvadRJI8jJJ4J4sMX2JbhaeffTH27z8Sx09OEJ5H1C5nSg0nd+YJkrTkgINzXoaQdpya7yiKYaVRe2bBzsJtRagumU0GuLWnZ0bNc8TIAttArOTcp7tvvjb+xl/4dPzQx26IBsufbFAYqcwK/NSeCbpaAs/RLuAps4TdAiOH00lF6WqNUIkBQKMUeLLQm04cssLWWVp4VrJVqkvG54F6+BthRrJ7N9utmjh6CGniLJurr2d/Y1aP33U7wHNz3HLjuljLRDF3oDNprJ5IjBAsNfKVicQo41tx9Pgkm3K9Hk8/90q8wGLOw8dOpeK+jwmSfQ7hO3/I0SjoqPmpgljKc70ZG5QP2l9T4Q+aNR0mz/d4QfR3Aytb59Kl5TvS4HcJPG2RHr9twKmITJ7grsmyXYGOSNkGHt9V+Yl/40gGw+RSukr1NYjapNK+KnvNzINK0qnKYoZtfFUFtDHqlspSKiLtUlm765ZdyHQzpioN3v4ZplTluqtluEReAY8Jr5XMJSXlXTJEHssjlctKkvDSqRbqK+16yfdhRrZkdQLSNEt+Jo/FktZY/I+/+Nfjs5/+VGxY01+OxCEYxxb7DS+V1hUfE3jkN1Qm6MDVpK2TKHL+osxlBZ4COnXFLiwzKyxwsjYlumzx1dnYftsCo7NAASGjXEIk/x0m/8aLe+Obz75Ei/xO7GYz8HdYC6SCuZ/JcUPDK6m26htgOvyeX1C/AAYzUuLVpJCW5RQ1b4jJLkENOE6Oqu6JirrgLxnFyMwcOp6lK5fFji0b4ud+8rPxIx/fFEyFySLv0idJfGr3RPyTbuDJuJ1vQ2FeBDxlHo/SQ64y5j0EGlO5spIV4NGtcKnc4SF5UbdinrXkBl1OiZ/jnKWrrloef+Ov/MW4/wOcLHn1KCdPcvY4iOMK8mQxn0tr8h/bFHu++Js7x+OZ516Lr//pE7Gfruop9hNq5Xqy/hwpbDJnqCVgQGczWz3yjUruTFb/MlSBnHdAHBFwwf9MX8aGFzMzL+4zjVV6eTR/06QXf3yidOhPdLaQ6N0f80WeOgJWy/y8sbI7ryrZCU0LduvIOwHI1l4lfInXcDDQoqSZ+jLTRkOQYEwDZZSmhJfVRXn0e7q1KvYLJBSAkUYvByeSRujIkUbC1K0GpBLpt/8tZbHTpSuNsyUAWrhKRZfWznOGWEuYmXjpxjXdSIiGZ/VsskginaXePHuEPZNOMKT+I/GZRz4Rd22/NpZaTkgGPfZcV5g7FZqo/M5weAHPrKdF2V0ort+/74CnXblNBIVCBvpXnrRNjKtKsuOQw9OZ5yTYynH02FS8Qrfqmy+8Fk+/tiv2okQ+eeJMTIy5tQL6HPY2Hhpmtz+6WTNsdecILfCPfoGKb7hGlNyxyMhIs64WaWvbTCI23mXGVgVTHc8cpzeOLl8a25Eefv6nfjB+7OM3xIDAA33MTM+q99TuSYDn33UkngQeQYZKgsK3gVRSdDzoZxjtsuvYAZ4qZ7sqZOGZhHsVXmXFzefirsTVYOGnEs8cZ1jdwLYVf++X/nY8cPfG2IgYrZLQUX8awvAUX3np5Tq0sfH5eGef3dXDsWvXYcDnIDqyfTHFdorNliNW5gUVky0r1OHkdHl4kychANItFNn1BREQItMFCNLs1ZT3Vbq4K0a6MVbiNF12in88y9QsH6ac5zbwVH59z9XZt4cMcEgupRLoSklHesjFys05WVZXG5MECqUA80XwEkwtDdbyrKcy1Yu0G65JSCTCVzfw4MeROo1hLtTAg3+lDme8J+hknqa3P/OnBh67h4RK3EbunbZlgCvdqnvdfTaOij1JcPksvy0/hpX/+TNAd7w5fgSp/URuEvYDHAT40AO35fnrZqPr9RxYyQmI8tFkZvjyg3KLQwGf4uwro1SqvhhzGSWeMp29rkRZkExBMs/U+KYS3UVRn3mdbCcRJsjryWf2xL/+9f8cO1kPdIjWeAJwmWW0ilrABF4Uxm5BoU7HLTMTdGAQktAAmykZgFP0M6D8KZlaA492qY5Z/CDJygVjLXSKl4ib81TqkRXM49ks8Hw2gUeJJ/vNFfA8jcRjV+tJuloTzJnJeTxIDdk6p8SzGHjKkglosSJltplSTRavtAvRHSDM15kG/PKZ5yu5Z46jWDNnT+cheX8f4PnwXRtiwwo8VMDjIOAM7KZHlbw9w83OnYfjq197NL7y1W/EyVNsowBYrFy9EYXwWqYZLA2XQcyg2xlhCwtnSae0iFSTeZjAU8BH0FH7k+Bj6Bw7I/A0tDNdherObykF8rkYbS5aCytqSi623BaP2qRY7IPpJl1c5RwtRyeZUsBgQ9Mu8Vm28XALELpEDSbTDTGtwCbNiXQCk3NZHD1zblEe+kfrbWlw0KLlqIXgo4RsudG2dZe8CszqzeKTDmhMgKnokXbDdpa275XoBR9CvAiTNQD/2lW+59cFaEy3ocvXUkoKLxYDj6/rWPGd9+Wr/JJXAwyeLLBRWGPyBNui3ssukh+Nzz5yD8cP4Z2sdJdCzztzKw0lxewO+3FmCnUCrmYd4U7+1Yl83wCPe7UUJlYFVraRENFS4ufIqEllfUBCALGumxBHW+xinUbv8CQjVk889Uw8in1kYi7OeJg2XSuHxN1Eq2UXihEVd5IzzPqyyLU5ovicWUWGVq3JucAjBHrpL9dBUfDow0EQep4xtpHkXO9u4FHiEXjypEZielrlctXV6szjeTfwNHPJhDoewyaRFowsJ6UoZaEmvG7bN4sKEzTqhBoKJSCViuH62YnTcdP160Lgue+ODbGePbYURNgqR9yIM9jHWJ/29Ct74lXWVO1EcfwOiuODTDloAhKz8HVyilMO2K51EClyHhGpFP/SupV8q+iyWyVgG0HmWG1bwO0yE6Gr70vCsM81pSKUxZe8o9KmPiKBx0SROC/+0+g9EaB8l+4WFstRSirSwwUQCxJuuObAgDMdPMol8xBgmhhjiQji3xImXtoYqfNT0hHE+gCbBByAzEanloBSajGfjD9tbuU/xgrZBhjuO+Cjf8qHUlVW/PR+AT/mdJWWLt8l/w1ShhTQ8XW7XFRgVz7p4psONQ/zvjwIPK1Jzl+fPMVi0a3x8IP3x1/+yU8xKEF6YB1rhclB57QxL8zg6rzoqme1xCO1GTQ/lseLMZdN4skCQCEt1d7MIstIiETbtXJh55mzzHHhJIFBDqlPAQNfTvg7cLgZb3KC5B98+Q+Znv8m55JPxHgTHOZY4L4lK7KQ9FNIFgij4BsB20rZvJdIkAQEPguW4OSdijvpsXtV2bSENehk4eWLBcLx8uA4C+0Cew2/F/DUXa2ndzuPB4nnTddqUSTqeTy2el0STwIPElrZj8fKy3+2/qVYlQoGEZrklcU8PRU3nuSgTko8HpPjcP385JkKeH4hgWcto93ignsIuYRmLzsBvrzvTPzeHz8ez7CKfN/+w7mJuF2pEfgpq8aOs2sdI4CNYXRmS1emVOBCz6b8LFRUNMg7i5yUlYpiHvtcd5u1v73Rv6ZU4yJNyLcqrXVhN6FmXn35ieQk6PCtihmVqNSQfhRuSjkqgWc5fcGV2s7kdqBAXhnHmquuio0bN8bxE3TXT7MvNIuEW0g2/RwhM+iOiGzVasdsjnDdqgOCJFF1oDGmaUs22QVTd1J1uyrwyTIJvd8J8GRkGSGRtk3hrgkvrjKguve26BLavilQXfed29p9gBntbKBNRTvD9hir46GPfDB+8W/9OApmvuOVezMPgUBNGrQB8iHzJIOxsTRflSNtmAq1JT/el8CjJFGMrZzdK69ZMtZjTNyJzqk5+kGQcKQ6fvuLz8cXf+/LnK+0n1XQuI6uiGl0I7NUWhal4AvGk/IElywg6iOUnNwknEKGON2cRrdiwVHJQehlXQ+VJsGnBp5SicxGK5E0CDpNr3cBz9r4hexqbUrlct3Vsk44czklHoEHIcTTI3IC4SLgQRRX4mE4ugM8BYaTvowdAipT4WdSVjKXgiFIGSGunurZz/YcfQDbAoVo2/Xr4x/80i/EvTs2xFWwib2/kXj4QSz705eOxG99/dncjH7vO/vZlAtxm2DUc4wsA8ixp9JNTgDUIhG8y03F5aEmAQhnKYIGbWmxmOe9XryzArarqR+ez5gGTQU8mSYeqzrTXXdS6kjv9Tf5IflsAeDiG7sEjvB5/M4wdWOe+USnjx2OmUP7Y2D1itiy+QYWwj4QO3bsiM2bN8fTzzwTz77wItMGXmMJzVnW96EUHl2Wko+6rdQKIfnYXc/V2kjWQExGrIJ5Hr42mcBZDG9UbFcSTk6GlC8kokpO5e/bW5m6qhE6n8/C6fKm+74NyhkZP92RdjOyuh8AjPvgj9dyGqWP3Lsj/u7/8NfjuvWkg4bK8+wZpqEMvBfwKNUqPNRNNTfE+b6TeGryCmMV0vtRXqIZYAqkIyboLtO4Kfj+Qy2WO+yKr379sfgWR9ieZRqwQ9CDy1azJekwR8kMIQSCuBY6pR1tUq24nEsIKABmvO+cUJWiLn375BLAIujIsmyps9Lo5nO5kpn2/e3ft7tap4pyGR3PL/wldTybUrlcd7UM+6ndLBLNrpZbn0JRG3gAxErisY1wFrXbojpzWYWU0k7p1JgOTXIpqcknCosutVKxAzykw8rG+ir3gW7OjMUtN6ynqwXw3L4xgUexedCjH1iI9dVnDsQX/uDJePyVfbk5Vyr4SaP7FiltCr8ulk1+4Z4lyYKaoGNJ5krSit0HCFlH8k1lJ714Ep8ccLowk4ESUKmk+UR+JNgQQPU2g8ogK38JbfJOiVqp1e5V1cXKxbIo9EdQOixfwqztm2+K22/dFjs4+2vzjTfEBirY2wwGvL5zV7wE8OzcvZc9oQ/FGfrI0/TxnaPUl+dXMSqKVK0U2CK/8hQM84OGTeDJkz0FPk2lUM45ND6XhHh3wSY/IZElzd0p7w6ilIdulzbw6CiTzLfadN/z0kdPsxigXPQDLI3Zibjv7lvil//+L3LqKOBLtBzJVYAHSRoBshSBzH/rkZXVqyPxSKkx2mO5GHMZu1p0AygcpU0rDLVQOsv1LHtVOAFthO0TzDolneNsV/HYU2/HF37jvzJx7SiiMLvoUUk91E3xfwGQYiJ+KgeLpEOrrEhOigWdPGfaZ4AnAcmRBjmC1FEM4FKDTNvWC6zjv87SJv69cgyawlyPat3OCu6UeD6xuQAPgYppmqd3n67m8ZwPeIoexrkRBXgc1UIKY7jX7CtjeWafVzHyKaHQgi5lWYBwtLYn2OoXCE/gYU9d5vDcunlD/IP//ufjvh1XxxoGlRp0+QYZOmUad/zRc8fiN77yfHz9mV1sBfIOPQpG/SC+D7sFz2borjQ5hthmq8/5OJzGJwjNAUaQjZGg+sIP9wV8BAz+KtJTogUMUhldkvIev9UHJWQKtxIFURBZbgpmpCXipENalF6LreyxgP4G/iP1LVCBcisQlKHjp44z4XMM9yanYNwSDz/0UboS98et2zZkt8ENGElecprTkXPC5JPPPhfffOLpPOPrCKOl80g3/Ug6zl2yrM4zPWABPViWxap2Wb6cw1TOlacESz+XCmWHriE001Kn4T2YsMi5SIqFtmTGorfJnHNdynPyqgJAmVh/LB3ep1tx18lZyYN0twYp29Onj8fdO7bEP/vHfyduuoGtLQCPUfxwXCLljFNK8zPzghunSVhuE3y6JJ4q/PcN8DDUQKK7gMfMgHQr3SzSjnNzZArwEaeYaf8HVIw/ZenDsy++wXonNTHOPHZgz42v9F9t+5SjDDCab22xc8ia+xxKtWthRhh2NdyZ90acRvAprzu2nnHTD7e21lbGBCyBB+XyaCqXC/B8/hM3VsDDthM2CXz3zJ5TCTwuErWr5XlZpaulxCPwoKijdWw60sUyAxdgOs/EClTG9aqCQ2CSIdjY1GjXM0WTOIlM4ME/InODwtEvuLA+6tZNAM8vCTzXxlWOZrNcf3CeFetMrPwawPMfv/wic6H2xaFDB5FykByRuGZYNtKi8qZi1iidG6TMzL2ElLk43uMm8ECxDHLXOq/csxp/Dd75l9tiUulbqXjG+wUav9WUbkon3gSargrts8ShhaErgH5mhkMAuWrg2bB2dWy+bkPO2vYYntu2bYmNbH61BsWpemZIRXcDuygmbp9i2TtxZorFxSfjDZaGeGa7J5u6i8EYi9IG2H+42beUbVaQzNEv2hjlkoQKaAQg16F1j2ZJY4IPYV+MqefGFFZUGbAoAKmvTXWvpdRVgXS+TR5V/ip++VR4R/HD/xBS4iDXxMmjcef2TfHLf++/Y3kN+/ZQPPmn5iFJ041Xm5NcU48k8LjfSQJQF/Bk4IT7fpF4uoGnbrVNhhP9HGhX7+l16ESL1uZQ/Off/P145oU3OPoEvcUQu98xwqIuxJnIjoDJAEHBrU5VeKm8cyGi64xc5DmHMtFjXTPjeO+Bb3nfnSlZeXCuKkptl0pFFMZi5bbucdkdmkW5vGQR8GyJfqIZoGXvt5IS/rMJPL/G6vSjudl7Hn2TG76fCzwgAqAkD9wd0A23EngsPJnJxu8dGUuh6QCPxPBC2rKg4d+5AxzgVgPPbZs3xj8UeG4HeKgjiDGI1Ow0OLyCrtah+MKXno3HXtzPlqRHch2VUs6kxxMbJnwcVBSAp8AGFZlGw8Jmd9PCm0R17CLxSA58Tl5WpMGT3K8F21R0DN++y9RwwwuTVVXgkl2mvEg4zr9JiSjpKKEq6c1wRvjC1CkmvC2wi+JQrGTe/x233szWrbfGh++5M268bl2sY/W9uOpKETlYQMejjxm1QbE4srQ0gOxxHgeOzjM5dU888cxzLIrdFW+jCzvLPitTC56dxn5ELZlqQNBFgzeElG2WSHd7+w/ua8nH5J4v1bqfzxTggcoEi24fxNnmpfe14T5fwevCtHMihG8ZVkUFlhx3sesg1wB1ZurUMbqh18ff/Ts/x2LR5bEW/XqRa6awOd4oIyB8FYIJPJSRLuDJ6CWHsN9nwGMxlj+lu6BdJB7SIj+4vvzHr8dv/97X4pU334ljrDa3hWmyCNGjfQUdwcd1TKkPsUBTUVTkWekFoBZu81SiGSSLpsBjCUvgoZUy7syUKjJdbL2xywbyttr1O92hto7DEovEI/AsXQQ8WwEeN9mim1QDz24knl9hdTrKZTb7IwoBxpMm3g08TiB0yLkGHkcZUudUYueX70G9uiAKQN5nwhJ4oCvBB70G0o4zURtIPLfR1fqH6Hg6wIM4ncCzMr7y5N749198Mh59bjcTMo+xBGQN6WSWN4XPcb0WdNrtmgfg/z/23gPar+u6z9yv46FXEiCI3ojGAlaRlERKsSyr2JIce6wkcmLHY8szK14TO2Ut26Os5azMxEuJnUiJRx4nGksWJUuOZKuLRaJIig0gCgEQIAkSvXc8tNfffN8+9/7fA0QpgBdfFoejC9x37/+Wc0/Z53f23mfvfYyRkwsRWkcJ3lX9ZENaf+Sk2s1O5izvWW51JHBt7lmSy//4dHkn/454yGYa5rBKp7F9nTWyDQswMQ2OcreJJXr7uzCCGzgbCzCcXL1iWdyx5mYWG1wci+D8prp2O32EFX0SdGAOcfZFoQpopM8SZR+ChpwhZmI1Tl9A1ARkNa50LmMLM6nPbtgU339ybezDgLV94qw434etWOWIqZV0e87ElmG+z0iKohr1p74xjQuzbCMKeHlVXPa72I/VwGM9Ve8m/Xpep1UfvcR50kJ1rVRvI+WRwFNzPK7b1Upem5EOes+dQQd2XfzWb34kbiYO83XMbAnSrP3KChSq2B1ABB52ZpVzQE0bLfsKl/ws3/TgGHU126jpeNB4kqlh0aFYPBoxEC6GHJ4iYNdeTPQfevSZeJhp3n2HTiGmEAdn7DRAdQLE245HM+wwwCPyuvhYEbZoYCu4JnAAAHLkiepYcCVByWobBh5uJOh4lGBGHLP2fJFk+U6TlU4nagAPlsur1PGoXL5vMYG14HZGAM/GSsdTRC2AAnCpgacZQMxYORCI14cApAI8ytDURgU8FelkI9Z1VQCogFADeHxCgtMeA9CR4xkGHjme64tyGd+RNjpoU8fk+C5GmF/41nPx/edeicNwPJOnTqO28HAHZPqgHpXprvggwGlLp3I+N4HTTnpJ5gB+LtgmNEGee+SpBJ0UVb1wyVb3iBHHfGfEb57P73idbxaOpySSdjd0FuPKKCcN9XYRpnVS3DB3WixfNDvXbV8JtzNrxpiYOqEoSR25HRdyQ6zFIpLM8j0Vcx6d1WDmSrMOcCevq75wxvjgkcF4dS+hQF4ilvTO47F9z0n8BPujq6urMWnRYrQD9WSAmb5Rab0M8JT40rSZXHqj4qp8/JiDqgSIlrIXMOPlfDp7UF0x1bX6XqbfAJ6s0BFfKOBNonmNKmWT46HtaHd9iwaJwrAc4PmNXyUAPCL6PFafkOzbh87iUFwmYkCdEcADXWuZbpp8zv5VJa81y1Vtowg8oEa1qcnIaXTyW6/S+er+vgScdbhCbCbWy9ETZxmBW6NzPOttt6PcRJl8EetZwdbZgiY7OqmgTsxGHUDUUOyS+uU8jI0jIZQ64SlG84aiMvMhFVr7HCuupwFEeT1bhjN4AL9Fus6W9FQcTwKP0+n3LULHU6ZvC8dDeA44Hr3Tn0mOhy6YHI96HmZDUscDQDSAZyTHQ82oq7Fx+aZNKbkxJrHDFdE5Cgdh1ssdzth41s7k7ATpN2G9fAPA+Pu//T+j4wF4oA/XyGplxquZIO+PbkKUfXhTfG8tNlGHDsWEyZPhbuhwjOCKXBSYwQyFKiO5XFpyWBBoAW0+l1zh8FGOx+y4Z63WWaMM+U7epB4ELV+jhMm5Wc9ZzaWuuZW//ZU7ecpBht/qF3R3KHGkoQMdH9Xh2bmJlPg+4l//NGFol+J9P2vmFEKXCFZ8q6oaz2FqcvOafa2fWasB0nDN9VboxVEa0iokwaEuhiO5dMdqL7Fh2/H44tceih37juXKGdr/9GLlqvlGK4p7j+nhTx1JocbENsCcSyqVlS9KHjJ16tQaKSYd1blf5XqqEawvQTE3jjU3ziNeTRKoclnXbPYHC+j1fMiXPQHAEsQsYBloBbUM8oVBJUuARDOK+RVLCffyDz4Yt944D+6ROiTfHaw+MVabKOlMNqEhakFYaoHIF18z2+VTHN44wGPHEGbJey/DiLYSjii4VMVxJlCe23o8vvTV78T2V/chX59h1HU5YDsc+gZte+gE/YxujiTutaxvBUvccjiWOyuculWhl8ZOtE6plOFjqR0bw61uHY51wzau1cRQgMfO3YuvlqLWKny1nNX60H0LKzseAa+kKcfzMabTn3kZHU8v17TXuUTUei3gKSJWUS7TuNqra8FltvCXGmJkIWApWaTzCUoaWViZElm2OFBOJ5JlloiWzZ8E8PwqBoRzYiqfb6bu2tAjaff03Y1H44sPbozHNrwK8ByMcYRyNSZRj/5HfEViF0Q9WiV1zVpbuY2sJ85Hzmj5QuKMGRfsSVMPaZcZ0rk0JwbIb7+04F4SzL96Tif3YZmo60G4EkF/DO/rrDhEuS6ePhn9zLi18ZGlC+azwOANcfvNRFFccl0snDONeNisYYmyXMK3f6QI77vufIXVkvG874udu3bhl/ZK7NmzJ1avXhWrSOeGJTOCGffslpIr+tYsi4poPfkFoBP4te05iF/bvoPEJtqD8nl77MC+7MBR1pRvI2wolt5txH+Sm+2DwLX6zjph4MxMycnYXu4Cqbo5PmQ8bIdj4co43wyj9AHyL6onEQASdP2iwLeOucmV0uWpryydnL5veuQ9qleAl3OC3+NYNDbwgPxml8sDuJsZqFpQyjOqpqj1G7/6i8wCzkpbnlbudzSzxpr5YPkjl0lyHTqCLPGboxwPbW4us1h+jvM3DvCooDTDNGYvGdVOB6flYBYztrwyFN9fuyX++luPxMHjjiBkHgtawWNAwz+I1jXG09EPinD5GS1MHZ6EhtfeCtD8yNv50mXvkq/LN6tUdjT7CN/uAXgm6J0+/5r4KKLWh+6bn7Na9I1GZW/EgPBjn/gsq0wcRVz0Rh2BkDJcwvFI5fWsVqHyQnxWAPXVhHjKNjSEkeTQOI4G2mIGR6McVuyEapJw8khBW+kZrgI6SIS5G+aPj9/7Z/8wbl89K6ZhNOhyxG0O87ijPLLhRHwB4Hl84844DPCMYUUCQ9P2Ub4cFKlaaJySK66Wf+ZjGCgo0wgucbhD0DHyRTsEZ3SsJjioDKsA5zTE4KH+qJ92E1YdMEiJdNkB7WICYYcB6vQ7oxwarmn71M7vduqujfMZoMP106fFbatXxF033xh33b46Jk9CzBlDfTiDxsDWA+L00bEIiJjqCHVtp8+z/M7+8/EyvmfbXiRONPvu3UTgW7Uy1pDW7TetirkzZ8Q1hA4ZR580hr8dr5002wR7idc+zH6MYOm7Dh6LTS/siM2IYJsJPHcQP7cTSHCDTIYMtgHmray0oS4EBNHuB3aTKjQBN+iT+lF8H0JMbgZs5Ha1tPY4oH6Mzj6IiGMtNQFi7qoFmhq7aRWw8uighFaO56UR3s2Bg0LkN6E19KQuLlzmqsq58YWa+86yHDe+bfhrrVx2XfyvH/37KOanp/UywwWgo45H7hDjVCZtOuHiwlk9y4aOx/wl6FgsNpvzDQM8A0Q90xTdjepOEes81Hf03FB8+Ttb4+EnN8R64iP3gkZNeJc3j8FLzREz7UlQdjICt9IY6lIsaIkBQ4Ebo2Ym/fr+oQ/YtNr7CIJOeQ8DT3ES/dD9rwU8Lm/z2ZzVakynp7gl8MDW0pmGp9NrOx5qBWIpUCrwqBPTlZMtQYcphkEAQsARlAgnKrFZR3nkzQI8EDSzU8vmjwN4PlIBD4r1BB4AG5uURzacjL98aEM8hnL58KEDLO4n8ECydO6k0R8FPJKUVFWDjrXDeQ085TzJzqLkKO5Ccir5zzOAtCi+oTtqRkmtcV5GIKRenbJvMjAVLatrjcum2NGbER0vnjoa/SeOxFDXCfLZQZD9OfGue++K+95yRyyZOztmTh7vUmYAuI1l3ZAGXAaufHT8tgQea3H3kaHYtmN/PLtxS2wm/vaBQ0dyVdMexEsHjakTxsZSFi2861aW9rn9ZpTzU+NaYxdRxQP4rQ1cPEt5AFLAwHXU5G4HGDTO8Z3dANDG7TvjwcefI1TLtjhCTCgjMjZPuhY6xhJcXR7RL4suUYAFQNSXCQwAjlxEgixHuZ92Zmab29UNCj5yLwIPbfha4CMN2KMSGOV2BB05V+rXgkm3thOgI+AQyj+PciyCUIYK6SeCZv/ZGDh7DIX87Pin/+RXAKBJMcPy83R70wXeYvYP/aEhRjrRZ6U5AXkaEniqAVvwqTeLeDXbqOl4+i4wJccaStaT0ofczkGmzrcTn/gLX30wfrBhexyC22mCVW3HMhnhGNGKChR4GCHlCgUdd0cNSADwoZv+BHhoX4nvKoBnoxzPejieXWnH0zkOrgvg0QLXXlhUARJsxfPUFNWoaxpQYqYNaIA8b7D++Zs0uEqPYsRX1EJohmvNwQKuLBcfpE3xSeBbopzPWgZS9B3snPQN0i6nHfZeR8X5s6bFysVz4/YbbyBG8PxYPG82HtS4RJCMS7gYjyh1bHxYSFYfY/8/SAzurcRseoF9O86wh46dJn70OQLD8Q24GcvgIohtgMo4/CvmwPEsmTuLeNSL48alC1BWzyGMbAomiEJ2cPKnwR2yVxPGrMwrsJJJdxw81hXbd+6v9gOxi3jf+xG/zsnay/EQIjYtn7OYlNlKtj6tKDssA0hyQJwqmgpugzV3mwBPB6iAZ5jjse5IUEAUaOAjWc4y9+QauWv6pY8khHChHAvnAwjJ0Q2yXhoTD71njmDHMzf+5T/7aKxYMjamVNPp7Sz0p9FLnxwP+qBOGAiXbFLUqoHHIkgmFsc/dbP680q20QMeYoC2MeKpu1T6EHi3vnwxHlu3Nb787UdjC/Ff+kHljonTcMKcxuyKkdNY6SCBh4ZwpJENFXIQs9JrnAb5CfBcJcejy8SG4wV4Nu0swDO2cDwFeOgkamEdKWXXIWON4nJL4LHxqr0CmfzNeYEb/laPDxrrpfssYjPxqCcRDJ6gzn34gA0S5lDv746xE4q+AOLvhSPmQzAufXGR1TAGiWONt2vMvGYykRNnx/333h533XYjItGMnBb3G0OsFKKlch/6qw445Da8dJ2F07HYZYV27jsRz7+4Mx5+7KnYwuqm+w8eRbIl1jBRKJ2syCV2GJplDAS6bsRo9UodgMsqQOcta24kFOg9MW82Hv6T2/H9EhSKYroZDkvaw+g+v6kuyf3MhaHY8uL+eOa5zfHYU2vRBx0l3lF3jGXxRP3yHCz71W/KNVp/yCS54ADcmeuLWe9Oggy5LLYQqlhtfaeYVcAnOadK3BJ4nHX1qE5Q4FEXkyInv7LJODo5gTDOM2WiIjkfuBU5by3atfHqPnMUu6cF8bHf/S2U9K0xkfLKH2m5bLDhfrj1fkStMXKtzsaSJ4HH/EkiVbOb2zcO8IAZNLZL3bpoCg53SFLffWJ3fOkbjyAf749DLDA3yMVmxCzXH+/VfwuUyhAJtg+cjjFBBB85niEazJAFPwGemuiukONJ4DkWX3joOUStVwGeQxkaIkUtdGdFzyLwCOqSs51AkpKc2KXkpLDqd17nVkV1BXz47SU8U5uIPjaEgd+QthDo+OxkOlpmX0H720HH5xd9pi/Os1hi95mTrMvVEdddMzWWLJgTt9y4jM6wlMBm0+OaGW2Bj2dG4XSiobWVGS3Eb5c3Mt/gEAs0DqH03ZcWx9sAm137D8cpjHHOM/NYljWia9Lxm80LXJd2QUYHVLeiy0U7e4ciPWLeWPy7piGC6dt1K/qfe+66LWbPom7YmFTLXaxQrKBIWV/OaJ08M8RCAydROu+L7Vg/b3t5J/urzBqiRMbr3YiOugj5bLLygGCzM2Jw+YotQ9wYwharCXEL+Tm/V7gduRU+mCDkkZ2UcrJBbkzNmaCTPJ+zo4KSghqNI1D5LnvqiiogKtPpzmhdQJw8TTmXxMd+77diyfymdBAtwKNxK8CTOp5eQqeiq4LjGUqORy1QAR4Sz03KeMNwPJbdKcnzDGzK3xdB9b/59pPxuS9/M04RG+bCIJXOrEA/MlUvFVtMR6g42U6LBmFk+EWBh9YWdJC0OVrMUdrIs2T2ptLxCDwbj8TnH3wuHmdtLIGnc6yKa/o+epcCPBCowEPNS/Y1w+O1sl1W540HeM2Gzg3AgitoMiKUnA8cjRa+Tjd3GiEAoBlA/NY40Zm4Dh7Tglb/oEXz58QNi+djCLg0ViDyLFlIaA56gNKZ+QEnZI4QrwqBe+3o6cE4cIQlePYejhdefBlv862shnEsTrKQY5MRDFCqK77ngAbwgDwUjPKRdwOhyweMQXxSv6LYdQEA7D2PwhWxb+G8ObFy+dK449abY9mS+THrWhYt7GzGz4tnzUNVLR7No9WRhoinB2L3PsQvQOcHz6wjf8fT+rkLndEFgtc565U2XohsckNNzjqpPsixBM1URlu3dNIg98hlA3RqALJGUr/jcwzUAk+Cj6hGD1EMo17Vw6VbC2cpqgn3gJGWy7kEkmIt3NWdty6P3/0XH42Fc/HVoix+FU1ZAs8AYDyAHkorbUO9FI7HmpNWSrmlDPc3DPAIOoKJrPBxgnq9tOtwfOWbD8eXsVJuHQ8bOgZbEgpzEaeZPh1nAJYm7StQOmqp7CyHbgHGu22F4vqhPPrJT4DnapXLAM/DGw/D8axDx/MKwHMEpS3W4dSlcWcMidGkQk1wh4Qk2YIrFUk1OB5JzS1JrnEswFOupd+XojEiULPKYwCmBUIQYJph2ZGp4tTBAzF0vgv9SnvctGwJFsc3IVLdzNT2wrh2BuLNOIQCXnWm09Vh5Wrsp3Z4v2IfVXn8xDO74gfPojje9goBzY7mCrFt6CKMeNDFUjslSiUdYtxERDJ1WmX1UkOmJOdDammnop5LnRGd2SlugQjdd9EtMugtQbn9U+94W9y2ZlUsW1zWy4T5Yr21IabiXTyRvIkP5FO1giB5sqsXMNwRm/D7Wvv8tngRXdDhk4ig+M21jptCnqakhXTKanImcEVNILCAMASXYVe+BHgEnQQhj9YCH8sjnFIDeBTRqHuAx6V4YOTYgR+OwyAkGKHb6z6HCHw2pk7qjHvvvDF++7d+Oebine5gQFEq4Cn6Ohc9MI407BjfcvBX3KKC2MyJf/z1hgEe2UpE/OQsdx/qjW8TavO7T66LZ5gFaEvgIUA72n/Z0UEMshyhEniYClbJnIGcJASowPW2HZ37IOKfcDx2PQnvykWthzceAnjWxmObCvCMHcu0L0TZx6ig7iNH3gQeuqIjMKnLHZSpYAFInUFN7N6tz4Wp+pzr2jVJgVIinbmePg5ApxkdThP7RDii66dOitWLF8QtyxalWDN/9qy4dvoERC7ek/JJBuxIAQJ6l+ZzOn7/4XOIM7uwKN4T2wjf+io6nWOnLsR52OqLiHbtzL4Y30k5yEUD+lTIyLUhG7U40WFuHRHzjLLTCTVSLOFSkp+GY6Acgjud18FvMmunzZt9DbM/i2I1XNCyxSyIOL01JjD3rmQkh2CWLbpRD628bsS8ExgaHsLZdDcxwjcCjpt37I6X9rAqClO7F1kIsQnbn1QzGGMKc4AhwlAkJ4O+ybovqdap18Djl6z/evdZ+krN8aQVfLHw16TBib8WBmyLhCav7JS5Gw/+Hmbtli6aG2+/Z038ykfeH7OxWhZ4LIJ+WvBmpIttlaCsbAl3NgjwFFs7aIQ0zYU5zdz64lVso6Zc1gwdw2PzGy/sOBV/9pm/zAbYd+Q0U44sCgf6D8FuyvGoNGzqHItKoJigu/LhkCsjMnNh+ErXN9eW5yfAQ6f523A8mw7G5x96FlEL4MEYrhMlr7oFR+4CPPRsOmvyAAJPEr4EJTVJVrRRkpmdlrZKS/ZmJwAAPJJJREFUhU11nsDjOdAE6Dh9PkRbDeIHpL1KunagyG1F7zOWTnXT0gVM+S+Le+Fyls29LmaxBhgMEpwGSfg5dqH1nMADZTsrrOL4OKLVxhe2xdPrNuBDtS5OnqMD4zWuDsWtl8I4bd2GErtz/IQU8zPgGdP6Zr15HEpm8qf+Kr3JYfnk1vKTFlGWhWsJlp5zL005UHgb0fA6ovUtJZ7PW5nWvxGRcPE8gBIQVTyxg5v/sVSjmTf/4p3VqMp480snYh0LJD769PrYtvNA7MNgtk3OB8W37NxFnFEHEfOSSxTBkqMooJMKYjnSAm8cR24CpFyP3A6NWe3FNgi9VYIPgGr53XlCbugioXJ7UOjffdctKNPvip99791x7bQCPEpxwHbqvzJtpA7dQmrgIVVTsUpzF9SsPrnEq9lGDXjOUycCzxmMuNY+vyM+9enPYf9wIi64goFOoOh3nJ7MkYmRt5URSec6CbwP/cAQ03jNWKQaftFCOkIrClR94mrKeOXPVo3zZtPxPLzpQDzwMMCzcQei1tEYC/AMMuUr8DSnkRtEzghBVyscT1ayHI8kZb3bEcuOUQNX7FpFmWk3q7keJwCcvUqdDBHuBrHFGSLYFBFWmaa+Lu5cvTTuuW1VTpNfO2lsTEJv0olzKtIN3AWrtsImG38bJixBh4i3RC/oS3sv1/wydIXT46dRHl9kSslx2XjJrpxpAHdnu9wZpZLLaZMDSjHBGVM5MCnJvkr+zaQAA6enq0groFQ4PChQAOKe5cLmnq+YJuDJcTpR0RfPux7fJhxTb14ZK1iRkzUUc5rfzi0I+RU/5VFzHoPDaQF94PjpnHVbu3k7ILoj9h44zAALMCAOdkyYyPPWt1vhLFKs4au2zTAA+YxA4JH8Awy2QYlxXrULYOTsVdkVu+R+KpAFpLrPnWJW8Uz83Pt+Kt71jnvjnjuXxDRWJpGDs2mNbNmRAGi6im/SgHlS1PJYgIenc7PcbxjgOUedGG7gpZ1n4vFnN8YDX/pqHHOJg1QoE2OH6TnjLfcgZsnNyAqXEQkZNP1y+qKjWmi+x+h4ycLbCHVxR+FIBQrcbzbgeWjT/vj8w88gau2Iw0z3jsVKXJGqD8e5AjzKMwKP8rvgQyVTFzXwJDUm8EiEFXEn8Ej0dlCvyUmQpnYspNOMIZwe4tMnj4lFc2dgJzMPy+OFsQIAmjUNsICFb8fwTRsWydiZJkVzoiQzPd6CjddZrI5PIFIdik3bdsV2LIWPnWIKXINTxKm0hmYkzpjJDFgCT4anQImd4VEq7qsdYJNoNBxMNkg0YKMf+pe9EikBIGmspdJ1pXAJGAJnzMRBo+hEBtCNcBJTCMExf9b0uA0bo1tWLImF118Ts6ZPjumTxuRywJKqmOY30o4QsvVo1ew62IeNEeE3WCNuK3qg3czCnSeEyaAzbyjiFXvTR8+2YDcm1YAcj+DDXihU4JHz4AMAQ+60QwN8EnhQoHPPFVDV66jPSvABeAwp0t9zJv7h3/8F1tV6O24T1wTG+SlqiWMJPMqNWQjbltOc3AF0YOVq4Mna449d0jmFq9lGjeNB9xZEj4iHH98Rjzz2LFPpz0ZXN1k2zg5SpPqdZobCi1DbEKNRM8CT4ELuHW3k7saOhcDQ91w4fZp6p1GqGChXU8Crepb8/v8BeDoBHhWElwOPU7ASlZ0gO2RWHh0zgeVS0HFGZZj7KVxPLyxuz6FjiBmEjZg0Lu7ADuce2Pl3vG0NrglNAZOT3s9D6F/6u7sYVTFmQ5PsFHdh58fAzcAZII5//8n18cx6OIOtu1hGGbEQc/0WRPQhTPcVwYYYYjNapJ0D8VOjQGc/M1CXnDNci97sXudpdI10WpBAbqeFkBZt/qYEvTwzKOLJogBezVrpihzcc22pdMRl9sdQqu2wMwN4dHeznJDr1E/F0nDedTPi3jvWoCC/iTCiKwElpqXhgBRBxAX9x1SQZy5IVtsfV2c6dIwJl1dYpPKZtfH02vXxPD5gEybPwCqbQSEBpwYel44WfOgz6uPgOFJx6pFfCQ5+iHpocKYJNnI9FfDwdcEn+RX0QT0sbzPUc5pwGL8S73nXO2IOC0CO14YH4seQnGfheFBxOKhk3VoUAUfwqYCHS341NzmeNwzwEMc+FLf+6198Px589EkUgUdztDIeTUYWTF8WJu5UGKsAo9HTyZP3HG008mrDiTCDfDU4Hiu9FHZU/lKBCTwkXrP/PayrNZ51tVZV62rpMmEgMO8rElj7G/TVYkG/SyIQjqrLBPUFAeinNUSnaQacVyyaiMvEL8dtBHufgq5MB9I27g/SsR/csC8+99DT8cTmV+MIHM8YI+sBLv0Mw65L1pwzFhi60V6DTkNmLXCQzOnE+nK668Ap4AwyzTpk2BOVj+hxBrC36kUv52zwTEJuLJ2/AKXx4liOQnYJ1sfzrmfamkHb0RTpmTR5NXUsxVRCr+lTXeeyI24nLtP2V/YxLX0M6+DzWAmjy+mD79C7GNBpYnkjXTCMJIRmJAcpAYWMmMHMeouiAZ2urObJdW6nGM9RWlM0S+M9ymnIjaJw5l3yke4NjnqUvTh0wplh59NMWY1W4K59mQaIzZS9kx43a8bkWIJJgAroRYhhC3HFWDBvUnbm5HqoV3Xa7jRbzuyLdafP9LHM0D4WVMT256XdsQU3jP2ArnpPQ7Bm/GfNAtjVhyb4AEDGKx8SwWhfKzPNTSy/+j923VG0UerDyVZXlHYaL9004DJbDB7X3xXjW3viX/xvvxHv/jt35WJ+1C5llFclSblZ6q82benVo4D6aMUgeJjjUfyylsqueutqtlHjeFgsBXudiD/8D1+K73zvB8jkmiQZ86Ugt0ZghWWzwWXf6q0+81ifl3spA1vS0dr4nCSXu0QMkXUT+nS83uk/BnjWE+z9XxkWY2To01EGHkUCLdL6sQpuZzRbtWRy+mrduhK2WZ0FI307lD6AjuPb6/fGX2BD9RTrah05fBx7lLHF1AHWoR3jzRYGAzmgDBvRAB4qg16j7oPkGAQAOjqgEZX6NT5D5zGA2KFis3A+/SwkOD7uueXmuBtHzltvuTFmzGiJCehPrUrGDtbu6sMzXgfg0oBcws6LODfMSu3E+O6ptZuwx3kJsWoPU+lM37aMQ/c3hWJqj8NXFLMASoNw9fHdHJ5hLYrBY8mvNKNuRnG5dI366DfJSJIUd8wULV3ueqTVRQWe8V9m2ocRLTUyHOi9QLmxxucR66KDk15mhnovGH71PLNfnXAOM2LFsoUon5fFbTevRiE9NiZiHuAgJQfkzL1HsByjPL7OddVRp0+dwuL5dHzjocfRZ72aLh6nWXrnLNb/2iIRpAouDUNEAGiQQaIH3zRVWTkp432dsS2X4GO5AQiX9DHQl+4rnay+od/hADZKGg1OGdMf864ZG//8n/zjeOe9y5J3AmcAJ/JFW8v3WtZWMmqEz4sXaG/y2oHFu8BDKXii7Fy2ttLimcMVb6MGPIiycfDkUPzxn3w+vveDtQk6fUxRpHIKmVU5tjS22XbzKK/jVv4OH71WyCgf8+dobHzWas39TQQ831y7O/78Wz+I514+EMePngRsmElBLBpkZQX1JS0QtmCU8VoovR1PI7vUtSnGMLILLhKzoCHw9GKAdhHCHgePPuu6a+K2W1bHnSuXxuoF18d8OICpUwAHCJmu4IRZ7qmqkNvhGrfiCMG1du47EA9997GMd3wWMasLS/dzGNzpPNyPkekANDNAKIacygUcFQczBU5LH5Dr4ZKpAsClOxTg8VpSTYKQzwzTmndsaQGoDIDD4DMSeNSbaMwql+OMVysdUU7c6AmDXOvHzacP8UuL6k58v6bhxHrN1IkJQnrA33PnGmaMmgPJM623FWUGUS10ItekcyhIpKHsuV70Wie649X9J7MuDMG6YfNmQKgrve7HT52BehQHVGJV9QI8wCEIwcorAhD10gIoae+mW8iF8yj2MV1wgsZ4PbofjRuPywPmAWf3vhxz5k6Od965PD7yd9+DL9zcpHcbKoGH6lUZbSjhVsqp6Kork9J3C5xmqa9Ss3V9WpO6o17NNmrA8zJm5C/tPR9/+pkvsnrEZoYJrZSNN2xjq6SSgKrMJuFU2XZIqLZy5t8KdLx+deWrUrrCA596MwLPt5/bH5/99lPx7Iv749iRY4y26Emg2D5G1FxQEV2bBFv1XUZiux6VQUeDWjlmb+EnYKW3PWJWK3LVdDrYokXEyFm1PFazqsPqBdfG9ZM7YmIzhMrom9ENBQuUps10NJv8HDOdx04BOPsPxSu79+dM1bqNWB0fYQYMg9KiTEUER5xIkYLxN0NMKIqbgGiThCGnY7v6hz3BpZwXbkcQKvf9XTav1FdtaUpZAU+CUJaa+3yj1IDpip727uzh3IKDUSHOnnVE/Wjdq92S9SQkwGAQYH4sSvXr8PrW8XQuU/GIX7MnpgOsoZVU/BajRfWZfAeuE6aO2a/A7aMrnt/6QmzaupV45DuJ/XMCNxBARO4mZ4PxtZNLhfvpJ3hev7o5dhXsrdR1n1bi5AnGjHPew3BzLMhnJIBze1+MW9Ysjo988B1x/50ryeN0dEEUGeCx68nRea5uNcMLw/EOwqplQDoSrKC8qvWEaOpB4LE+r3wbNeB57iDT6Ft2xgMEcX+eqcPWsayNJceTU7UFfMxmkkGDMCh5XizHMiolWZXreW/49HU/47NWX+5vIo7n4U1H4guPsBS0LhMHD8WYNKajlBCYdi9SUS8GeD3YvPTr0oCOQ+XiGHpQGyO8nE4Tos0F9F0njx/O37oRvPtd74z77ntrvPXu69OQTvu/sfC2ceFQnD17ngBq05g0UNbCDota5Q4e3EM5lfxVHIU1rNu9/whTycSAxs1B36pcwVNFr62grgVATNcL9FZNsFvNHNuYZND5dIDZoNx4XBBIIPCY9FT/5p7JNTYpruw+oUjVEPkbqZTr+YrAS8dLHyjykw60gGrqqOAGmuEKFEkGAac+HE4HL4AcdPaxKJ4HEMG6u47HnWtWxjvuvSN+/r3vinmz2jL2z8BF0ug1XIqzZnyPmD5DHAUfd+2Yjp7sx/kUV5en1zI58wPiC7FqLJzOhKkz0fl0EqwffRUckPHJe89igqIlur5xrHk/fvxYJmc64vzZrug6doj+Rzvzdu/xPfG+n74rfufXfzEWXDMuJsOxwqylbkeg4n/SxQAyYMaO9iKbDsTq1KgN6qtUaF2twjTzlPnclf4ZNeD53o6L8ciTm+LrjzyZgZjGTJiWwFOWhjWTZtesF0Ip52a7KhSV3yAdzv+HbHzaas79TQQ833nuEBzPs/HU1j1x9MjRGIesbjWrVBVkVLj2wU47A+SYNha3bF1V9ATvYbTsYxq5CXFrKnOu8+YQQuLGlXA4SzmfjZvDNMQq/JgY5ScS2qGjCe1e7xGmNBFPQn8p7LXQ05wmDtO+I+fQ9z0TTz6HG8GuI3GmW1scbLUIITHACH4BLsxZoFxVglUvDGcrk9OvmENnLjodeomymyIXFr8lWH9CSANwCuVIMYWWCvDURDR8zLcSeLxW9iol3izPqaTWxqgsMMD0NgOn9aYzs/l0JkxlLtiT3+8DTAxmpv+XPk9aAU9oH4prcE9YOm9m3HLDwrh15RLWsZqJB/x4lL1ySnCIxrlBdKJIiQIaXePkHocQjXfuI5DZK6/gBf8SCxHuBZDOE57DlUGw/k+9acX9gAp9+JloS6U4mKugUJK0QM5vqGW9EH/v/ffGb//ah2JyKw6gAhVldVZK053cqGIHpapKskPIuML38E/Yqf/Vj2BImdBVXr+Sv6MGPF/bdDK+8uAT8fhanfdOEvpiOsCD/Y6a+BTO7d4276WKwDrTypQ1YdTXyrEQ06XXXqdfJG2ucn+zAA9y/zfXHozPfPPpeGbbfnQ8x3BNQEnIqG00AMUGxRRN453JcPAdqwMSYtUFpo0H6EjO6ExCR7Bs8fx4yx23xtsJzHXjymk5xumfZBx1gWd8WzeGdIz4g4APDThAIKZ+p8EJOH/0VA8B1I/HX3/je/H0etauInpfXxMA6IjNTFUfkw0yMEYsNAJlW6d2Xk4AD2JycZ5pbKMTqo6mdzltzvNOK9fL60gBdb/xXOphmB5xbeRdz+uhrr5ejjXwVClQTwCP/l1wWsYYkjsaUImLOJMb4ONqHC61JOdTAn2VWS9UPsT2acYc5CgLDZ7GZ62XSYB5cTfBx+68ZRWhKOZmQDJnxpxls1vkLtiSfafd5TBQxcWJrvPx3MaNsRb7ny1wikdPYVeE7qubOnbBwY7OyRxRBKOsT00X+i7/tbPyYScm1edoyxZkqoVzpsaH3/fW+PUPvSVtqUT6dsCnDXqXFHhlGHT4fm5iPHkrHI8Xa+Cpa0vgoT2uYhs14PnCM4fiL77yYGx6cV8cJxBTOxyPY0BajaasTikh+AI8VpUlLlsWzZEoaaEQRH0vCWr4x+t7xoffjMDz7XVH4rPfYgljgOfYkcO5xIug48zFOFjwdua65ah7UEhexIFTP54BpmI1lltAAK5Vy5fkipwrly2OOSiSO/EPGMPwqKmHu1PlSiQtg7gCxDkIGEM7YYmZvUF0EF0XAA+Upxf72tKS/ZW9RxEfNiFy7UTHsw9DU0QVOJ7WznGAlNPHiFLqiNSbqD+RZbFT8iH3FvQYg3BHQxifFo5HMqjppD7W1/gtQTXue+5WP1cfh6+U++U1lewCD70WnANE1YWBDikNQr8CeNn4CEmV1MgXec8Qp3BrE4hsZsiNVoBHI8QBjBHnUY+G33gbLhgeF8wBaEnIelQp76Sl5hr2AQVKHWa78PM6dqKLqfedsXb95ngC15HTZ3oRUUmboP7NcEwZfMwXTYx607aHIYbnTsQUdHI/+zNvi/e+9aZ4x83XZ2gMu52hTTEwKAX2Y9YX38+Nc7mdBB6UP/4bhp0CPMouY65yXmvUgOfTj+2N//uBr8arTBN2oVFsGYvxF5lL4ElopUYTeDRuoqGyOI2yUuECj81YmrLUhveTisqDr/dfkra9cvfbsMH/n59Op7M8RMzlBx7cEE9u3pOhTzsYBYsIYcgDyAaxIANs6bUMd+FSQtMnT4jF81k6hunhVXSMm1EgX38tugOM45zJdj5esGqlntpUtKJ8bWI9JlzP6ZewQBI/oNPHDExPn+HcACHWTLMDH2fiYQsD0hZWF9lC4C7B5xhLVhsipY+elsnbzHSctO2Cm8gVTvlgsfWCNhQT1Wnk6FTopHQDiUJqqmnn8nveH6aqPE+SKnTlm2Urx8I9cJ4/SUvORBBCxMpLgo/AJAC5Szwp23Fd8EFEdOp9DHttgNiD79dY2KGZxJE2/MaKpax6unghyueZGX7VqXZnyAUfjQ8T5Dj3iGqLJYpOxSvU2VY4n1d3Hoo9APkR/L90uFbhLPi0ODggMl9gxu3kKQwGadPFfOc3f+3DcffqebF4GlDTRwRQEKWTyYZmmQG+lSjnEXytN38KPIMog4aBpwCQtVuARx3SlW+jBjx/8tAr8YlPfymOdvWnk58Wy87253rTEKsZFo1l7wvwWJCySUup8PsJ8NDYdMMfirmMUlGqZNT/79rxADzf3dQVX/zu5niUdbUOHdibSscWZCrXEHOWygiA3aeIc4wewGBUKo61xP35n3tPhhy9dvqY9EWSFu3scjuGIM02RORwSrlN1scH0AXxEHsrbD/xXDjVUtp4LhKwugvDlCpKHz81RMjQE/H1b383NmC5q/hw6uyFOIcvVhPTw01wQJ34MKmzsBf2wAoM8b10IFaHAQCok6pBxqN0Y85qe5OSS3PqftlWEVwBG97OgdCLJaV8mnI0I2KlrxfT4A6WgqfOsE4159OKXYBPLr+Tn6Juqd+0LwJ8BrH1kXNrQm81GZuwSdg7XTjHIgeu5Mr1GQDQsrmz4v3vfFvceeOSmI2Vt0b6pm08K41oW6jzAcRfjTypkAzFqkT89LqD8fgT6+KJH6zLiIsaH5K5aOfmNPRvxwGdI7t2xHhsjN6CiPy7hDm9QU90Um8DeFCPY7uDYaYsjh2PouSHbcuqytS7DQimWm5nK1rn9ldhufzrJMWr2UYNeP7jt16Mf/+pB6KrD4Mn3f7RvEt8udl4+Z9arIAH5jXL6/0CPDXxSEhuvNDY88Lr/4dP+LXc30Qcz3fWnYjPfnM9Sxjj73SUdbUwdlNi1x6n5yJ2Ir3YfHA+Z+61seKGBXHn7Tex6sBigkPNyvAPrsipA6GGdB41xW+tbGZylEf56rpXmhK2dRJyg86qHkTyLN7gECjiSVoLq8ymbiVmrXe7sN3Zc+BIuGTMCy/vYt/D+QFCihKNgMBZLgSQU8iM4nyVFO0RcMiCZGVfNDwrVdIu4FO1ZA5y9qB655StGB3mmT+4m7xNdV5+54OwHq0An6CXK9WKpCTlTBsFYueHnE7StASE2AMwGcNGl40ewCXT51lXMc1FBKi7XmYPMyAZADoGfdb0zqZYwBrCy6+fTt0viKXs8wlAz7iRiuvMi/PcSZ18kmwYFfHMmYE4epT4z3COr+7aB/eDmcIuVsA4chBuiZk2uHZjRt91z53x9ne8NT7wnrtjNiutqm/qJLIRmil2PpLAQ3kENruam1Vo8fgN44rIJfDAVeW/Gnh8jLhEcLRXs40a8Hz8q1vjD//zZ6O3ZQLcGzI5bLfR97OxKrZUxIRPheNxsvVy4JGILLm7m7VR73nh9f9D8vUXJZA3i6j1rWdOxGe+QSykFw4CPKyrhbJRq+NeljhpYyZqPEHUZxAPZ/XKxQS8Wp7Lx8whTAJjoHTHdKsRfDFZg/AFniaApqXqgKURIMXzrIE1yGzKhCm50oN6Cvpevt+D1lhRrJVvtSIuOUMk8XpXvyTn0o6yANYLL+1Oh9AtL+7Gzuc4wbO6ASAG4SaM31wlASW0O3peOAWiBRKw3GDshT8p9NIAHUUH0kdlyqGmIUtTbX7eXAgYSYcCT7UnEOUDFF5OjtI7RqIXy7AZ5l1AayRHDvihbY+LTwqwGvNpT9ONyXYz5y3uVEgfeqlBQCfdhHgu/Q95p7XvTHT0nIjZCAaujrpmzYq46ablMXPm1JgyZVxGQBRyLZU5M4TVBUC7w8rgwkmMdfdifLiDtb/Wb9iMCcuWeHX3q7xAONcZU+IDP//+uI+AZiuWTGM2i7YZMkyJIU5pJNnPBHQrltN692NUnd/TctnldwrwFNCpOZ43FPD8m/+2Kf7wk38eQ50slwunM4ACUXN3R4paJrYYcjxlNc0aeOR0LKyEVJU8i27xrRGPo7SRtF1CgnJ2pwE8jSWM38tKogt/yFdr/S58tXCZeHbH8QyBIMBmVH51AXTwJsztDVHgdGnG32Ukl4D9TomRy9B/VcvbXLmoNQTBP/Lc8fhLVpl4evPu2L9vF23BCqLocpzGXY2H9R2IVW/FzmTO7GkxjRU5ZeGx90v7DrmdEpnO7k0+NSxj4EgNB+XjIk1CxaUiopNpccSSqp97y+bytsCD4Qrn8kXULwCkM3Dtk6TBYDc0cvJsHwZzZzE63RLrNr0cz2/fxVQ8iw+yYFYrMZyajdMtWQA4GRgdMJRWhtea5+MJNNR9IkPmgmscyUfZSqYS/MxcBTS1qFXyXR7u5556SWfatClqlcvJQpVZwXRCpRwWquHsyo9cS52jDrN50x6cD5kvCmAhzGd+BprvPxOdg6zg2cfs08D5uIag9/OYfr8D7vOm1cvhROcWz3dSQb1lStWEQEpxTBBwXTAirPCuPcdj85bn4xvf/gai2vm4dua0+J8+/AvxlntuzQUM5Xfh4WAHqEPyNYB41uosoQaK5od0Bo2RxQDhZT8mNiluacljvXnmX/Mh8HS8UUStf/3FDfFHf/q5GGgnxCli1iBWUU1pdVkBD7WUsT4oSK3jsYQWJXcahe5VGoczij5i53SUtnrUK5HoMKrDV2sCcvlqfLVcSfSD9y1jQb+0v6Y89oCI9bvO4iT6AAv6HUfBR1Mk8NC8NhzKxWZj0gCwQ8a+UWTABsWVPEu/oGyuLHC1wCOoMdWhjsfQoquWTIrf+51fxkZkxiW+WmopH37q5fjcVx+NdfgBHT9+JCYCpNdfz0qcBFdftmxR3MC+fNlMrpeYLOoRyG7adWSQLopkt6F3QOVY59IZbZ3kXqU8N5sIKtUVRgO4LJvX3POPwEMdaAXMllwP98qSRXo9WydYK3PvAtPHO1iz/KVX9xI0fQ/HfbF7z4E43YVdEVWlKNfKKhNNzMao0kjKsBNTJ65eyternQ/U+cs8VL8FE8Gm5rwBTVUYyR+RDwGkKjHASFdDT+OqpxoLavdkks5mKSqlI2opZIpRgp30m46nnKfTaRlJS57kcgSjgp4kxId5fgiwyYX24OSaCZrWAWs5nrgic7GbWoLl80pmFhei7J8zyxAWDA4AgpiA3WcaTav0V9nvdgrd2YEDe2LTpvVwtRdjIlbLtzK4zCeWtO2mdNFM/tsoi/90DC5mCRUgUqEDsqxsgk8uI0TaDcUylVX/KzWNeJm5yVeu6M+oiVr/+i83xCf/ny9GTzO+JYhZetPqZ+LIkSxr8q524AI8hXysllIUCVHgcXRIkUwYzl0yG61NInCGjR0FaRPKvN4RwPO//NJ740P3r4TjYSVIe5ZyPk+v330+/neB5+UTTBvTQkwj5wJoEFczEeya4S5a6bTanmhZagcTeJymdP/bAE+Go4TfHhB46AArdRL9nY+MAB680xkadTf4zveeik9//suxlRUw9cFZvnx5vPvd74qfefdPFbBhoKOSKVPpbjA12QpMftE+5bxwA4oiPGg15TFP/FG2bLp8or6S6VQvcK1+vnROU05xmo6u6NCN1rkFMIdJyycNoH785ACK02fiB08+Fdu2vcx08ilEOowOJ87E4Gh6nAfl5EoG7dC2h+CTb5tPaCURRaChPTm32UrIU3sXwAHK5rpfNETqOxgYSlRGeToAhBk/R/lBOKtLS2YR6/LUxbUCvFqOpXxZKVwtNVm4sKpWzUw+S8quzEGokCYGoYlYE6fHPyYN3Sj+x8GCCkBGP7znrtsJjD81pk+0s5cianncyQ+ByJSLxz0DHhxqC3SsMWgzD7lyC3wj3Bh3mIJvhxHQzcLN8MMuFZ7hQhz0UZYb30jF9hiU4tZrqc+61NSp2edPliKBNJO6oj+jBjz/5kub4o//7IHoSx0PnU0rU3U8FiC5HWoLwpDbEYET+WkI8djGqJ1Jky3ll4uXMdyy8+yobRIS34CNz6DZCTynkuO5kSWMc+30+2+MVsKyZrS6BJ5mgOdC/P4nP493+kmM3ci/wEOgM59pQmnbnAvVydUwQwJha/3qSDrozAeP5xLFV8nxXDnwtMbTxHz52re+k1zF1GnTYtVKfHQWLYrZs2en8lO/qjbKIoE50jom2B5Gf5So+JF/f+hYX/auHdyBgY6ax6pDeYuL1V7atvwu5zn+8qqSmoN/fRQzPFesOHbsVOzffyC2b38xXnzxpdiEs+v+rqY40YPFrta7KrOlHWnL2S5cK6SSnM6mDWFtCnea09voV9TVWEg+2EaHaUUEbmFvlmNDDB5gkHSGvJ96GaLjtmrW60zdj9jIJltdU+XolQSgEeCSz/C76qrlncZ96Q6qByAMuUoG+W8kANg/yqBBwjXTEL9Y8+uW1TewhvwS/MBmYoAIZ8TAIXwIPAV8MHl2nS7AzJgQppntI8cKGfb24xc2qJf/pFSE2/5ybu7tipRyjYI59VRcJxhArdvMq9muy+ixOk/dBD+vcBs14Pm3/21zfPz/+kz0txH/FlGr3xkKbAzcikKvUFotZgk5FuJS4AGsqLpL1hEaVeAxB6XjKGo1EXemp+tUTFTUWqCoBcdz3wpELVhvKz+BJ+K5PRdYwviBCni4XgGPLMSlwFM4ngI8lJcGdr3r0eV4WuOll1+JtRufj8nTpsesWbNi0cKFqWBWojhDfFGVoK6d1EnExw6UO1cMPNma9R/bz+5O/dlxcquIMonT83ofBiA9q53hcpPeFfOy03PROnZaGW6fPAYzNscAnhfxAWQFByIT7jh0hphPrbk8crcGL+mMisMrq0oMwCk7ggs+dqJMJJGNa3Tm1DPyTQG3TQ99BgQ5bMvukjiFCzJTTmWTc3VKP3YrFFweKeUuxfI6v7OzluvD9cDTXC9ABNBjeyP99Rn2l1uWW/HJ1TwvniWGddoERVqQ34RT7m2EXl2I68XsayYQU4f132FMxvJ8fiWBpyzMV6/IS6GpR/g3JgF0Z2lDAlEZXoCHWbsKeNIVxPwCfClKyiA4iCb4WEK/cFlZ3ijA8/GvbIn/85P/FR2Pzm9EEtSGB91GjjQWyt0CQaxlHaBSoGwkClU4ngp4aoJObqQmap9/nTcopZCJFU3aNfAgI9c6ng/dT/wSdTzer4TqGnie3nECcYEbjJ6NGbw+DPLgeFpVqmJU527YUcUD5fw0kkxFKSPUFa+dbpwcesMViVqtLKrYzZIrZ+EExsDVjMkF9GAMclOsciBoxU7Eju/WTcgMRSs5oHKpdCGeLA80jtXPPHjPtmFvAI83rKgfvQs8yeXwSP19BmBsgOBx6QhyvB1otx2INaM5R3S5Y13dKMpfjKefJ0IhRnT7iHp4CgPE9nGM4Matkas00FyK6aQP2zTIml7NlH08AYLkIhzJuUE7+mG4HDLRD9gZHdF2ydU+sdVppm20dWrWp+pKNouaWzkpNVaBT3U9r+Vt/9Q7Qy5Ioyf40EWm8rxMI00cPy5XWpHruQD49GJZrt5N584Z0ybC/SxjtVWiA7Ae2eyZnTEFXY/qmUEato2Qra3k3z4m6ChqtQHOMgAuzueyRpkNPuWCiQNwOJoCpHNoEjg35IZEfTZjU5cX6jzXb3MUJa9iGzWO59/9NcDzif8Sfa2saICIleCj+aOFoGGz50LcQozKSpumBh1LVwMPD1IcKq7iRC4l6qso6ZU8CkX4NaWGJEiApxuP7EmEODAQ2G9+2FmtRXA8PENdp8af55/bcxGO53OpXNaylPiZFfBQKqZ8a+DRmleCFngUIbIe6Bw0O4mNHvDIYfXYsaT4qmwCTc7ESpNe9xZHW8FRThWq8VgKOVUPWDF5Wv0ur5W/vpzilgWrz+sHRhLqpedyuKaWu695m00yEYDc5Myyvjn6GWoqdh46F6/sh+tB6bzt5d2xdfurcfj4GVwyaABmvlqw/2ljNw50clAYW5pI0WmUL2ZoCzsY9Nhnwn5Q9gsEzIiYuGcYj0dOo1XDyL/FljSdZZLCL99KYQv1c57ZogUARLk9gWgMYmMbR73WMpCXHvAojLVhUoxaMGdm2lt5XEzkQ5esceWOKZMQIa23lFkFnaLSkLtqgQ5b2evNXNRcj8yAv9OHz5HAH7KB1k89MuRF88teN5jc0FVsowY8f/w3m+PfwvFcTFN5vJ0hgh6mS4ewemoYX1GWGnhKrVvKMjrI9g7b8dgiFP4SNv4qSnmFj6Zm3/p1t8vRuBdr4ElRi1mt+xfA8XDfOmcAsA0K8BiB8DjKZV8WeFTIURZ1PBjoqVx2ZHXKsgAPJADoFB3W6AKPBON0qGuMO7KpNFS0GsPaLNZ49jdGeonPTd+tHPCsdnf/WF6P+bu65qGxeWPkzk8Tb2z+KPvIAaZKOOlaMUs6Tnof8a6cjqO4tO2O1C5UJwCdpS02b9sbjz7+DBEMnyd86n7ELESnjkm4DEzmPYQXbcgYJboN+4G9kRMcOn3mckr2ThJVR9TYMhP89hKzcMaxMTj9j9teC1Z+3PMj7xXgUcTlDJowtGvSFw+p56EnABQog8mrMXz6UTob+dDYzzrndmJGPhYRedlinXhvibuIAX0D9jpODggHYkaCEOf9zIQa6qSDCxZv5G771cHf/L6W4Q1OxkQEsdxGvlWd++xVbKMGPP/p6y8wnf6ZXK7YJYrbIAJDNg4yI5SBt+V6KEzCTB7Ndd18HgEphzoBIAla4KHgl7DxXHodN4HH1Rc9tojmEJwxaDRzXwXwfPTDTqfPjRaZNm7/MPAcrYAHdtY1XXjIhdqaAB5tldJ/CVbX6XR0hxCZrK7iJPdGk+OB2+mGxdKQzSqVhmrSyerjQoKO7cCNNjql5fO5spWTbJ3GNe+M/FGfX37ksezUftHNVIa/nhRAs9ZvlWeypfNUEDIf3jcZxTKloX5EiAFG8QEKdOZcXxw+cS527jmKA+U+gqe/gPHcEXyauvDOdiVRdqIsSlPZuRUZKKAzi/00hFMXgo/mEXqaZ/bgOlytInVE9j8A4L+3Zf1c8pC5vnT74WfKfc0QFNGlEcvoaJAxf+RA7PCKheRTzscVT9XbCELOehl6dTzz65PhzKdPmRBLAaAVyxbHjYhgc2dPTtus/IrF5CR3znU/saYV2/Wst839Tjq++t0EYN/0hi+YMfe6/UYcq9kxbl7RNmrA82cPvhif+uxfxd5jXawKSdQQvNN7mdnqVzGLuJFiBlkkA+wWZVjUss/zQO6FSC0sle8+ysDTAmvQhCjUyu5Id/7s6ZiMjidjLgs8988uHA/ZawDPbkStDPYu8JBHuJriJUypBlwjjOl0uLUh2VuICwiAebOQdHBAaLSBx87WDbvcZtwYqY5N7tlpV0XKxIUKZWwHCa7efbbuLHm0KS7ZRl4YeX7JQ/ygvNmu+YW8WdpWWrfrF8tfb5hKTglXyansNN+CkExZH/oOuhxcHLM3XBwkvEb/0Jhcv3zfobPx+JObY9PmnYDQ3jiLTugierdBdRrQnSubuIxMBt0CdHrgZPoAFX2r0vvdqePMJ3li9tIZMHtkS2V/lBl/rT8j6q/cLpmv66503CrpLKHndX0B/OhdWvBnHOAoV5q6UAtL+bInVODjiIWUnOKXa1+5KqgcUIehNZQI4NKNmzT7Oma/bmINM1c/XTIfdQEhOoj/LIeUbi8kncBDuopVAo/GkYUWuCmBZP7IYyKSP82vuxV02W6fvopt1IDngcd2xue+/K3YQuCi42cuEnpxBsuSYDKOrD0MPGRe4LEY2QaceSn/5FXv5E2ahnP28uBVFPHKH01OB+BR1GoBeOR4zqHQm0xDJseDAeEHBJ6K41FyMnvPMZ1eVpk4gkMsI4WGghC3RFOAhxUYIAoVnq4WkGNODqCw1XxntIHHTJbPFZCRfhJ4ELnkbuzUVqtNkEHBKmViTq0KQnnHeqygwgcv2X7owiV3yw/bsZECl4ZTTWM7fusImc+QXB9yl4vzufyMLgjm0zWyqFI26hIv+MFBvOkBDUNuXMB+qnPcDBiG1gSgnXsG8N7eHY/hQPk8s2CGk1Bv2N6BspZVa1210+l3gee80+uM9PZwRbDc1b5TUYo6Gj02Z0csJXntv6UOslScDpduxHXrL39aj+V6XSMCjpb9+qcNqiisOCwDt9sO2RZyQeTXKJGGNnXliPF4oI/B090VJVyOx/C0vXikG19Z+5/ly5bEnXfeHrfftgZOaFxMwCcMD5ngkFPwYlu/dcxvdUkNEwpZcsqc9k9cT0QS/HLj4cbRNmNXmX8V26gBz1fxmv3aw0/EE8Rb3kcgsE6Ax5ktVw5NkUNRK6msFGLk39Im5Uo+4wU4HXmi0QUeIIHsGYPWXYIrwDMhVi64JkWtD9x/fUPHU4P8+j0YEH7iM7hMHIlzLCYmt5McDw1mkHCiQCWLPKDuJ4EHexG1y4BOinYaV4yiqCU9GP9Yq17DSkhkgo9L+Rq83E0Oo67xsoomzVSzR9wv93ipPi+n+bv88UKdwojLjVO62ojbFYRVrzKskKFax5QsPsQ8CKE7JS7Hk9d4Oi2O0e60omhzH6CNelmLvKefUaC1CgNKnznLCrbESceUgCn4HXvjpR27CSWxOy2gc+E8QCzFKsSuAcrZy/e0uM6KyXqCPu1w5CGVvbbXJVsFHVmmGlDKA5eACuW65Dc0LJdPwpdcd+kaTU5APXa/m5mhkcqz1q0cidxJvp8iEQMHj2r6MaC9T85cmT4VQL1ohGi8palTJseqVSti5Yrl2P7Mj/kzO2IWrjGECUqxS/DRkFKQdSkcwUexLq3MSUsl96XAYzmrxhR0PIe2r2YbNeD53gsn41FWEP0G4PPyrgNEIAR4sOfRQjXlWOUUM50VXBWiFCGvDTdWKY4xX//HAA/ys+wn7Z3Aw0oKk+BTC/C8F45nTgN4VBVY5+t3n4uPCTwvH46zKJcL8NAQEHQBHqP40bF0pWBUg9mlkakIviERZTTiUQMe8sB3eh0tqW9N/nXUrDdrXpsVbXlsDu9r22FHl+TLVs6GWymLnfmvnxg+jnxq+GoBnXJvON1yXyDUmz1X++Sr5sG4yhJ8tjmPCTje75cTwDBu3BjaqU1iMjXtUlwcsjm5n24CjrWibCWqRrpYHDs+BNdzIr7/xFPx6PefQPQneBb1r3V8K57hLeMALL7XS4e/qBY7OztldA6fBhaIsxL5VZU8z37kH/Jal7TUYgGZYcBRb1PXaTliLZQKdGmnxYBoOTDTbiwtM4SjqXZH5qeFKf4OQNP76n4MtWpYEggqQUmRSbDx2E1gtzOnT0b38WMx6bqZsXTpknj73Wvi1hW4YCy6Jq6Z2BIwTAk+FtswHR0ATzvv8j/TFMAyhKrEIUKN3LKQ/mHHdu1qtlEDnmd2notnN22PL37tOwR72oWOZzryq+shQUyAjqsJFOVxlXEzX1Gk7Ohwg3mZfz7GJgCN1iYxJOgwmpBD6pmlVgiWncCz8Nr4jV96X/zc/UW5LL8GV551vn732fhXn/jzAjwun5ozWs5s8RTssMG/bccBrZnxri7AQ0tLoBAPC4iQDsQzKnY85CFBBA6iqkNBRQ6jKBHzdgJN4SpYj8l4C+ZSRetlW5XEZVfrn3UbvsZT1aUfbj2Bxs5dOB47uefDz1FHAFH9jPeacTZtQcdDj6RSET0IrzqAGE+0Obi6sQhiqmDpJ+zOlOnPdO7CUBw6MoAR4n7W7trCTBhW0K+8mnGeBwl70UGA9CYMD3GGwfQgm4b05D5IxMzw3fKDQ170yJbl4s9whrk48odtnAnwaAGcPJZEuWcilB0Q1OjR9ebqlUwl+oauRzC08wOOagXzs7xnPynciWKRGYdDNG3PqYn8Fg/Xouq49kHiPs+Ot9++PNasmJ8xtIkLn1l2/kMOynFJRthYQYbEdR2xpI2qHOY4t8yEf9jfKMCzjUZ+Aee+//IXX8LLeHuGPu0nc3ohGwJV1nLY+7zKfNUI+YtCWmlZI/7lordrAOL0dd8kkGZkY0N+YkSa7XwW4JkMq7qaNb//8S/8TLz/7fNZoZPGIT/pI0qm1u8+E3/wSUWtw4havK70rMyOEqiZEcPOoRK3n05h5yjAU2YU1L4Y8rxJ0BF8KOXQICPwEMM1+5BBwNyb2a2PJKhiQNikASHBtoqv1ggnUQDPsBUu6EePLXvWnzVL+tIl6Shq+TtXJWWISy6Hm4XzeG3g4YXGZmqXbl754at+5Ye34avZn6rXFLdK3jjyz00OKJXgskaknxorbKyIIaoyCBHFTmvYCcJmuOomjxm/OVUlVIGSC6qStJ3CjhDu53Bs3Lw11m/aHHsPHI4juXYVog7Kf40PB9BXDAo67Aqg/dnprR+7OJt/rMTc6vKWY8Pql/vlEdssX/AlUitAkeBgQlV7ChGaSJfBOB/lnmmW3b8lGd+p70sHpW5Mpzitam2MXkoRiXJrGmEcIEVWA/pf7DoWC2ZNiDXLCL2xcgFLE63IcCjj9Gk2WWmbI6+RJGWgPwhEWfV1fs1MY+NHNuAbhOM5SAMfPN4XH//Ep+L7T2+IMSqXETFyFURkWaRT6tUiUqrcs2qzUm0UOYE80vRZz9zOZruk0I3Svy4nfnMIS+OBi2cIeK4pfXt0dXURq3Yao8S8+Ac/+474mbsXEvSojAy68Eg3G3afjP/jTx6Ideh4zsLx9OCA55Q5Q1c2piClyXkfwDOIjUm4ooC6HxRKmuI3OXI3OB4aexDAGSIA1iAgVYOOR4ipokPEJZSgmr83vNMnx+/jJLrGlUShEkNXtDncS31JGHbjkZXn75HbyHsjr/+Y85GvZGJeGHnxx7zb+HqViwYny++8VF0fmWImLW14j4qX9adDwUZSlyrz5RjKcEUQQyy26YQ82kyHdmENGVA3defHiV+j3mftcxtyBdOXdx+IEwb/AbzGjJ+EFfTkBCHNsi5ajyn6wQf7WQE9lb9VWQWIrGPASfHMD+WDtiXvSiRuhZXPTpzRDyhHgoX6Gs4zvGvp4bxj2ux5zJer3+XciZByVuppGMj8XfasiSprXhPQW5hlbSUER/tAV1w3tTPuvO3W+LVf/UeERCFqMs9qNK3n+sTxiOSkZO8sZXUG1HSrsni93t5IwMOSQHGaQvwRwcAe/P5TGaemH1FjiIbtc3ZLPUcCj9RQmMfsCgXWYacFHvbsbHmWRNVoh7rQr+MxV1mAhW8BCNqYujIrXSdPxrgp02LN8gXxj37+p+M99y6JdghXllSPYNt4AyEc/uA//nmsfelQcjw6iCKo0+chVKi8H17fQFCD7ZMYenFqZHnewR5WY2gGdAAU7Io5Aj4cIUXoFNCR2xmSO6q4HYEnG50PQiAjgWfkEsZrVrwW8PCqG++N3CQjt/pYfl32ULl46V8eufSd+rbvvvbNS1Ot3x5xzAdG/C4p5YfKuyPuSQT+VHb0mOCKiEQ9X0BMVJ/VDFB04CJhhzZLck2m4+4lxa+zrB9z8NBR7H8Os4DeDqIf7iYcx36WDsanicGxY/wUnFDHEmGBMK4JOPAl2qsAcAZ9F1syMVOVrZIjEpT4QD7nx3ioiEBmtOTFR/Oc3wlMCU4AlF1Bh87ceDmJ3YdNqP498rw8Wf8t4OOv6luNI5cSNOCQmG5vZe30dtdPR0d2PdPud91+G4aHt8WaGxdkFuT2DbuRA6ZZJn/2QNdXe23gMf03CMdzljyyEm386ae/Hl9/+LF4mcYdxA0/7XkSeLBnqYCnWO/SaDky8CINp0CW4APwFDrTXoNnrPdR2gSedgBnTDsVPUhIAoK/nDt+ItonT4mbb5gfv/5L74/3v3VJSj1G4xsn+pDdDa8cid//+KdYIvgwLD7KOdaJasVSG76D0KLdGHlhuaxB4ZipKDKno9gEhFhpgAAslLMAz2txPEM1x1NzPYKwH6QOrh54ynuXVx1XG9swR/RjKplb9TvlePmzl//O7NbZ5luXvt34na/VKVbPcLg0tfo6V7WD0gXHMbnqm6dZBe/kmTNxCGVqx7hxBMC6lnjPnSia6TZZdZRQ8YHdKXokkOQ+FMm2bjse69ZvjceeXBs74X6OMv3e0om7D4reAZZ3PotY26fVPeKXCt52VsPIoVGCJC0zkb+xjjZwWLOLJoow0jR7AmAFgg3g4bciUUEwRuo0mTejbqSbxM4xa8Gj6Y387XNuXqvq5pKj10ZeB3jwGWxncB3DINesHyG57sT566feeV988P3vIaD/hJiCx7tjqrsls87SYDGrus5fnS4PuL1RZrXOUo9IHPE333omvvnIE/G9J9eHHM+4qbNQ3rXS3YhKiFyuOGIHzUqlkurRoQAPAKDQmexzDTxW8uhsAg/zGnzzPACEnAyFnO86hynApFi+YBbA87Pxc3I8fJ6cUwI2KHrdiwfin//BH8e2facJTj6dIhFPhRGzBx8FlYNp8wjI9hKbqAdxq6kFjgaez3AYLexyPKlYRtySQFO/k+LWCB2P4GPICYmXerpy4KG+ssp4ryHOmHG3UpeFhOrzciz3679c4/9IUhs+/xHP16/mcRjS/FlEJc+GU6nzWLI4Mkc+V2/V84qxGKMyNqHmYWBCtHGyUKXwzn2smvpXf0XI1HMJPLexDtjiJYtyLTEN7rIjkZzfyW/xjkwKk0cE0BpAAX2S6H0vxoZNLCFM/J/96H96DTY/bgLhMYjbhwFsGvgBRM3MhrU5A5XW6Oj2uNYkCEHTKW4JEgJPcj3mvexKJp5naar70kPaciB6l+d8yPc9VshaHxvgw62qDT0r7112bLR5+bZhhtsSfABRFh7UFmgIfdnc2bNwNF0Sf/cD741bVl4b4yBy6yojaoiJpCMnVOB1uCx+Lbc3ih1Pl3pSeuczG3bGQ48/G3/1tYfinMGHJsyIbnQcw8CjH43YaiVXwEOTZBxmgYCKkmzV+heOx4YYnc2QBHI6QximdbQjBsFin0cbORaZfyFhQX/z730gPvjWpQV4qHsEJhpmILbvOxX/+TNfifUvHWDEvUi4SQ3fnLpmdKSp/KeagJSiR9BpddUFLgA6zQ3gqcBHgmyIWgV4GgpmEawM3X8L4OHdBhHW9VfXZc2kl9/pMV8/Uh1HQkd2GK/7eHaCxg9PyvVyVv7mCyNT8JFGKo0nRwJSnbPGzZEngo4GnlQhRuGJQUjweXwJfdsffeI/xCt7d2Op3RprMJxbseqGuJ6OdT0c0KwZ04d1F1SJ45oikxMFVo/Tyjt3dce27TviuedfiK2798Wu46eiC5ODXhpRLtgIHIKL3v7NKLOdl6zde1wRQ9eUIeolxwiVTMn1eBRsSrkNSpZckL/zQQaWiia44AeGd8uav+sj9+p6LyjG/Xor6Zc0vDbyt+fqeZi7Y8LDJXf0uu9m2WXdL6ZO7Ixf/CCxme++I5YtmphxftRjJiZyEHjQomWail7DaXOqVf5VbP8vAAAA//+1Tb+WAABAAElEQVTsvQd0Ztd137u/ht6n9977cNgpUpRIilS1LcuSLJG0JIuJJVuyFEnudrK8nLcSv9iJY8WxEicueSuO49iWZNlWYx8Oyem9YCpmAAxmgBl0fMDX3u+/z70fgOFIHtgE5fUe78zFvd8t556yz//sdvZJlNhsGra+4ZJlahJ2oWPYnn/1oP3B//N/rOPaoOWStTaWqPK9kKgwS6QtwW6WNCsVrcQ/HROlvKXYk+wlS1gpkbICeymRmIbchiQTViQXWUsmRi2TzvHdlA2PZK2iptYWz260Tz/+I/b+B1ZZKm+WKRatKlGwCrJ9bTRlh8502d88t8e++vVvWmdXj42NlWzu3PmWSWaskMvbSDZvWcpuNTNtLFVvJZWN9xMJErMx6mGUPRsyUqqlCuqohxorJslHgvtJdvJnxYLXTzpNveWKVhgmf9TXxlVN9ktfeNy2r59tjcmEpchfJs+znFOZvMvux/CJ8b+hPlXHYYt+xz+j6+P3PSUe5QH+O/GUoofj74wnXk7VP+/X/Y1yqvGjCU8j3NM1Wjy+FX9wwu8U51Q8xcuNmOWVjwzvQE5nLg3af/i937OX9+2zS50d1jyz2RYuWmCbN2+0++6+0+67a7tVQm487tVRzFGl7BVcS5Nkil3VNkpTXL1esn0nztvfPr/T9h1vtfNtF2mBhFXX1lvTzDk2NDJmA9T/KMdEutIydQ2WqqiyRCpjuSKUXFTGKEe0h66mckVl864XnRuZSEILTg96R3U6cSdj8e9J93RZz2mL09Jx4jk/47bhm6WxMSvlxmzGjBaryiRtqO+aDfVfs0J20LZsWG1ve8ud9oH3PWLzZyaslnopUR8pkhOtq+ZDrqBF0SObvpRIqg/f+paYLuAZGC5YqiplAxDGvuMX7I/+11/ZoVMXrL170EqVTVbI1AMkNwCPiiDwceDJOfAIfET0RQee9PQDTyJn6VSB/j1iY3nyMpa3quYWW71kjj31wXfZe+9ZYBmymQRYkrkhq61IWTZRbZcHSnbyYo+dPHXOjh47ZWfOnLfLnV02NDhkudExS6errFDVwt4cgIdSFQER/tJaEN2NwFMCeIo1VgJ4iq8L8PCd1wBPTLDhOA4uAvqYiGIIKF/w9tBdEdw40cdXdDXedY1HwuE1n4+v+zOeWHhw4vXwkSiB+FBSJ2SnQ2SHcpaH6JNV5BNyam0bsX/35d+zvYePWU9vr6UrK62qpsYaGups+dLFtm71Slu/ZpWtWrrEFs2rtkp6EiRmeeE+VZQBkTJcS5L8CNc6e0p2qq3TjrWeteOnTtvJ1jN2pfuaDY9B35U1AE0NrZe0XCFhYwUKAQAJeESvGrjKG7fKwONljQscHymMQIfBKNRfXAscvbz6fbO9/IVwu1xhSjfe9Wp0roYFFEV2NdXVPrAP91+nzCWroezp4qgtWTDTHrh7h731ntvtjk0tqmkHHkGLACjkwnslV6LcJieU1a9+/z/TBjxDI3lGAbJKYU61Ddmffe1b9uwr+23/sXOWqptlVtXESCXgyUC7Gn9UPGrjNcAjzkPAk444Hj03XRukQsMnk0XL54YZCQGGApzNzNm2fsV8e/KHHrZ33Tvb4FssBVaUhgesjmGgUFlr4KsNk/1RaOfokS7bf+CwvfryK3aRUbL32nVLQZD5SkAn02hj6XpKmgztL0JwgmOIFfiIWACdmON5XYFHaYtqJm3xhXCMwSfmLOPf4y/GQKScKu8hMVJmowL0Db8TrujqpC+MX9Yt7oW7ARP164YHbvjpL6nOtOdLloXbyAPqqeoE3LTZ8fMj9ltf/i928ORZG8xyj/fH4P5yjPJVsDVNDbV29x077I5tm2zrxrU2uzljdYCWgIdmtwpIUdxPhl2fFpYw/tjFzqK1Mpi89PKrdvjYCWs91waHBfBUwZ2mKm0kV2KQHYVOM/yGplMV4AXnzo2oXFHJnPtRKUhYH9AfrwI+4qADF6zLvulM74VjeDA6d7oZfzI8H6elhCfuSib6DYh5fyNv3t3GRqw43G+11MuMxiq7con+Wcza0vkz7cM/8h77sffda43VdFeBMUmMA496rCSUsCWE1FPYpg14sogWOSonxZDS3pO3Z17eb3/z9E77zov7LFk704qVjQBPJRUSAU+CjAM6k4FHXI+AhyICPBpFinpuOrciHFYesYaKFvso4MnUN9riOQ324Xe+xd513wpb0JiwOu5nAJk0jTSWrIL4zQYZrJDMLAcRDg4WrbOjww7uOwAAvWzn2i5ZZ1/egWcUUatIw6cy1RBoJcQpkWvUdxFMSaKWOB6OsFWUmfz8o0WtaCSdRKvxj8nHGFB0DESvCg/PTPztRBe9GgiQ9ovAZyKAhEcm/h1vQPUHB5/4OH5LVfHaza/xJwddFKg3OnghXeH13wt4HDndZ7/3h/8T7rrN+oZGbZiRoMQzTS0tgMuwDTK6N9RW2/zZTbZuxWK7bcs62755Pb9rrIkqT5NNkrY8HC2NgKictCrIFMkE0apk1/pzdurMOXt13yF7df9hO9p6Du4HAayi2qrqm6F5VAJ0bn1TbeysE3Sro9ddDDx+jAroVcNdsVxefxz8lm6M7w5iApzyNU61+fs60Uvs/js6j6+FBLkP8KQQB6HZ4vAoIhdDJoibziBCpimHBtxsv40NXrNH33avvf9dj9iOzStsHmKXQEe7emDIhb4RtoRE+ils0wY8OVhR/lsSUaRnGC7g7GX7xnd32l9/9yUbKGRspFR9A/DQOBImJ3E8MfAEjieAzzQCj9cjf2BFMxUVlkxnkPUBBACotrJgD96+1h68bZVtXjbbFs2osRZG2RoUPvl0tWV5Dbp0/UBVFeWmHbK06ZnTHXb44EE7duKUnUAUu3R91LoApUFEhFRVoyUzgAwEVwYeemLgdsRXwfkAOuJ6TOAjwgQY1SGmpuOJCDqwFTeQR0ww40evBkZqdZTXAE1E5TFHpMT8eU817jg6jr8pMo1T12PhPPrLyzcFnvFEPWX/U75G+hocCmN005TlM3VWhPMc4NKRsyP2n//of9v+kxcBiSyggDCbrLT6hibE51EbHRoARIYZwfM2o6na1q1aZFvWI36tXmLLFs2xubManetJUVdJ6LHC0lbDoJLik4JuqW2uXitZ6/l223PouB2UWH2x07r7hmwQABrloVwRGoXDRQ6DEBADUyTAkUZW00FeGlw48fLwh+sxUMfHUEuhjkJN6jzeVRvjT+qXb+X2VcJKNzr6h+Jz6VTJl5E/726iLU5QdInTqc7Ai+eHLTfYYysWzrbtG1bZDwM+W9YvtMYaBluyoB7o4KMktfGdfzLAU4Q/zamVGEKGKNcVdCDfeuGAffU7O+1Mx3Xrhj0IHE9FqIgyx4N4E+l40qWxMsdTcI5HXM90Ag+oDpGkIZrKqhpGhrT19/ZZcYhRYOiKzZxdbVuWz7SH79pgW1cvslULmm0O7Gmyut6uDaNrAKgEOlJQAqNOJnD5rqg8fea87TnRZs/vO2H7T12yC21XeA/5OdMAuNBwruMR10NrStSKOJ4y6EzkeCCkfxjwCBAmbiJkbZOPTug3AE8gfj0aE3x4J6Y9TyZ0TU71nXAnPPW9/6q4rwGeyYmSVJy/8BVQh5fYCwDLAAaLdANcaZOLWiculew//sFf2e6jF+zKNToQHSxfROxBY5yuqrC6+hobQ0QeG8YAMHQVRXPOmurTtm3jCrt92xq7+86ttpgON7NWkOOaAuMRSwEq6PIZBKLGpe8OwGFd7Crad1/YZS++ug+F9iEbhtvNFVMMuOhPMkHRnIAjEy3xxwvgwCPlswCIf1466lU1ETaOkzibqM71TLkuwrPln/6iKk4VGh29DW78TT4KYU/WNQEYAPPoELrMYbifIeqjgPrArBm07b/aDsM9aJ/6xOP20FvvsVVL6l3k0pcldjn4hC/GRfNc3MqfaeN4ijINUNG0l2HgwlZk9uqhLvv2rv32wt5jdq6jF0KRqBUDjzgetexE5XLM8QRRK1i1bgY8apBbKe7Nnpn4otJO0bck/kmRDXuMRSrBMZUatYqxbmtIDtjKuXW2GtBZs3CG3b55tS1dvc4qG5p9EBFdhs40+dg/MAS3k7XWzl4sYJ12hBH5KAB0pScb0ZhAR1wNWXDggePRUdyOczzqbNSPrFpsAXgKbtXKMDLLqvXLX3gismpRirJVi4edENUeE8uqVALx3niM9RLqEjHg+JuvAZ34faWlJ8if7yGPuqotPBX/nXDkFYGOX4nO/QX/mJ+Ftyf91nXVCXVVHMGqNQrwwDlWNziNHW0r2W/95z8HeC7a1d4xS2LIKMqaKGWNOGrqAGigKoeQMAZp7SFG8WFr5JG5M6tt+ZLZtmH9CtvIvmbZYptX22BVII7Eau9d1IFOJYnlyPgQ2WjrGrWTZ9vs0IkzdvzMBcTqduvq6Qscf6YSAJLCmR0FrOrTdbvKjtO6yqNNtRC6sp4JtTJe/7ofqiHUX3jeXwzX40r0X3qS3ds7Oi//huMRt6M9Sd9TeyE/leAeE3A6GSysKQwribEBxK5BqwOI7ti63h66/244n3utXtw8b08UuTwXAVP99Fb+TCPwYC4G5bOMABQJjR1iR3vO9h49Y3/xt8/YgZPnbSQPMJXSKACpALGmzs2ESndrT16djdE9hW6HitNIMb7FDaArnE+G/uix8Mz4kxPf1yM3/hYx8DRtURKrwv8E305UVVsTdsWh7guW7e20Gsze4nSWzG2y++7Yapu3bbdFS5dZfVON1aCoxELpugLhhNpDegMpK6U61ih5rmPQjp65aM/s3GPHz15CCcrIPTyIfmgIUY1yFukFyQaqo4EEUF7zfsgpf3XC75TyhbhRQJ7LFMdsw8pm+8XPPWE7Nsy0Jr6VhqgziBZ6NvrDwX/owvfYxkfW8L2Y2MPjoYpDGuH+jcnoaoCrG++E3+MgE+fJUyPhOGfxMRS4/OuG5EQXgA8cMabHYCXEjC0F/5HzJfvNL/8P2wPH0zOQt3Q1A4IsqHDfpRw6jTEAHrt5Mp330R3kxt2h30aHMQCQQh2czrp1K2wLep/b2NcuWGjz6uutBfqtEInSoFI2o7d2cmV88uO1frifjhHbjzXt0LFjdry11bqvX6dtC4hftCFdOlmBEilZDalWgoPSBcH1FygLcrkrZyP6juskrrNyXcftF9N6VD3l+15p8S+O5YFG16KdPubKZQ2sKgjXkyixHPKgowQiVx6zeq6/ByV70RqqktZUnbL779xmP/WJj9qCmSmrox4otivjpWdLkv+kfBGmsE0b8ChDapEilaQRokCDaXTovFa0P/7Tv8K3Z791dA9YH2b3bD6JD0QzI0M1DUSRsAoISIpDIC/iSwZTaAElWDEnvkmVNZEgOS+bG+OSh/vlv3Fb3NAQ4acaKH6Pc/+vPxoZ9alAFBXwlmJFDeVbGiitQuiX+bG5rspmz55lazDRrlu71jauW4UiLu3ysBfc+0gBQEph2QpEKzNtD9aYtqs9dupSO9xPqx05egJT/Gnr7cOMX6i2iqqZVlE9C+V8HcnwRfQGJfH6jJoCQ+U5KWAhP0k6z9qljfaln/6I3bFxjqEnBeex0JVQrjmHpOedVOKC3vTo5fUyezWUn/le1yc/Va5tLpcrtJzG+Mk4yJSv8YGbXPXbN03JORcq1u3gWCBTtUgPaQd2cTz/9nf/yPYea7PeoTx0V2MFOrtzsOrY2tXwiGqyYCYEXnQ45A3yAIfNUF5TXWm1ddXWUFNlW1ctt3e99T443Dk2a1YCy5jyCj3TFF61JCUrmMYpDGfo7krWda3Xjp08BggdsN0HjtvpC112fSBntU24YtSoTXGrwAUjiyktN9hvCRyLknyzpATZJ5d58q9QZ+Ean75hm3hFZdTtG675G7qmfsQGkpbFQJc4xP2gkEf0SkBfmRI79L5l9RL70fc8bHdtWQutVctY7WxfdmTAqnFZyEgDP4Vt2oAntIpGTDFzCR+1VdRB+sq3nt2LXPwyI/5uG5I5qLIB4ql2eVwcUAKFK61jJSwSCcSxBJ22lB+hQuhI3pupUa9P1azOHa/DeahtPw/A4rXP77gB4hFZv8ev8YM39VuAqZxGDaMbbH4Pog2lQQEH8cd7FYrN2S0NtmzxAiwlS2zTmhW2eulCWzArZQwWPjhj44Dzcfucp1+ELeor5KwTK8vZS52YaM/YYbjB1rMd1nFlGMc0sU3I4BWNVkKHkceIXxL4iE+XOMj7iRJ1wmidKgzaumUz7Jc/93Hbsb7OmqCKFESTzvfjFMfzOGwyrPGewGfiNl7++Ex3x3EjvhqDsN+NEojvRT/9oDyRb2+Piddf3/OkOojayIGn5OCSh62k35uA5zd/97/ZXnzH+oaxrALBeZVfg1nEUYfchDZOKC2nUJVH51G5IBs5ry5C2XzHptW2bsk8W75spi1d1GyzZlRaQyVcOo8mIZcKnhVXm2KXM+LQqMCn006dPW77j55FBLto59r7UD5XWV+2yvrZU9VYdqENDagJeeaJTUbcKbnxQPkgsX/sFjrApFQS0K1qKgngyopWQtwqspfk0iJ2To3PXoI2S3kGevRohgi2eFYDoLPa3vfQffbAnUutgixmeEagncHxKQPHOZVt2oBHFahRLHQ1lyS9TKNk+OLlrH3nuZfst/G3sKoGa5qzxK5igegfgS3FGSNRVU9j1EIn+EHQOkLf4NVJQV2BqSJGDVMGHRH8hOvR/eARq+sxQXF0ANHvCbsnp98x8el88haASV8GgLwBAwCV4MSGB66bnNFa6qvtfjlf3X0HDlgbbHYTohdJwZhAlIweEEM1lr4k7JI6ikokjrD9Wh9+Ipds5659tvdQqx1FBzSER3TOGF1qZsCmN0HZlZbFyibnlCSjcZrRqDAK8BSHbdPqefYbv/QZlN8JSbWWHxpCIdrHt9LBbI+vCwmwT9wiQJlwyUtdJti4DsIxAFJ8TS9NPA8EC9PNZfZp3OQ/4u0kzoe6cK4GTKVmysCz7/h56/2+wKO8R20N+IS2jcqjonBXA0tKtJdFr4fCecO6RfaWezfZpo2LbcWCWV7PqlH5/6R5QeAziryXh74qaxNY1AbsCnq9w+jyBD77j3I82WUd5xDrWhZbBjNRokr+aQCAOjGqBQeeSfXKB17HTXSbhPIS0E4Cjq+IjlXAI11rAJ7Qfp4PBq+SgAedT0OmYHPqM/axD77XfuSd9wE6eavnWkNt4NSS4sKnsE0j8EAUvsXgQzPTMHLokp7j0LFL9r+/9rc0xHlru3wdrqeOaRRyxKLgMjHTyYpZdUsUvXRUsQ0lscUOPCTkm47s3iNiYtdv3Yyfic/8Itd1DPs4scXXXvNqRAJKK7wfUqXjO7FCsDrSQPIRycBd1DJ6NdZU2Bw4oJWL59sWRK9tOKotnjfLWhqwmpGSdultchAoxnjqhDEI9BnBFnv5ynU709YF8JzHVIuy8vRF6+nL4hlLPeApW1VTj6WWqRRih+ECiyBagY6xbtkc+/Vf+pzdtq7eMNI4TifHBrG+jyLiVVimEi+wWEfA97WFEoXz+K9few3wTH46ANDka3E7BOAZr/s43dfz+MYBDwPLWBY10IA1IwrNaEnbogUNtmoFIIRovX7lGlu2cJZbgZyXhOTFYKqBZT1H+wSXk7BufH86uocRua7bzr2n7bmXT8D5o/+EWyjJTs+TsroFkSem49ezxsbTGgeewPHI4bHg3A705ZSp74uzpjDKH3sK8EnBWSeyffbjP/QO+8B7HrFl81psdkOF1SBhiQtPid2bwvYGAI8IXNr8ML6ow2nv6C7hB3HK/vrbz9l3X3wVcaLWihmmCHCUR7N8IfI4gEnzrtFdvEEAHjWUtrigOqqyOIZeo5ts8e/wK9zkAToVhebihN07WvybSve0YwIgHX1i4ha9H4OPWPIkPLZUiGkcHrODvWQ3aw3VFbYZ4Llnx1bAZ50tX7oI0y0md4lCEKf0AmrgAg2XQc7PMOgIrjGI2LlLPTip4f184KidONMG647yGceoKqwsGbxlC+jQSoCK9tHBPlu1eK79xq98wW5bP4ORiNGXhFKMoAU6TlKsMKLBjeVQieOtfO5ljX/Fx/ipcPSrZXCK76m+xeOGY3x1Oo5vHPAwwMibEC4zBdCnkpibK7I2F7eKlUsW244t2xhYNtjCufPgdHEqhUwlMbnCmWpA+wT0wNFQCfBN1sXcr2dearOvf+tVxOseu9LbTZ2RvuQ11Z24UoHANG4BeHySB1+B9vgeSoCQ6Qh4BECyuLnyHrqWW0txqMdGezqwbt1u73nkAXvwrm22bH6dz98S46hJClPZph14RMdy8hKxahfoSLRA2W8DcHF/9Xev2v/52t9hhrxoo+h3Zi9cznUc7IYprCOxKoUX5OQkuV77JOL2m+GaX+fUX9Ax2gQUk8Al5OZGjkdXfbhyXYD4Em1KP97i8/A+qMENrG6UsAI+WyCQxzJVxbnELux1KHixnpDnNSuW2qYNa+3OHdttKZzQ3BmIRDwTk5mUldqZpeH1I2nlOr5P7VevI3od87lH+w8dZZ7QdffGnTEDVh9LQgGX2qG+XuaSzbd/++u/aptWIabCGJaoQ1m76mGFE/L6EjvvdReXZfw4zsHomsoYaiI8MfE8XNHf1151yOEO709OcPyl1+nsjQMetU/KqmBfEoB+qdjr4JNMYIZHlTADp8SlWL3uu/NOu33rVtu6oT6MrlSBOiJTgxGX4ZqYUqP6gtxt575B+/o3X7E9h09bW+dFqgvTPsSS0KCLkcUVP5No7nWqtCgZcejMLMOQJuU8wOPUK1oXcgg1OXddj3JM3qDfjPRBiPSFwW5bNrfZbkfn9c9+4kO2efVMHynVtaR0n8o2rcAjEtYmPY+4CBWFfoWIEQBInevAyUGcrw7YN59+wU63dWKBYDKllF3idDQBjxdGhoeoCx5Oq1KUykTi1lcm7vzUI5M2XbjJ7h0xvh6/oAZQQ2iPSxCO3rV0yitBOxLeTZKnSrgKTbWQyIWh1Jszg/CfcNl91OrhSefOmmFrV+MfsmqFbVix1FYvnmVz0QHJEhn7dsjCqX4rp1eJpVLGn7vUjadsG8rK83b0+Ck7e+ESs+bhdEZGLDvMWApibSLd3/jVX2ZOWTMiKlVFOpWkwzzAqCjkWOB948YzKsU/flPFsE0z6OgTbxTwSD9Ywb9KphiUcEgr5K8DPn1QRT8cbp4pBkzFqCVywbx5tnbFMrjbNbYcA8OChQ3M/AZMkiNwqdAA+kqRkgbclw4OwPG8bLvR47Vdvoh+igEB7XQKK1cR95KSnPsEANO0OfDImqfcRMCj/lkGHp0LeJwq0HGJluHKMugRMxh30vj2LCJSwxd+5pN2723rnMsjGT9OJcvTDzxO1QAP+gWdivTlVi59j1hSaW2u9JUwsX/bvvXMTjt49JTVNOKLwsTMTFWdDaHnudbdQ+Mxcru4IAJnLxN49FvXfOcQby4S6Ye+zD6J66Fnxtf9np5Tumr4eNcVrilp/zPxG1Ga0bsZHHXExkqBPIZbvrifChS7tQwFtSgQ+3qu4sE87AC1euVyu3PjenvnA/fa5uUtTMdAAQ3QaJRUllVHnjs+Jw5RTphZ/HuyoPCu3XuZqLjHdu/dZxcBoF5Mt/W1dXbbps32Kz/3c7Z2+VwNVK530MQ+z7boCuVDSWEXJmwqwfjmhYx+6nziXX6Xf054bsKpv1h+ZjzV6Th744AHx9FSJdQA8OAtmM9dZx7XNaZUjDCQVFmlZmTjYHqt6zL1nbJFc2faOx9+0O6/f4utXTsXn6CCe++7Ahf6V+3v3HfVvvbNl+wAk6XbuzsZHVD1wn3kczR+EYVJUWqF6QQeYMaBByqD+xG0OPDgV+Tfjbl97yuyxAbgqWaKST1Wku5LZ3A9HLUv/sxT9sgDdzHNBHcPBkdNp5jKNm3A4+b0MiEKdISkoVOJi/HORVk1rYVpS/iy9NvTmNj/7C+/DnvKXQ35OBVKTFPHK2DhKsgRht9hi6lex4l7dDvuKTH43Ax0yhyP3lFmlQ7Cj4OPlG265H+jexO/ExeOoy7jRKUyy0lNABfP9ZGOJc8MYHWWCji2Gvwdqioz1oIyYM38ubYRs7ub31cttaVLMLNSPGGq3KB0LAkwUNwVyas4xSs91+1Sx2U7fqLVDh48bHv3HLC+6/22bMEi+7Vf/CV0DisQ9YKJ1xWdyqbSlHfqDcDDnRs2FURbfAy/QlXecO3GZ/zRuE6i96bp8MYBD1xLBAaFUQi1gKhVgWUyk8X5EJoeZQIvzjtJ9D+1iLPNiLVNtRm42jn2xOPvsVUrZzD4IEI5/xtzPFfheHbB8Zy0C+J4aKsxjRR5zPNJRLUE3FGZxl//CqTDuxldXHoAHpgCt0JSPh0FPGWOR9ofce+EhoF26pjHdf1ym3s1v+shJkyzv+NtW92FoPmfFPCIYp0WRbRB3BKn46EGuC5RglL5qC59z77DXfbnX/0GXp+MBpevuJglAEoxF0pKOu2aKFruGM71KO1459Q3/dbmH4+OOme/KQDFz/GeI7++IYAL6QTtBecOQroWrnMSbXRq6Xvc2xlFM9xPGrCQI9YYXE5pBFER7kdhGSq4lyPKVGmo3xp5ZimBqjatXWFbN6/DTX+VzZrZaI0N6BUY+IRlTgvjWXFOCPWNdV6+asdwOtwDB3TuzDlY3Wp76mMftw2rV7v7v2OqwEsIL7mL0Wpc1Lox/3E54uv6cHxNxwn6m4mXJ9VDeGHi30mPvo4/3ijgcVoQ8AAKzESl/pheUYmVJ8VAIu6WOEuaFVwNq1oJZ4BJxIaud+HrU2+/8os/ZbdtWwq320DXDe4kaopdh7oxqLxsO3cfwYP9gpJlnFOtYVp30FEPVoNPzxaAR1wP6UOz0vgUY+Dx9ozAxz8PP8QzAp5KdFFVxKka7u1Cf9iPE+F8e/cj99snf+I97k7QIpF+Ctv0cjyi3kCJZEklpTOCqMILdzsH6B1HhPr0jZ7+kl26PGRf/cY37dvffdZ6md8kjidV28Ts7woYPDmDQQS+KT1tHCcBkC7F9zgXx+M/lZFod/Dhg/FvHf2a0qLi1fB+1IvsEeAEsSu6FhIN92mckqwfPJeQrkcgxHc1b6uC3wKbPJxPjn2M6RFq9BqQoQo9QSV6IZkr581tsZXLFjJJcbtt2bQGZXQz75E8m0ztcvZKwSWpBAJuYZxCjwwxgbUVz+fBvj70DCtt3qzZmO2ZuKpsQul5hdIjnRRsUFEOJ0qgnHedh02Pj1/nlz8Xrn3ve/7S+B9/EIAbf3n83ut49oYBj+igwAgA8KSYzJvO4DdV6EOl1u/6vEp0PBVSPOexuDLNID/U52FS1q+eZb/880/Zts2L8G6vsRHY1zwyc5L2e+XAFfsGwPPsrgN2mtg3ieqMVSKnVDFhODuC77RErmkEHjWNuB0f1KBRAc+4FVe0LyrXNR6EjlMAbNDz4JAqdxa891M4FNZgNn3n2++zX/jCT/jE0RbweSrbGwA8ouBAun50Vg5PZi4raJZzdbQvMwhCSAGu7z900Xa9useefWGntRPFL4fbu4Jn5YhjE4BnQnqetn7Hu/pMfH9iVdDpJnI7E89Vyf6b5wU4DmShEcbTJU0Bi9KOgKh8jwYsYbr2++5IxW8HPHJCMprLUhRxyveGXYryar6XxuSeBowUv7MaBWMTk2BWMJKsW4X3M5MUV2Kpmj9/tlWiA5JeXZ8uooVWjVbwvHKo8ytX+jDhD2Kqr2eErSK0AZ1BrvfyxQCwStJeQ/RFl73iuomPJKBNVaAP+MZRCUe/4+vjzpjhqRv/hleUPz+78fbr9vsNBR7CzyYI4SKOxOB4SqUBzomiSaesgBvPiIBpWxoAP7sBOuWQrVvZYr/wxU9gbl/MXKc6G2WUyCs+KxzunkNX7JvP7MWX56C1XjqPYpl5Y7R7BR7qo2O4kIgFmnbgoShOw2pmmAHofRx81NoAD/QbLGCRhz5TSpJYLdJYStN4zKfwIXvwntvsZ/75J7DQVtpipsRNZZte4FHnm0SEImx2zdLllnQ9qmP18yH6nxSp8rwW93ORCaW/+3u/b6/u2Wc9xNUY07QBZiHL6lXu+GVOh47lFRk4Aid7r8yoKnSP/wKX0CnifEVH3fN88pv/4VHdixskOgpFdDcCntAh9TSpyiylV/QHVkePONDA0Si+rU8CBD2SxNZMAUQaSUqATlrmdupAoQnyo4OMnqNMv6jDOW2pvQUP6Dt2bLP5TEatI361NmGJtmqqQRjnX48wVZ73QnTpleRNram1KflAoRtTVRWifOv9kFr4q98h7xHEeDl0Ub/jZzgrX9e9m28K8RHq+Ob3X4+r41MmxNLd6Llc9CkTCrf7j/VcFnESHovmxMcMR8BSAU6HmeyJNHo8tSVieZKBKoVVMampD3g5F0fwqSJ8xM9//mN257Yl+PdAsxSa8caVy/sOX7PvvHDQXtx91IFnDN1bgUFB01qKBI4uKn6rDymvR03dJA3aUKCTdFpQs6t9o34DkYT2pqwR8IjyZcFLaC6bpuEgTmr+lmL23M68rR//0fci3uMqskic2q1vbzDwKGMUFOAp0kGyY0zKI2SAptEIhBQ4TLvcdyQ+Hz563vajQN21/wQBnq7Yxe4RAq83w/KiiAMECjS4ACxFAvLOTSJr55Hh8sjdOXEgAgO2JJPY0nT4JIBQZKTSjGD3zKRjCiS87tXz1KsBBLGhTtx+I4BOsMpxXu68ajB2/XYA9E+N/9FtiVyu91Gh9Dh/IlCSBawgRTTAozlcmkpRIXFKpkuuaW7X3JZG4t/OQ/9D/J+NG2zzxpk+y93ZZIENyXnsH4ogd30xNDLpK6oc4bEYYPku3I8HpUKmlZowbKqXmMiiS/Ed6kzOibrrM+A949x0opz8bPlXqGYv4z8EeOLRV8ci9aU9T/vpdwUB2XRUR9B1HX2OnKMglUC+ikwCxRIdwmJcKDBJ9L/Z/hPM1RohHWleFOlS0QBVFh88lHNlmvd1pJ3UyuEaBx4LRRKSY01VCIki4C03wARzIjCT+0OqT8BHKpoUQJ/EiOD6j2WNBN7/BCFTFlp9NcrlKGnpN1/e12t/851X7aW9J+zs5XYrYA3Luwgt0NFQEeWTL0zLJlr1//yJSh3Koq9xTfd1pLSAgz+h+k7Ii5lBMeNWLtQGQ722ftVie887HrQHCKB/z1pm3k9he4OAJzSjt6Z6C42vkKIjoEsa4JHXrkhAMyQGmFFcUY0SlrYmMqOdIXLhC7uP2c79rXaoleDpsKM5TJgClyQAptAbSZ8AKC4KEY6OI3EkkBSEQy9Nyn9dvdUJm3tUpFODiLcMPGTAr2suOApiOr8aIIwIAXC8GdQJvGHCtdBIcWPpeOMWUd2NlwEZB6bom8pfFSiC7Q7ixT8Hp8A0LHwdVrCNa9fY9k0bbcf2rbZwfguTFHHYQvxCVx2AiLTVReh75JuRVyyxLFgKHSGTLxNti3Q+XME8F/Bj5X+6oM5coFN7X6YI4t4ceHj35vDkyfBgdIwPngB9NDrGl2/16APDDcCTYcCYCDpKy0FW9adWhuMo4mcj3zuYZsJiFJzjEfD0o4UX6CjgnCxLjtRTBR5ZOLVrNEzKYgnoaDUQ6siVZ9SpRNA0nVLAo3ld65Y12a9+6ZO2Y+N8XCXgYERm7JLiX9rTb1/9u5dt176Tdq6r00pMxcghCgOnlEYDIw+pj0zbdgOtOtBM/Fh8n2yUgYd61uxXcTy0baqUtSxhM5Yxf+1t997uSuZHtkGUU9imD3hkD3bKVANFuw4R8IAONoo5MgX3Im5EZDTCrN6+wWGWD6l1xzdd6ycSRXt3lhGMUJNHLhDn9ri1XVQA9V5raGq2GpYaUWON4NY+OIi1QWE0mJdUXVPHESUrv4eYMKllakqjEI46EwrfBN+cCDo+6tLmKXlpUsGavUtmyXloiBh04msx5xPuq4RRg72GaFRobfEx/FKoyARmdb0mkct1RHBcwse0OA7ixpRQRMtPpJZRv5GVEhSo/MH732L33XOXrV6RspbmAD7SHwsnK2DbqzLE3GPyHjxjtFOoIiFcGbFz7Cqn4hulAFz9k1iU5xtZKb25pgBj6uwpdVCyfHMMicoyuUheFpVuqsAjDkubBzeL6k9gEwPOGCZrcUDiwPRMpbg4CTCIANMLPGocgFu7dDkKPpakshUtUsQJN+U7nTcFp5lkhmgiAp5f+9JPRsADMPFsDDw79wza1wCel/afioCnyoHHeS7S0dFJSclPy0b6Ma3GH5rQjrrrm9o+OnUAghPXRFZJhSlErZG+q8Spbra7tq23D7z3YXvfXfOip2/t8MYCj3e+qOCMGGMuasliECxVo8jrQwBEGnYng8JCtC/rlyaVdrDMyLnOYTt84hyxa47Z4cNHra+vH7CCQ9IyI4haYqc9kJZGDbgcNaLiAQlsShr59dt3TtXxJfawu1ZCI5jCEgA4GebOaF543EChXQIIxYCj6p0IRno2fi7c09+whQYMd+NrLiMx0gmA3AomsREw5gcNi+hFflIUPikQEnfHro62YtkSQGcZviLL8YBeZKtXVrv+R5P1xAm4XgdX/QqWwWDhHecMS4gixhy4AjoELwUVGwOKZH118DxWOYGSuEj1fZ6giqijcrbLJ1ER+H3jpVBQgKdcyls6uRnw6EWJVrpXFrEElgJHofMbBjx8y7kC9ThxkBCj5qR4Ial0Bx84b8RmTSgNwNNo//KLAM+G+XCsUvTzmqqLpHbuxWor4NnXCvBchuNhjTlZQlVegS1Hqn4aNyWunfL4URnT5+IhlKv+W9f0hJ7lAoNiCa5H03Rk3RoCeFoIR7h+xQJ78oPvs4++fbk/f6t/fgDAo6xRGDqaRKYUHElSchXXJCKN0sG83IwwKXqSgw93xX8odnPn1ZIdPNRpzz3/gi8hc+FiOyAFh1PbaHXMnREQafG8Ebgp6ZAY5i3N9Wq8ezP4uvBZ9ElMnuRbAhEF1RJhFyHwkmIaCHjAMCnRAsjwYfIWN4sfyX74rUbRNn7fz/1yfE/3J7SkfrIVpZxRKigpfRkgUaUIT0jLfzRW7hlL7bijWh5AHiVKoUYd+QMtWTjXtm9da/fftwMwarQFcwg8T75FNMXcgMcSZv6zjSHOpiqIlct6XmLntfEZyqwjdUM+1I8n5ragPPBMmk4+fj0uw4RjfOqp8keIxeZF8bNb+yPg0ybgi/eY21HbpADDpNeX8syz1IFq3MGHQWb6RK1Qn/qUOmDRgQea8slwqktiKkv/I44IA0IK4JGotZ72+DWsWndsmIeohSqA6hzneIaZn/gKHI+Ap8uKAE8OLk4eNT4A+sdCfahOXv9NbaS866hd32L3MkKPfuSSb6E9/VR9RO4f0F4aEX649yrW05LNn1FnP8W8rU+9b2P0zq0dfkDAQ+bo+B6X2UcxWGcAQCgj1M9zTzqHgmzuXCupYagrWSRldu/F36e7u2jHT55CAX0Sy9d+a++4Yv2IWlV1rBKACdOVifJ+hgsaBXxyII7CTyiiocBO3xN45NUD+Z5vfEMT6MRKKmZJaBi1yXgDjJ9zjf/jv5VCeG782vh7nv6EPwVxO0oCZ50EIqF6q/ReJeZgaRFBRRuU0ryKvMpkq+gJEsfQYjGCSjGNCb6yaI31FQDQGrvztrVYwdbaHCafivMpES5DcYUlVvmojJ7DlfATsqQ+rN2Jjes0RSiBqkPXOYTRTxe0RTfi8/iy/+ZPGXgCLMSX/76jwEaAIu5GHI1EKm0xx6Pfuq5NItcYDpnVEpepw+kVtagTVRD0oa8XmDZQjoEtsHHggZvkXIrXFDJvArP6umUNcDwCHqZNADzieJCCHZBfhOPRxOiX9p+2swBP4HikuOYfA4FrJ0Olq7jTsKlV1dDeumQqalOOajV9WjKAWj/QsZ7TY+QMuqtEPVCBRDAMxyPzekNFyT73z5+0L3xwhz93q3+mEXiknFUBtEWFK/+OLgl8KJAXUyw+BKaA2OJGBDxjcESqIMVjlvQk8NGztKMcRu0K3M/Z81fsZSL8H2WJ2dazF3xSnhzuwrpVWumx2mdzZzGXKXKogCfpYhnWBBLztZnUCHw3BQjgSQERIasrXEHohhzHt3EuKL4WGib+peM48MRXX/tMQWVlFHfgERCqHihUUcF84dR0LnExg/JcTmoy2wa/Cp6DAEbxGcl7vJ1hW7J4DhYGnA/v2IgYNo8VMpthg4mSV5uC8wmVxityI3F6k7FNXI76Mp9Vhv26cqmdy+WSQyD80hY96Mfod/mefkeJc1QdxW/pzt+3CVQEOtLlSIcT63oEPAIaT4zkBUB+Dc60SsCjAk0jx+N1AS0mysAD4HvwfeVJwENIVcBH/LGmyki5LOBZv6we4Pk4wDMH4IGmVN9UiGj4RZTLf/XNADxnHHiqbVT6RrW/U3Zcz39frf1D73upvMHFxTkHqe/yfQGO2ltPaAtwGwBIz5UwhFRgIRbwjLLuVgH3jxTc9c995iftlx+/J7x0i39/MMCjjq5dGx0spw6ngtPJMhRMRExVQHT85Tmx2fpN33HmRMCihfPUX6XzQ6piadlee3n3AXtx126CaJ0hdCj6Gma4pxTJUAvnKZg8HFABzkJLzeZcnFAjkw8SkrI5hdJSMXUUPIuez524CXisvE3sUvH9idfCg+FKfF/XJp5r9GQUR2lML6NQjHR0MAcb6kFEEOQVET23lVfqSByR7gmwGupriQ2chutJ2vWeyzbSfwXyH7Wtm1bZIyzE9sA9O2ztslrZchxIBCaaKO+L1WEty/BdOSZKglFTCIxkYAuiDVwH110EU16859/sGN3i4JvkYsrp3unRpVs5CHgEMCPMtpdiuxIaEBckMBrFIJAj08pXNVPtg+Jb9aMMCwCmT9TS6J8S6PApcSx5pgzkY67H5/MplrOcC+F4ysAjUUvA8xMBeJgkTD8NHA/V88LeXhe1dh4IHE8Rc/sYZXYA8LpWjamup2sTHYZGD8BD4RxwXL0dAY++L8BxKPLnxYuJTtNY6SqpjDz+SmPDfcSM7rZf+OxT9usffwvP3fr2AwAeFYBd5afzqSPJfCufHIlVsnDpqAcERjo6EUJoIsQ8z3kV4ZeSkrjCo+Jcegiy1H65n8iGrXbs1FmWmL1kbe1XrKPrmofXUCB5rXWkGD8yW4r70aRL1ad8gsTxBFlDiK/G0FfCfR3GiWF8RNBVf0aJ+BYfo59+CE/ET8Z38uLwBDp8O7ZoOahwTZxfhXo+5ZW/U0HAzFHV4eBDIhm4Mxl3NBk1j/NhAe4nQYjKZqZLzJ/VZJuZ97VhzXJmqy9m1vQMm0eYBolgEf2Ui6Mm0Ke06576cwFOU2Ck6R5hMqHK9T12XfaNF7zdKI/KFF++haNARbs6n7iamLNRe2vXddGAQEebfJUyzr7xlWkGHk1zS1H3Oub5k8NNoSBXBUF6QvOrJgIP4i3zmNYvq5sMPEojZNVe2NMDx/MK7iGn7cyVK+h4CP2CUjEAjwo3lZpTbUx1ExHQ2NSnA49onUYXN+1Q499XHmLgUXtyrkv8kQNsBUhcHBtC5O2zPAPev/j0x+3fPPVWHrj17QcCPDFhqxCBWMmwCE/dGKJ1IFBhuaxrAoIiDkwFhmy3vqD7kCVLAJJH/pLToSs06URdWL/OX7xmB46ctD0HjjHx9Lj7B43iFi0HOkV50zpHJcQXNAqu+/FpCNS/exf7MK98RJVYpgPlJP7hOVXmJl0Lb8TPRO+XE4p/h6PWCPOy87g8mx3o+HZSI4oUeCCBFMlS9Doo80SCd6SrKrK7p7TMySjKNQppRrqCU2WJ/Tx8vZt4MI22ioiH97L8zm0sVrd59SLmcLF6ggxcVLu4H62KQDU76GheWAw+WRyqVFbNov/ewEOF+aYCRKdRmYCP8qXozvc9iKPRNtFZUGKXwEiAI9FLYBRzRcMDfdYMx1cpr+xpBB6JR2noBkYH4EEfyElOXE8ZeMTxhEmdCoye1MoMhAcNwPMkHM9s1qGC46GqktLh0d9f2Ntlf3kD8OTpB2FZJRpDhDytG+mrjzldqpUFPOgNJwGP2laDR7THA4namXZIE8YjwfzCnMT9/i777FOP27/71ENTyvUbDDzKGyM4RCWJ1rmbmNNwSFWlUBlwQOJ2xBjpspYdScOvJtTgkgdE2HA8WWSuUXmOaRqFnOTouIpsiJSF/0/JLrT3stDaRdu974gdIoDWuQsdLnJVy8rFypMCn6Fhha1QunARWL4U91Z+LfqqrimfYdPRL4Qj52o2JxPPu54Kz/q16FxXPa1wUv6rFVH9bRGaFDCSqeBeUlC7gLaEGFGQFzKdT5yYuCM5W6pT+9ikauBJB2m+r4mKBZSbvpAf6dQCGjUAWDU6iXWsjnD7xiW2Ze0SW7F8mc2dS9xmgEqfHWZ5IVn0KkCeSuZ/8YrGAGUliFrKl5ePo5cpqodJ53GxBKYCnakBjwAlBhgdNfrLr0ibuJxYFLsCh9DR0WGdl9psy4b1tnTFUrI0faKWwCKNRUPgk2FtrBwTIwU84noCxxMBj9rSPZeJQjAK8CyttX/5pSftzg3EYybObRDVKBfI/vyejgA8B1qd4ynA8RQceKBjKTG19MS0btAb+XXg8bqGCCLgcYqMAEigAwVAa+pronR+c/QNJkD+buJ68ohaP/XkB+x3PvPolHL9BgKP8hWIVgpdacgpiRdGhBXWiooKNxF49BRWpnTsP6FpAICOwCesz653WSQN4ClguVHbac6XxKh+PNy7CTK2/8hFOKATHmTscnevW7+KgI5CbEjn4wBAh0lKia1RWz4aOk4EFD8XDEUdL/qtMoXm0HXlNTr6c37pe/yhmX10421vbIBVZZNyG9ApodwuymlLb1M/Yke0FK7Kzhjs79IluMc18iv9kKxhCHCwwsRY1ptwQ0WW6p3bWLSV86qJejibGDErbNWqlbZgwXxCcNTJCkxaOOojtorj0S5QEuOnJFzs9DJNBJ6J58qgcqmdFx14ZKW59U0Djf+L6k5vSsQSXQh4uru7rb293U6ePGkXcR7tvnLZfuhdj9ld997NZ6cXeDIMbGn2CgceRC2AZ3Qi8MhHSu2BQSJJR0yMMpVgaY39qy89AccTA4+gWFnN2PN7LwI8L9uL6HjOXOkyAU9R7KZWU1FwHgeeQFGqh9d/I+2bAY/4f9EhbaAeIdAR2BS9PTnXO9CVW15lfFHoVI6l4Wv2iQ+/1/7T5949paxOG/D48hgaNr0QUed0wlLB2ekoUhxKzBF5V2FSTkhpoXv8D1vUzdUBcdOWc5/WFk/Q2eQ/EUZ/dTEqhBfUbdUltIQOlnXSE/sefIAkgh0+0WXPPL/TnnnuJevE/E4ft6qZc/F+bkSxXIWZnkl+IFeC+D9acpYPklq0R+eeIxpI10MDcYzuhWzr+ZtvUS34zfAs444/TnqMOmhr+KQ4O5WRphe10vkKpF/QN9E1qKOJKMLOAwIiACkFkKZ5SeCTg1tISASjLmtZACkxetUKQ4qSl7O5c2Yx52uDveW+e+xeZhezlDiewCE1eUDn8fupxSFIfUGVGfRdynkoc6gP7vlGfrwgUZmVtxhMw43wmD8T1RbnSs33eATlKenPRxDxRA4SKStZwVIGOW0vvXLMnsdva/fuPczEvwpXN2r/4qd/0j7wfoiduinC8WpxEvFIR88zZeLLE+ZqxVMmfLDi46pY35RnPsr7cdlCDpU/Nj3qHA/5YCRLQxd5fBrKHI9Po4h0PEozBp4swLOsxjmeO1jVNXA8AXi0jMwLDjyvADxwPF3oePBId45HgBPtf18UAM/+P/BPsMqqcOKWVXzVATTnwENdeH2IygU8cNeiKdpDbSIxS0t6lwBYWGxeQ7wEaJ94/6P2lS/+8JRyNG3AA0NKxvVPgoG3I38pDsSJJoOGKhBLGdGADqNRTWjqD1IJbvdlyC3QeTTpUNzQGOCTo5KSjBpXCIB+6tQ562fVzUy6xjZv2m4tLVWkE4hGooIIWcOMkhX3o3lffQNF9D+X7BSB5Q8fbbXTHNs7ephOgdzOqFaCc8pXstwt63pJdHOZgzyHVCkL+REXoVKJ1nzaQwRCEom8O3lnCo3KizykRtbDoRYkRghIJOeIq3DOwr8RlKtK2+uBV4KsI3aXLc6G34xq1Du5RqKQPkUlf6QjL2TqUUlU0FkSBQglP0DdEzkPhXET+pGVeECvR/m8btVyzhfZ0oWNPktekpVPliaP8lSVEjftCBAyoG6aJ+/SO0kcVtuk0bkpR+JzEqp87V7GcCRH4CW5UWNwLHJUbTm5k6x0dA443OYNzRKxrqustHqx006fPmcnTp621taz1tGJpy9lntdcaZ/9xI/Zj777fspLjBy1G8k78FwIc7X2ndCCfrRrBDzu16V28JxyUIXSdgFs4qPKOHlLwekk4ShT7IqPLOAparTHC5wRivfF8dAGMfBI1IqA5/aI41FnTpFvuXi8sPcSHM+rrlw+i+hYFrVczCId53gm5+H1/KX28ypwelR51Ub0Kwcf3VK96IvidgLHo47k/RM1hGhLPmKaHllk3bD89Q77xOM/bL//+X8iwKNwjgKdceAJjYpAQzFATla9zwI8lXgtu+ey1wGiAVpPBUwS+OSQmxX6U+Zw4vhBWJpdlLEjx8/aN77+betsv4qfSo098tBjtmLpamtpShLnFg9eVD7UkROxAIg+4n1fDJW4InFDh4+csb37j9nLxEVpa7tq3T0oBomJkq1qtBHWuC6xLK5GArVCGBVIBOWtz2oXGNJ+EksC4ZJ5dTb/orpg1HbcDQprNZyInoaECOWjJMWx9DlJ9XR9wwlBZxConytxpSVCEVjrGNL2a9zxzu350w/ScQIiBe9QdCYBg0Yy5xJ1n/rF12SUdaKqicUxkwBUd2zdQHgD1glnn9NSb001+A0JH3ivxBQSrZ4h07s+r00p5gCeMSpV/lbSiaXljsA9BF44Azql4tOQB694jmpa6TdKIlz2AsDDNFx2QIx7cgqVZVJMiQaIa71wp0fP0T6H7ZVXCItyfYD5dqzgwUMNTTNsDcHUP/3Rd9iPPrSZF4fhduAayDOvsqBfHBaDBf2YcCzg8VAqciZV/TlY86ByFddTyKHXl+6oMMqzypQAcMSVigspAjx5icMStZj/Fvx4gqil+DQJiVrO8dTar/3ckzYOPKpPtWvGXtzXbn+JA+HO/WdwIJRVi+WcZNXiOzzg39H3pmtT8b0KVLhyuUUrAt9wTd+XaBX0O1SsOB4fNDiXSI/1NIMrRm6k1/KXz9lTn/yw/afPvs/fvtU/08bx4H1BxiU+hAKpUNoFPIpjIjakwPSGjPQWMSKoo6sjcpuHGFW1xA2NjSUKVyXAR5DFfJdXW+0PvvIn1n6hy7IsyL54wVJbvXyNrVuzEie6bSy4pqh/XkdYbogXC22o84h51EpH2VGU0NmE9VwbRmfQbYcOnraDB07ZyfNd1jY4Zkw4IDhTi4t+7l8TcToJ/EuqsCCJS5EomUdBoiBfmnCZpgxS0soao6kgsshodE/R0eSf5EQP4avjiq7UsUEBEoKIaenA2nKPBte5wEZPccKrqjmd37jRqcVZRKCjo3/BiUhfIg9s8gQXR1YhPxg3hY5Q9yjAiCY3s7HaFs1psTXLFhBXZZltXLPMVsMBtTSqvsAOnBllTUwztSPpJmyuRnlU6mOUOYvILK6VpaU8wJkDj5efC8q79ojbkb0srOpEDXBZaQh8+kCNjq4xO6q5eMfhcM5esgsXOuFIr/K+vK6JPskL9Q1EapxXaZ/56MP2wYfXeVwYBYqDMZkEPHtZSTQsYSy9n0ai7w88AaRDj/e/5M0bioOOAn5FcCyWgYc2VZAwHU8bGwAAQABJREFUcTzQs4An6Hj6UOYjagE8O7BqSdTS+wIeLRP8wr4O91yeBDz0gWDV4jlQYbqBRxgXFYrDRJrRdcpKfidxOxKzRI8aPH3QzOLOgS8cfjz5q+ft0//sI/YfPv1PRMfD+ARRCXjEUKvhQuP52K2+BhGJhS2vngiSemXI2YTyxcCj5V3H0LewuIb1MJCeudhjzz39kv35n34V0IHlh3OSKnXOzHm+dvkdOzbbemIYS3Eq8au5GVCARpy7AMy8o8MmCzDkFDs0aMQs7rUTJy7gA8Q61+cv2nH0P0NlnYC3kudey7QmvREgIjUOf1zcoFEqACTpqwQ84micWPW8czoQra5poxO6dy5tWcAEK84nAI9DBq8BPGWg4dt+HmqPHyEN/0sG9BHtEfjEoKNrcWp6R0Doiue6ejgdAQqCMOt/5Ue0TMso4TkTrBFVbasAn3UrEcGYgLpiyQJbrOiH9BtJWvIXcuUz4BPnRrxMnvz7ZF/qk+5NUPBAnJ5FEavyTxYLXJcLQZGjpr4IbLQTkMDOXRyyM1gcz5xvB3jO2IlWgnj1syYV5skRzJQVrDKbQQeXZaBSNILlszL22SfeYR9+ZMObwOMVfet/xO04JXojBtrRABWAN6RTBh4N8xHoeKt7W0oCwMMcR8oC9JO7fsk+96kn7Dc/+citZ4Inp5HjiYFnMsfjLCerSKTQ9aTlTSyUofyaJqAO6KwKl8T5iKiBFsvC8TATxs6xwN0f/+nX7IVndtnRfcdsNmuuNxCPue/agIcLyeClNW9OMwvmzbMN65cTv3gTC+jN1UKQgAyjMhGbqpAjKt2JMHxO9Y/V2li6C6fDMXtx/wH7+neftjaW1BkcYpZ3VQ07nAJ7/8CwDSCneT/HtF0Jm6xOp4mdCWmx1dFoVZm+3fzNURyJzMUekkOWPMAoQ3jSSgAgB9dR1Mcpt6CCEz+qOtRh42u6HnbdmLjpybDraWUsfkvXda6/eZS2JeSZRB2rkBL/RXoeLdQm3xP3xZA/Bu7vDcT/ndnEOlELZtuOrRvtsYfeaovmNxoBEb3MYngkYPgGkBbhSBVNMUOZcgpqxuCRhlCTPjpCtGQpx3Nj1I9Ap4RIllKYRNJx0CGh69T7X3z1adv5yl7WC+tkCedrNtDHMkBwNlU15JdVGtKI2qKTvr5BflfZkhlJ+/xPPGYfecfmN4EntMYt/50MPLwmjmci3dBmorZxUUudUbs2qIm2LTFJNs2AVRiFbgav2M//9Mfs1598IDxyi3+nGXg0Jr4WeEqEG0yhTPNQFiqUIDjy7dHcJZdl4E5yEHaBTjmG8vAajxy+MGS/85U/tkOAzsD1EcJBQJwQZh4zVpF1j4gf6v4+degp5s1pxGdlLuEjFtraNShPF88lgFYD+gsqj2+L+fGddCXhqf8P4vvTcb1oZ9vhes5q5D3DCNzqS8pkcXWuxPqVqWaNd95XCI8s4mKCkTjhmjYSVFnU6eiIZfcAwCZMh6Cr0cgCFF9SGDZC+iyZztWgobm9aTkPm0DDNweh6OKEg3A6vKu3/Yf/jt6K7pEfFOU+3w2w92+6DV0cpoACjhQlchHnN4UCkVdqE+EO5P28HABfvXyRc0GbN6y2OcT/EfCoGKqwNIODgFOhVuX0mESccasgBgNZ2vSYDHHS37hYRcYU1vZafxEupwOgb7OTpy/YEeq4rb2L4P7onxh/tK5BPbqcNJ7mYoQV6kSuEyPEaqoCPNfMr7HPPfkoHM9GwlGg43lT1KKmb217LfBAZTHwRCQk+hHnHVu0nK5FXwIp2F4JyyV5yiNeVhQG7IufftJ+6UN331oGoqemEXiCficGHhVFBaJLOiVKy59Ay+8dTtQpvQi3FL5UwKNgUjmNyvSbHGbIUygcdxIK9St/+Gd2/swlRlmUvyj4pGxOc7+EkF9EGZ2jQgRAFZk8gbPSNmdWrd1z12Yi/q9FlFjIlIJqnOvgYhi++ZKDj3oIfcjxzuf+cePU2UF8f47ZcztfZgrGGWtnJE5XN7BaQx1OigQeA3S0PK3ASBNRtdiehD5XwnlJ1U4kGu9e4VHLqhH5qDBK7gGqG22hwf10wh9d/X5bnOb3ekbrptfCZbFEEJ03R3TDIrO79X3hZCU6iDQILO4nzwRHAZAsYRVYbrQvXTTHY+o+eN8dtm7FYpvVVMfMcHQ5cI8CcYFOlqV66uQSjUiUp260Eqwk1bhkfMkdO9EPW1f3sJ1ta7d9B+VVfswn92q1TVm2CjS23BoycJl1DUQPJ5HhYcAINFJ4D83czxD8bcOSRvvZjz5iH3p4I5MU3wSe79XyN7senAFpmzJZ3Qg84YZ667i+kWuAUww8GqDGhq8jOeRN62n97Cd/3D7/w9tv9rnveW3agAe1sP8LzL4XwzsWtO6mxYQQRZQvk5OGRN0FcKTAyoOs6sZBqZB0M+lf7z5vf/MSC9gdPWs9V5AtIeIsZnBFZEyhA0p6iMqc1ddVIX8WbXgAfw8Cc1dVoFwmKt+82U22ffMau/v2LaxzfZs11KSsWiKseoUGfxgPpSkw0LK/Y+iO+hFPunsH7cSZ80Q+PEIQp0N25NR5litBp1PbbPUz5mFNkfISMUtHOoqKk1MnkQgWTQUgQ265S0lJAgeUQxlLT3IHGk2AjZuaXKi5dWCLjhzGr4U743+jOyEBLscpxRckvUuZBHuMYiUBQGrEUtrScUl3U4HoCWTDuWRhnVlOCODxQGg4bWpEkwI6gxl+BrPdd7DszjsfeSuLBq70sJc+g18NICW58it/GrhT9PbuziB9snKi6u3Ej+rMuQ68yA+6M+dJzOTdslaN0GbibhgM5MwZHDox0WPp0by8QZbvKVcFXHFVY5OtXVgH8LzDPvTQm8BD1U5pC4ASVakaJ6IvD/8R0Y8SnAQ8/gUepF8mIZoU4TBG+7qtjg60YkGLffIjP2RPPbrOn7rVP9MKPAId/YuK4R1IHI9zPWJvvNPzRxyPLD9STCJWSC8Ar+MiiZC5nxT+61+wyui3X7XOa6PoY/DpIeq/+1KIRfE9KE3ly5MCiUvyXYENtCI7Piws8kioxkYmTi61zWvXsRLAUls6f4HNm9nk85z4uvcfdctKXOPdKwRd0Bhpd7FSZ2vbZXuV1R/3Mgn15PlOll3O2jDOI0XM+SWtra0dXVQCMcO9O+k0crZyvYvAhY4UgIeyKawp4o6HX5VYNrGONLJM+M2PcF+Xb9jCqCXq0Rs6hj2MatG5+DpCnso5TW4JDu7SNUleQsZMaSKoCg14iGOUI5wsXywS5QG9S/hqVBH4admCmayVvZH4um9F9FpkC+c08A6go3cALFhQUKzeRgCfYdJTDeItgWm8YBfaOhCp8Mdh8u55RKxOJu72soKjxFVxORVVtbQ1wE2B5M+joiqOdoF8ZlHQyWIoJf0o3FpVbY0tn5mxzz/xTvvII1ve5Hioq6lsMfBEVOW05ZTidKczbaLIsKs/BtITveAuQTMncRwcuXYZA06D3bV1tf3Yu99mH7pvcXj1Fv9OG/Aw3oMrAXZcax4VRTSuMdYpDKVjmOxIUemY4nBUftcJqPj0F+kEehhQ/+8/+Lr9yVefRaTBUxmnjQQm1sqGmShpEX0YNUtwPLJcZXu7uT9qdURGS5ToPNlr+PUAYiw4P3D9MmEbs8Qvrra33nOv3X/nnXb3jjtsVnMFZk+sN3xbfa4It5IoDLrZt4Aol0ChmcSTFrUSVrU+Qlc+bc/s3G379x7Gh6wRa6/EPsBFITiI9Zzieel95Ofi5dSRjiOzuMKJerTD6Jr3em6ru4WmDg0cmjtc83vRM3oybDzhdBLeiolFLFuckq6ptlNplONwOyVAVC4ABUQtRVtUKIeEnHb471AB+Gg1gUo4RikOR4gyV8sC7ItZbPCxtxPr+c6ttoMVTxsprqIdqq5GEbMGqPOmRoCofqYRo82yamS2i1344zBV5e++9TSrhRyz82fbrLpxhtX7PhP6UJC2Agr7YT9OdDvQ7HvVVwG3hUoC3gt8Bgf6Hbzn1RXsSx97jz3x2G1vAk+o6lv+K9rQfz9Gb43rCp2guDp+DM/pr3S18M/0MXHCQ90dtmzpPHvPw2+xh+/bbo9tabnlPOjBaQQe+hwfEPTEHUpHBx51Ijqe5myp97gns/u6aLY41xEDnImh/N19Y3YME/of/uV37a+fP8DEUBSXjKoploYtYRaXbqeElSyJdauppcmud1xkfhILqyF8ppjfVQJANM8LEkfEw1OaPcNo34yr+oJZM/FZWcESwuvhhNYhPtQz65l+SMYVXU2+v4q+nGdUHiOfjO8e/7mt87pPPj1y6pwdOHrKThOCox/Tr9ankBJXSlHpKjRqyz9DfjRaFUMgq84kFwJFA3QJ0wFFFaWT8brS7xiw/bo/Fz/Mo6pV0tIW3qIeJCdGte0yI+eUhG+SL3Y5qbn53i1p8gKXtMd9dGk5rFrS8UjcqgSBZ2DdWop1aw16HS0wuAET+5IFswBptGq8F2OVuB6lKdEtC0c1ymDRerlgh48RHRLQaYXTuXy5h/lxBAhHJyZfnKLEYhTRAsQkA04O8Cm4awWWL9pGlkD5DCnUZg6HxzSKa83WHyH0awa3hUVNBvC81558bMebwCMCmMImWtEW047OA/D4mf6whWfGz/UW7p7ikHk4gdPmYE8HSy6tto9/5P122/pldudS2nQK2/QBD31EI7K6igBHu6BIsqR2udZ7RxQUqQcgokgPKyWt1h7np9QucBi99tye4/b15/fbS4fOYZplqGVZ2KqaJpSOvIAuRvoLAU9dS7MNdhPHlhE9iWULjy6+Cr9fQmGKuFBTybeLsC1MShph+RjZXWY1NdmW9Rvtts1b3X9l+cIWxK9qfFvgegQcdGYpPkf4o/jILrmQXdQT1t41Ys+/tNv2HjxiFzuvWk/fkAcgy6mDI6ZlJELIOQxT8ig+KAp4pmqQWJGGK9JPryQddIN6UR15fdEBJwOP7mkPm2oUNOGKiETHADw6OuEI4OJ7agiJtkpfJjzgVFMhNBNdPsQSsbIsv6sZxwKdWaDvKqxZMqlvWr8Sy9YcgAg/HZ6XlOZfVFICaH5IbdTHciBXhvN2NVuyfSfPM79qrx0HfC5f7gaEqxGnGuBc6m1wmFjYxMTOyf8Ki6TcFdx5TqBJnrX0kLzDNV9NDqQFwDAh3y7yW2Id+hTuAMtmZOyL4nje8SbHE6jh1v8GeqHtokHLW5O2VJvGf8ePuqY32BmctOST1mpLoPcbQNS6785t9sWfecqWL6i2tYTcncr2BgGPiqICBOCBoiiIOhaZFejQMTVCyyV+EJ+TNB7CcjSFkWFGObN5v/Wi7Tpy3o63XcPCRWdGn5JEiYmcAHfEg3KL5+Ei3oDJekQs2HSfyAZ3I58DUqL+mHChHU4myQidYk9D5JV8vxHxqIXlf2c1N9i2TSvs3Y/ez7KsNTirYQ1CZ6QqVXeVdKQpGFLdgI8OSMN4wHVeGbBXiPt88OgJO44e4xKdbZARPlPbYNXEgFYc6DHKNoZJXqKF9EBu3qbbS+MVvgD0OPDwEQcf6sfrSL9D43MyYVONatNRoBOOVCiXxkFHT7h1jbQ1aTSFfCQ+zjkV4jZnB3F7xxGshFJ54UKFUF1md92+FcBZwxyueVgGmYJCVYvLkcPlIOocmscn36rpFFEEwxMhR9ps/8lz9t1de+1MRzfz4kbgUOTFTTlQvKcweSfhcLRapkQ+6XYcxdX2XgZxOFQuxC1Ek7+PZuiLA1MVCYiKiIeVWM9WzK60zz+OjuehrW9yPGrgKWyipLCF4+Tf4/cCdYW7Pu+PdpExQRatBJbE4d4ue+iBu+1f/eKnbC6D0nxoZCrbtAGPxAjISDRFhv3AaehMGjZVGC+miwcQIZ1RnMIQo2Ead1lZ2gU8L77Sal/5kz+31o4+6xqAJZcZXYDD7iEh8FEpQdgF+fIMDzvwKKSo5iTRm3hWAhKcD1Yamdl1VMCsNMQt4EnpSE4q6EUKIL5gXpNtxPlQS8esXL7MFi9aZM2NzIUni+roGvElIWpzzKQQUqKeu9CD520bZviLANBJaz1/yf1S8nA+SUZ2he1Q/B9ZvvKUU3uCeyqDO2U5N8IXyBOZ9AqT+KLda5JO6R7R/mU9otyocnWfzOkozsY5B8Qnfw/yUYYpryYBhjlYcDjUTQ5OIgfgVGESn8G0iaUL5timdauIc7Ma8WqJzSNqYRPlFlekpNSWAlsMfT4oAA/Wg4vDxfbLiJoXcP6j7HgeHzuD1zF2c62KKYAJ4IK+RpNu1WbaqXFg0O+rFM7xeFn4xYCgOkjK0RBuTEHtE+RRc9ryI4NY7PGwnlNtn/voY/bhtwM8zI+SH08RjogWtiMXCvZv/uN/tf0sYawF/TRPK88e8hHVFb/4CP81+Gmng1GfobP5HfIZHokfFZT/f2LKBOVwcR96EdA71lN2X48OB0+pBFwHySgjw0OFpgIhmifR/WkVUdGMfHga0Hk+9tBb7Euf/ZA1Mz9yBnQylW36gEeDF40XdQ9vRxexRMKOnlieKLD6jwhPSxnnkf2HYcGTuPBLsaygXt/87hH717/1ZesdxarBZMC81phGYyNRRseCOq/vImoRKx9VJ3TBVd2DHSsXmlS+IxACscUy0iG1frlikISd7/J7DKXqwEC3bd++kVUb7rJ777rDVi6dSecMfj/S/6g76Us6qp+oU8pxWQB0tTdnz+/aYy/vOeD6n84elK+Y/VOIGWmcDysIuTEizgeFOBedGxDoek1BBa73UkcQ6ODTFFaJkNihwGAqT6gzpxiVFfTzYGA6V2ULDWUp87rgEuKKLFZarkdBulHkoBDuI1h3L7qxAVu2aC5m8rX28IP3IW6uA3TwS9JXKJREQYlRuoDbUnAC5CfFtJ7BEuW7ZC/vPYDX8R7Czl61XpTElQopIvGSL/qLAiAHGtrMrwWOR/dCjdLdvdNTDkQqeUOrUhOiAYmBDBZJuDRNds2hyK6A45ED4c9+JACP1rHKMxiVYMkEPIfP5+3/+vdfgftqY9VZiu7OhdCMRE3VkWz8vonw/v8HPCq6JiyLPjy0rBqZPUFcoJqaWrQQTHZi12q26boaq6e+taqHJAWJ2n3dnRgn+mzrhpX27ocfsCd//G3GuOXz9EK93trf6QWeKA9Rk6vZA5vvggsFFtzqqoACFkcrXaICcG5Hnq5XrpUAnpftd37/v9tQHh8ZTNeabRyAByQW8PCewMe5h0hk01f8Y4IEUDpAg8BHHVeAxzUHHXECsd4JIhQhgiwpRtg0I25DdQUK1bmu+7lt41oc6BbZEtav0pjNI560lqEReFbwvEQxGDbr7B6yNnQ+4gAOHDtt+1BAX+q6DgDhlIf4VWTUlyI6ha5K3JqP+Lxb3pQgbFXgVigDICRPaE3DCGKTrtGBeE4BwBxkuK8VALRpJNM0DR7w2eWlHIpjxcclHrBMoeJyBDgbUBrftW2jbVi5GPN4C+t8p33elizjPp+M0W4UX6QsnTZFCE/GBOund+86cMZewUol7qazu9d6EankdZxjhQxFGvAlox1w1Mm1Bw7HlwL235GI6RwRDa3yigakx3GgBHggcoHNOPCgF5oAPJ8DeD4Ex/Mm8FC9U9w0v1B0lJFkwKCvNdsgRjhZtR10DCGLy9HUmgr0mmPDmtOXxWmUwbX3CsaZUXvHg/fYo2+7zx59+3poBisnzTeVbdqAJzJYQfoOA44DLnLJY8/BgI4hMSASDeT1O4YnsjquBkaJWSfPDti3nn7R/vh//gWTCRkpM3UONBKOQmQ0wAgKFfAoFKoHK4rBR4TsXxdR802BjfMmAXTGAyAF4In1KXKQyuDNOzjE/C84g0rCR2iy5Fac5nZsXGMbVy+1uc3ohOpSsJskTX7FHUgccR8HGkFF0Gh7GeA8dJxOeuCIcz8XmHwqj2eVMYc1LoMrgLgeTQlQPWmM10RUMf15AY/PA0O2Fuigt0oTLM2Dn0M0GrVc3IrkPhGM2GIVW8BTUChUcXXKDb44hdF+xMWcT4dYQnm2bVrvoLNtwypbOJsY1rw3BmemuVvicuTAV8GcMi2KOIBPg8SWzmv9TCfpJmD5Qdt9+BRLS/fiTAkoyWNZICLkJQMhkFVgleAjKVkAHzdVcs4bXNN17ao/SuzAQ5mc45GPE3UB8BRwjXATLudjAI90PGvm18LxPIoD4ZY3gcdrcGp/nIbgoLVUOMTFVBT0aKI+OO8Uba7VZIvQD5o4dgYxxPIUoTDkyV4kpnRLbcY+8oH32tvfcgeGGZw/eVvOuFPZpg14hCnqTKFDqVjxrl4qEJAZlk6lkZtdZtYxwCWH0lGxkJiPabt2n7XvPPey/c23n4XTgc/IsAwvACMrkTxyw9T9oDfRdVViAJ9xovYPe43wXeVGKCEA4ihPo/g85JT76vB4FidwVKsAdOQgJ0V1EY5hEd7P65bPtwcIvSF/li1rZzj3gwrFRkAaLe9aXYtQQzLScYlD0PLL1xBLdhPqcj9TBKT/aeu8Yt1MbK2UDxBOhzkeVp8VCHtsG8ztsqbJD8gjNHIui5ruOagoj3JApLMqbrV0EyKU3AgxhUDAKgUY514OR8Us/hZk3kODbFyzxG7buskeuPdOW74I58kZLBXNZxHXDeYOLg4AwDyu9+RKoDXINBJex1r1NNa7Z1EcP71rHyIvAJghYBocKLcIjwCnU9eEeZxBQGy6g2HcBvGRunQOh3TLoCOq4LK+qxMQLwAP5nnEriQDlCxbDjwMHKMMBlWw/2vmIWp99FH74Ns3E13xTVFLVTeVTW4KCj1cR4xxLe09NADwMPiphyYRuQQ8mgqjtkhCDylUFEkcSo26riMcxoqFs+2nP/mE3bNjLQYZ+FKklFqJAVPYpg94IEgVRVsZdJy6uKpF0VD8FtR5IG75u2gSZk7LwdLBJGahGrFvfHOPPfviHnuFqQoOPHRSn+VMR9RIGscMEfcT72KXxsFHH4TwNZoqN54h/dEeg0587je5Lp2DRBvhuDyg1QCEEkVcqc8UbGZdxlYunGWbEFNug1tYjm/LnJktmOpZpwrgSZJ/KWGlUkCKogO7TQ2wUfD5q3YWz12t+3XsxBm71NmNfwt1gLjoXI10PewiBpVPnV9aCO+WlNk3L4uyFomMnIodln+F/GnyKI7HFPqUN7XGeDUBm5YvnEGcnUVYrBbZ2pXE21m+lFn9ABRJymkSlSJWK04gxoRQlK2fiFydV3t8MucJPLX3ITKexHu77eoAQc/hPDMNDjxysCwxUiTxW3K+DQAMwKM6j+pfbaCdQSWATnRPZeGzzn1y6lycqJjdly6iBsIMeNVAEQscAcwi4Pns40yZAHjUGd7U8ajFprIFtYKcNGXjzMpiQA2L42EkU4MwL47QewIc2kCilLjmERxwly+YwaC71j7x0Q/YtvVzmI7EwMPgquB7U9neWOBRzlzegriQGcfIcQqWXhr1Yfxc8glCIGBGEelfZp2s//G/vmMvEiGw9Vy75SRSYRmRVSgorUOHDDNoAwips4obEpEH5WpE8PyevAlkBDw6hvPA/ZA9HACTlZh9sRFL1EIJhNdy2prrUJiiIykMY35mgtxcovWtw9flXuZ+bdu8kfg185m7IksBmADaqE/hokJjhi8JgFQu+QQdPHrNdqKAfu75XXaurRPQkVsAYEPeZWYWiIqDU1lFGBqMlC4skAOzz3xXN1cnZ2SqxKlOEQUr0ZEM9V+3/q7LoJ5ZS3OjW6oeuHe7ve2BO9HjVOM6QDpsmkZWwBVAeZZOR3ijoGmKJ6SBoKOrm+WBDtszL7xku/DQFteTZJJs09zFiF4JG+TdHFNGNA0jSfiKEgXzZXoQ+US4lNy/E46qf/2Od92C0Pnpj4oL5dz1Cw48aMAAcYGNZtNL9JMoPDI4aDUCHpTLn2Wu1gcf2vQm8Kgqp7RBz9QnpAI3SZ+j6qXnkUFA/VDrt8lfpIjPlChWc7YbkKNKRBvsvXzB7t62zh7GjP7D73w7045wlOXxLGJ4TbXa+Na3HwzwyP4g4JEciaigAg+VgQdlMflvZ1Lh7//BV+2l3Yftcs8gbyDCIG65bkf064DBX6hX42EAo8AJBQ9eVcT4TtXqJb0gKtaJ/wvpqFdzTbfUYwEBjc6ujMaiIm5CEyfDpEkizaF30IL19UwnaGauxcK5swgdusE2b0ABvXYBSjlxIS456IsuRjFv1HFDjNQgolcP8y/a4XhOtp63PfsP2rGTp+0C3FAK0KvE76e2cSYcIHovCGFEdaMsQjHqnIp3I8WzAENL+RbE5aD/GOrpcvGkkc55+/attn0LDoCYx5ctnmPzAR09L6KLiurnIixd0nalp0Cc43amNxwhVAURGU8TxQ/T+BA6nlEsjuI6NSdNR3gkjAFx/ZKwAF/VSnt49XqK4bcuhy1qA/8R6tuRR+jDLUVyFNAU6RDi4tSyRZl1pVznmWH8tGrRS6zGaUQczweZJPomxxPX7a0eAR4aSHtW4CLQYfDQtCCJ8jk5ZoVRzs3nGfQ6SVwakmOIIIR1fd8j99v7Hn3Qtq5fga4z8K95WHxXS9xqFnhu+oFHNOUd2mlLX6SwAA/OfFJ+yktZHX2IEZP4cnA8FJ6MXWJd9N/+3T9FzDpmvSMQPsAzJuARKDiFk86Eo/BEXwjaAv0QCKkzxJ1DR93XUZnS+9p01Iirnq2N+xIJGPU1LEjYEQBp9UrNY5IOhK4enaPPQAdUB0e0ihU7t29eT+CxbUxGbbHZRD9sIhYo/QfEgZugyPoU045o9Oir/L7UnrWXXt1LmAg6+8lWYtUMG3Ng0XOh+4HjkdJWUzYKsMFuLVIydEKfpiC3ABL3MKboodKwxkvmzWL6xwq7547bcGlnGshi1hCL2GCqO9IlUTSqXVghsRCnY7uCJU5rzyv+0F44HUUDvIYntuIPZTCRKx/Sv43hJR7mouE7RaVrwUEPhIY7hHNiUhTHVUkdx7WsEitwfyg5B78T/Y6AJ+3Aw2gr4JFCnafkU5ICaNVyQyhB6xx44Hgef8R+7OENbwKPqnJKm0BHAjwTcBGnROtJHGiT0gvQUYsiCOq7CtWBPNml3xzpu2p1qZwtnlVnH3zvI/bedzxosxozxvqQHuFA+iL5/ExlmzbgkeVa9CTSEgHF4BM6PMO/exRDoRCbwGIEAs4bkyylI+H58+hEfvPf/5G9uveEDbHe0ChiVo7KydNbxIILLCYf9aWwOXdDhQYQUYUE0AlHfS88G3cE/x33FhE533CAkgLaC6EeiyhBh6CncY0jz8vs7k55dHhxHDOZaiCR63YCqMsnZsv6RdZUB/jwOVm/xN7i8U/gMlb8xLRVJUTgmgKcXybY/Jm2dvvmMy/Yrj2H7DDzwGTxSmF+r2uaCSeErwoPuz+PlMtwBiO9PVa43E6dIVbh8PfwA/fY2+69w+6/exum8QSKwMB5idsahsgqYMXEYQpTBdRkya4BOsdbr9p3nt1pr+47bEf5rpwdBTi1RAEkq+SVb2Eqd0CWtYsQFlJqK6SqL6+MbFmFUjINu+4RGeHSwkAQ1bQDjpT5qgi1nepfe0Ao6XhEHwF4pNeBnwIZXdgi7ZRzoJQBUauurg6Op8Y+8/jDbwIPNTj1TVSEUQfgGUNMF/GoreXQ6tEUaBLFFq9nJZIiPlLDhL8Y6zxvzYQSfgxx/f3vfNAevGeld19m2REATv2FXDBQTGWbPuABPURa2pQv/fGjX6WnyaPY8xq4lFGINZfAvAc7IObgXDvA89t/aK/sO2lDmNkVhXAMl3uf7CgWYsKuSvRddE36gZkRe84HAKDAEAbwKQmQyEjUJcZH4XKHEGyRCvoUD5LueScNVSyg5LXsI7RaKCA+LAe6NwKFAQDSBc0jXIA0/9txslq7fKGtWjQH83slMYAyiGi8hGg0Ckub9Oke6K6oCDlLKjj5kdZzdvDEWdt75CSm66vuJ4P7D6SC0pwOmJNSGeBRALF66Z7qqwlTsRRl91KUfSts7dIFTHZF9iZ7Wu9bdaE1ufIocbRktEhOvlKXr/YD7j128nwH0RYv2dHWNmu/2gfHlYXbop7RdWmOVUF1SDrebGpQyu5AwQWFPBVEawBQjCERrybIuiOW6k0vkQHXn1G/8XE8wZBwSI/8kp44nCJgo+D8aociA5KARyb6wPHUoeOpts88Acfz0HpG5DeVy17Vt/yHOmeg1NJFvkYd+kW3rEpHp8EF3x75YonjyULTeYBHnsqb1y62j/7IO+3+HRts/UrcQOikGTiijObRiYWXYnoK27QCj/IhWiVbvoc/XEHMcuBRprko0g2zv3Go4xKTHbCmBI7nlX1wPEVG0jSmdMzpoYAaq6kocR4+btOdOPeVEEnNPaRJSMHGygHHYg4oZCIakcmKoxSdgqNzULJrI+MqXGmeNAQKbnnTbHOFu2BUlyJY3Ugmee2K3qe5TrJ+4dZpRZZ1rU7nAYG5dvfWtZjfN9vqRbOYDd9oTYTvSwh0yU8RZ6UCgCtQSeILk8DMhM7W2vH/OXL6EoHHDnsAstMXEHsQwf5f9t4ESq/juu+s3jd0YwdBbAQBEATAVdxJUaJELZZkW4stj6XY48iO4/H4OBkvceaMc+zEJ2N7tsQ5ySSxE4+Xc2LZkWPFWuJoYyiKEneQ4E6CJAACxL52N3rf5ve79er7vsYmkETrkAoKeF3vq1evXq3/unXr1r0uaRz47v50Is+iYvbbb7qeGejm9I7N81MvFI6rKtUJNbFLqLCgtRs26qFUJnj/ONv+e4/0pyeffzk9/NT29BiK1XYd7E8j1HFL10IYyAvZYeQt+DozkDt2SvUGhU5pQYfzUtMcXXCJ2aH+ZuWeAJX+Y0cAHzQyQp3FERHyIXUTAI8f7VWEOeO3YV4FyDLwhIxJAA/fdKEr8EjlBvAMQ/H0Bo8nUzwXgYcKfJ1Ohj1HWrhC7IJ+7eQyBlU7gyBhM/UbKmpgLUwhLDg9dCItRozk7tuvSz/7tz6erlg5Ly1FA4oWftoBHufiWFA4ib4ON/fAw0CqL7PMmQXnTJVLLTmwebjDP4CXwa6WXXGYd3a+NpP+2b/8s6B4BidhsgI60wKPjIkAG6meatkDyRfAw9sUqJJGBsEq4HHm9N5vWUskH7f6ZbnlADBvcWoe0GkTxQGZ4LEwkzOOeZXBACXQpNXTYJIwQGGQewzBrUdF/rvbmP0BHlS0AQKj6ZI+pJ9ZG1/LVrZCiDdyPEEA6qSBaXE+yQW5K8C5eansD8Yz0kluDqpEC5mfB7c+GcugJ7Ztw2rGwrR69Zp0PYzj6znIee1mmHyLmkIFJUfSFEgIYS7gkTuBGUeduZv20q49UFS7oKa2pxdQ5fHya0fTcUz9DM9wpIAtcrelWfCTJ9pFaXA6ZdRbLC+pAKokVLVS3iaAxwOcLcyc5r7LtkQSW33Unk/z6+cGHmMU4FFwQGodQAdopHraYHQ6aQi2Gn10phgOHk8FPD/1gfRjH9gC9cj2/ps4MpF5eE46+TLbsxzfrQoDJUjeXDN7qdqjZt4GrXzoqPHcmO2+5XLsamE7/earl6HPCIqCogYVTTvfvxXzNmHQr8GulpNZVIeTpdesHFQ/7LuzXQ45Y2Qinjk8qNOQTUOCfV5PUKj2bZnKLrW66V+O16Fjh9P0wFEyPhG7WB+662aWWlvSAsQzFDZV+UNbTKB0rKB47Hnn7+YUeErRraCopPhDo6mawlESZJrUg7puPE2E+kueCDw7oHj++b/6LDP+SwxEBqT8HQd9QKwzqTHLJeC43MrUTlAFfrMCmwI8di2BR8+8Rf4iT87L+Sm9nmQ9UMksCxkaeXMZGEw3whgETZCisaaF8tCGlPwWcIOlFpQIDJ0p1sblUuKzk+lB3Tab1q9FgO8q7penlcsWh8+ufHQ6kxccxCJ5Noy7KJ2ClE89i47ibU+lrVu3piVLl6a1a9GieM3Vad3aFaQTpWPA0nkgf61SZSv0JchQU5x2HzyKBkWUq7+KJkAYyM9t34GMznEEG5mxMF7oxVkO6l+ZHAcUZXTgw8sxEwGu1IkdTFWtMrQtt4YBfWYLyhNoZUduBP3IwS9oqFdHkv9qvvfVlaNlAHLAKfjo4rhJQPYVHsn7EaOGBpGlArCvXNWd/h48nk8G8HDY1UOinNWiR8VZrd+Js1qvsuVPj/CYDbyyGYXDHFExcfl529t+YwtzH7/NV6MjPkAQcl30uyl2Nqed6h1wYfFT+hJxAvpZK8ATdrUQudgs8PyvP41BP4AHyUzLENQb5fj21v11S6IHUeECb2wSijJYAAp/BfDgz3L5dy20IZtRJOIqWBqVxDOrKyTBIw3GSqBafsnxY1+WiazlFO2h+cQjNh6T6OUQrpoLPJPVjN6dZRzE+umf/GT6wLtuRnyE+DQ9DYwiODYZAoAtHDl7q1A8IYdWVRD1YM1nJ6Vjw7FIzAOWgjOYBZ5xgIdmZWmVgeef/cvPIkvyMjGZseVvcIUpXHuhV54muLcT5cta9L58MIOOIebCTHBPRVVZs51nudAXRKePPNdSjS5avRetSjINLzJi3P6VKToJwy4rTEJheghLVCpFacxOduyWoKxs+SVLgu/zqU98OL1jI9QTmXFcCxROHsqtuEngF8RBDt3D3zjJ4VW2k1Fg5pZyJ7IVghP4qNhF7E5ZJqooeE0CmeqK9x0eTn9z7wPpL7/8tdAVPUanCXMzfEtqbgYqTkrOIydSXaGuwkqhg4ZAmXVgPZcKI7N5KWv954HrQ/PtOxGVe6PHK6fc51LxsDgiubUbJ6I5ntEBNdkJc3OMQnsOTT5SAA88t8H+/tQH8Gy5TEui708/+v7NFLw6nQ7vTN7g069Opd/+vd9PmjBGMwkVyRIdnlVY6oxJJ7esGbVVY3ke9wV8Ssb0LbsUsu/QvtqSsu/GTG+YszwbANRXK1REAZ4t63qheH6aIzaXZIoHQAngoW3u33oAS6IPp+/Qr3cE8HSlCXd2nSTjssKiMklblyvQkMa6s89Yw2ovsDdPOgEKPrSJxhdDDspXCVOLY5SX32EJhBMC0/BNwRrqfppdT9pfMQbqUjtrmiie8mgEwrIbYRf80i/8nXT7jatDQ4MbJbk2Ml81GjmAh370OtycUTwBPGakyqj1Fz8EnpBcViKYymKLxc6vXIjAIyQFj4el1v/xz/88gGeKOBPUNMQgs47p6KLm8+05/tq9coM1+JGX+MOjys8ZZKSTLv89PnC+ztlFi6HyJyaQxjZNlw3tMOo8h+Rsop5lndY8+1BYvgJ1q9egYOva9cvj/NeqS3vZgs87YKLvFCIEHubshHQRyFzOycA13cKzkTRyQE3R+awXdrrZHWSZBqvpxR2HYntc5vFTWOV4Zsc+xBE8kArtYdG48qxI+gCGdSRVEsX3D7+Lag3vdbkuvSt15n3dmUJMCOETn2iz65/vWN+1gWU6kO4MPBnKE0gmq5GwC4py0mMrDKIOkRX0nUKwcXCgHyshfem6DYvTL/zE+9PH37cJ4NHKBAKfAI8Uz1OvA3jigHBQPQV09HN5cgmBJqg/xTIU7pyh307ad5toy5Bhkq+BUjfKkIGHIytQPFsuF3h+BuBZDvAATpTXGvaV+7ceSp//6kMAz/YMPCg7mlDmogY83Jf6rdWTeYrKLE8MIK/kl2B9j0EIOrZBi2IgVjX3Hoh2u5uHEVddVtPsHk9NQ9lw4KcJeboZqDU1F3SgOG904BAs2H6WUaMssW5NH/3QXemWd2xJK5EDM2eFjypom2Z2fOytwlxm8s+VRN5iNowckllniwCeTPFMm2EHLQ04Adlq53GIup3+v/+f/yE9hnlhRithzNRWcC2xUuhc9LP9pbqrR/rl8rYxvLxNmI1pnvHP25GWQn3KJYXqCn63UiZF0nWSwWMMJCJQVpZjHMSbh/md6aEjae3yvvT+d98ewn6brljKThWgRbSxkwgXsFXZA8OZzStmIkDXWY1smXWliye5gQccSzNBxxn+EBLf+w4dCVUVWzmc+gJ6juWRzXT0hgCmQCiuROl533+59+ITnq2j5ucFkCzD7Ho0JFLwpsFVsSKTuVvG2IkY1XfKfe0tdB15ShrQHoOiUX6qA+CR2rGjt0PWCToeAxkZHEwLMG/zjiuWADx3p0/cfUUFPC61cr85M8XDUiuAwjwIAZZVasf8SrVJ09juuc0L+FDLhFJ3ggLwMo0syySDM/aSXRYFxQNTnngCTwsbDALP5sv7guK5GeDpBniCb0PsDDyHUWwH8DyRgWeKswZTAG9QZFZWuaJ+/QYtFNnK95F3QnO4wOJDLstCFIdHMZlES0c5i7iCE0kLS6KZGeqXCmuNJajK4DBVAynTxa7E4NG9wNEodtV608995tPpp3/irpBO9kQN3ZCykqZ15jfjwhNW3zLAk0G2ofrMoKNE4BGdHYiSrjQumZ7h4CGLkQAdqZ5dB2bSb/3OnwTwtHT3plEqdszBVwMe07P6rYCzu2ooEMGG0zX4cVt+56cm90aAR+ohqBsGUHQAphzBJ6gG0pwANKSIQCE+oGE8bH/NjMCkmwx1FOvWrML2+3p2qW5IV2KIcKmqRhl5wauhuiRxnRgj+6ZnUrS3/CBPux9CKdfjWMF46oWX0YL4CjycYxxE7Q+VFVN0MI87uJwNise+U7kAFzNcOfux4OOH5Lfon70Oy1v6OQ3rTjCTeooxFBVaxauPaAL8RuVRL3G+S7CB79ClqRuWXZm/w8BneTgJ+MhcXtA3P129lqUWwPOj71sfwDMOj4fVQ/Sdp1+dZKn1Byy1dp3HUgvAkUpw0JKf7Ods5fJQJpejATwutRoonghzqQXwcN8KRdrMjl9QPCy1fhOKR+AJiscmJ6Zsofu3HoHHUwHPIXk8BXhyXQQ/KNA6130tH5FCDov2iDhkL5ZXhDChxbKLNhNovILvE3VeLcl4Ju2lQUuBOHhT8GlauVR9OzpwGBGMEc71rUmf+tEfSrdhVWTLhvlQnRl0hF91VllXuf3sSIaSr7ca8JCrkjXubIECPMwcUAhiZxyDgFz2kKjUDuMovYqFgn/y238M8LwUZ4FGAZ0xKvtU4CFqroiqH/u75myE+o/aXb6xERtd9Ts6oRXc+Oy73PMdjzI4qG3sPAuRL8Nt7IZnNfAJ/Sbs2Hh0BK1u89keXw7D+YZrr6Lh12N8cDWM40WYFG6OhldQ0Y0jqRX7mkzoIZZU/Vg/3fXagbQdq5xPPP08/p60Z9+BMB3jkYYZz4GxJQ4nMfN0yCP/a/USyy3yWFw88w+12kjxVLUc4Tlu/Z3ybnRq2sgZ3nGRwce0uPKIyvfxdcO4fOyumQXiv7qoO8jrBEzqDDwgCs+mQNpRtnvn985Pm1d3p1/8ifemT77vcoAHPUCx1MrA80wAz2wej1LgWji1DHWKJ4NNWTpYKdRWzo/xwlkIKn4W8FQUT4TlpZbA0yLwIJ+Vl1qZ4qkvtXJRM/AczcATS60DaZql1jQzipOWjSu1m7/uX/tvlW9zZ6XGU3NaPa+AR8aeR06c6LRH5tgi0Sq6fTCnGt/gU6ziGWiKoLClwLGg4YFjUNlHkXq/LL3nnTemH//ED0L1dIT1FQ04Kn7mmIiNBespLtKP/JFHmYuvwwHy0ctexyvnF9XJPRx5LFVHbVARwEpQPACQ60+eS/U0VcAzEr9TmEb5rd/9I9RJbE8z7Ligh46LYlO5Z3KFTJ79LA+A2WHlV9UQ5Wfl5xmbbFq35+kCYORF4KxOwWWqND5li50geTMVAAX4eN4Lfaphw4qjGBNoeZsY5YgCPWLFUk6Tb9qQ3nXbTemWG67FGCFSyEyu5tijNNYtrBB0O8+kJ9kav+e+b8MLewaLHCdjOztsVEEKuSvXyklVD1Z45kvGcTR3VTa9Ajz6PosBUMpOZ6LLRheLr5uB6Pz44WbXoXGNHD7PFVXISRnoXfF9ufpN7LA3xk+XqdQWHZxdTsStBbAOdl0CeKhPqZ75UDybVvYExfNJKR6Y+RMCC9FcpsdS61/821B96kFWmcsKRNY0EJalFt8PCocyW8K4zFLNWTbLQ38DtATVOsXDlwyPpRaHisln6yQ9FOCBbIDH0wg8NBTpmprYd//WYzXg2clh3mmWWtMutSifO3ktXFaVOcpv+R1zpz/7PnIt8Oigru1fUtNucgTwRLhjy/d0tAeUN1zVYBQrkzXF8tBrEisjnUic/l2WVz+Agq+Nl8+LOLB+QmWKEx/wSA4kC3RWlpcgKOC9hYDHbDVWXwCPGbc00DcicszexGpCKhnlnGmYR84Mezmr9X//3mdRrYmddATaxmFAa8rYM0t15xdOcQT5Td0Zntae5Rin/413G9I4PcYZQmhsGz0GMY+legQXGaaRCzq7dqFCApeZJ6gimIGtgIw8hmCyo/sk9J8gCNnFtnxfN/I/q5anDWvXoAP6SkzMbEhXbGD1DZVzmLp5CvPKz3KQ8/ntL6P7eBC1o/BAEMgYh/cQ29mxfGVLnA7poVk7R+RGpI+5hpJG48Qf8qlfPbMvRzANUaOGDMBFpVb3OYS/+XeBqCpSPM0DqIp46muRFn/y9gpMZo5zWI/U34i7WgwgJZjNvUuKcfhk7nit4nDir/3sx9JPfARFYDDzJxR7oFsIPOpc/u1/8fsAD0sthaLYTp8FPA7OAE9yFqBD7qM+LEVkqFaeiAfAFEHUswIPOWxBlqFQPJvX1YGnmx2jIPZINYDn8eMBPA8EjycDzwxbmFJ8lrtFAMqVH/nI9Sdw5Mt2LGH6+d6oPC/1SzrRxvQ1qW0qlQiUjXAFP91D7nQMouBrHGHQEdTgXr35ClT93gi1cwtiH8vjyI28RZdZ+m7Q5mWWvUhX6uotBjwsy2t5s9jWiYMsFlIBPCJnnmEdKAqrBfAQrGzWAU6n/+t//9cwSZ9O+1CaJTk9CTip6nS2KxXQEDoryC/ngNwu5X5WpPrL0SnrbVh/cK47Uua/DGapm2DgQup6vCGQlVfVnxw7UnYE3LSgG8ALf0MQIliTMzLvNCNsZ2hn6pvf1xNqNzxtfivmRIY577B79+70jXvuxXbV82nPnn2pd9GS1K2tcZZUam4cZZmiSF50UsoT638oLr8XHVLwKYBihw1HAWIA8qw8j1ks19qsGomqK+G+XO5t33IZdraLR2aBf8GPwNyQUTtZdqhDyDTGOVuWdfHwy61el2PUaQ9yJmsWtaVf/szH06c+dB1og+IyGNL2mQCe3dPpd35PiqcReKAqZAZb5igvfgEbfL+Y82PB4hc/zR3/rD/7JwDkdnpmLjtpWm/yeGAe02qtFfAkND3KXP7N2E6Xx0PGSNZlSgaeEzXg2XkI4IHHk4FHioetcIEnslFAhe/wLduSVCL/GXwMq8pDuXLT8WJVrvyI+IKO5bbtqb8Zlqbodkmd0wjxomNKRV9S3T/44Q+kT33yY2n1cvQsq96FynSJJaUtn1GRh6yrSeDJdcQNznwo32b+zt8B9iWn5//S+cQM4DEidWE2zVYGHjIu8IT4PA9BeuMKPJz8iO1gO9GR/pn0Z5+7L933na3pac4RTUgyYyL3dODxI40VwU8brubyjxyj3OOXDhfxGl8w5inp1dI68401qAUIZ+sW1us1ysclF+FSOIaVcFPxnWAM+oPPNYE87QjBtdFR7AySv1r6bGG6XNA3jwOoC9JSDBCeRJ7Ha4wBNzg0ko73D8YySpEEzehoAkLQGQd8gnyH4qHX5AYgH7WO6Xd1ZSB6H5nKdROdtUY+l/rAb6wq35lVV1W72rYB4LnV8yDlXuqBvFETkU724YsJLO7YIcBmv5CJ3g3FJ0U4Be/kxNFD7AAOpJ4lC9MWVI+8/47r0oduuzrdcuVijnag1QBQlRWTgWemAp6daDwgs0hTT6vH6bsBz6yyOOgtGf8EHS75OFM15jJf8oMBPMhhUaYWl1osXVTTEcCDAOFNVwk8xCMxa8Is3P/4CSSXH0oPIBi789D+OvDYRwCdFsaDcTMcWu/Wm/kxNF+FgjWO2gJtq8w75EO2YbQ39SwYxLqNCb426XAWb4j6HDjI5sVEWr92dfrQB9+bbnrHtcFUXohGBY5pefwwfPUsK93t2A2xjphYzJeX7i0IPDaeLqqLHzXgCdrTTspDZlfqm4HndnorQm7UHXV5HOnzr3zjqXTPtx5O9z74BLIOvWmmcwEzjgy9M7mqIspHI0r9R+5KfMeGqZo1+yVO8Y3ZWLFn+tbsMJO04WO7Ul4Og7nsZsWyy5mGSIHx8X3eN06Agh0458lO0srlokjjaU0MSGep+G2uyNYEGrykqLpQzargn5ZX1YvsLhdKnEnTi+UVdWoF510r04fMLsBT8hBR7Jyl7ojns3hOWJDo1bNSJyZ1Nif/zs0DfePH4CR9fS4P7eZli0Oa8ktNwOdTxsnO3QldP835sikkZmeQ+PZMWyvcVlZXqY/DsBs3Xp6uvW5LuhMLIBtXLE4rsfkFRtMn8icEnmd3Czy/n7a9APAEjwf+TgCPWSJPBWirOsj9obGMFi73gchlAA9VQV6nFCDUSKRlDIpHyWUvKJ4aj2eQg8F1OZ5u+HiOfb8gFteAB95l8Hg47xYUj+1FWwZzOerYNxqvisKhpnL+9OkCQWmwvJa6zo1OduiD0XaCOpQioM7D6JOtlKFp5CjX4bTpsmXp5huvTz/84R9Il3GQWdCR8gZrKBHdKe7pN5TNGtGaaxTmtHzZ33N+eO283JxRPOodDodvlqxCdxAcAEHtCD46nkcfYKZW+N6+4sygruJHn9iXvnbvd9LnvvQNDomi5a5zEbIrjcBjqpWrDZ4SoF/PRDRh6Ww2Qu3DxslQE2+QTv7VkLYPzuFMVhkenQM9FFdJ/TAbATdB8dgxpEBK5/CwaWscyEOvjbM9zJtp1RQogGgdQd9KAbn0UJR9HHMjkyw/PLCpmPsUH22FSuzAJInCbWEwEPMy1raH/JrRp+spY+VhQkKc5VxY13AZVdVDtEoMxsh5DvdZeU4Hzi5qL99aXac5n/MghEPJvwPTFpd0rUDH+2YvGHiCj1u5Ag+FY1kJNcMAXHf5Sii1/nT86L6075XnoGY477akJ91263XpjjtuSjeh7dE4l6C2NYu/ATp8akpco5P51Wf2zKTf/b1/l7Y9L/AwGXDCfprJSi17tfJG3nJB6sDjc9IpwBRxgEeawisDD5QoMmhhJNJyBeiYE7fTGZwylwvFUwQIOduki6UWt99+AornK1A8ATx1iscmV5YnL+t8I+c3CJbqvoTVfdKt+r0TEikEuMgr0wS0/WocUNdUjYOwCT6jcmE9TSfT/NaR9AkMV777nXekqzavChUqfnGU3R0nvV40KQh1zAppFNPRjuFulsKRlfhF7Pi2Uwbt+VYCHps2V1+u+EyuUcPB5rRFKQ6Rop8ze7u7ZfU5X6oM64WXB9JX7vlW+qM//0IabcEsTOdigMcZ5lTnV3TF9z53rOIHnBAUgGMDxUeFGONlv9w5Kxpy/o64/Je6mQ7yzQ7RsOwiYYEpmMp810Zym9uXVPMR9VDlI3T+MBgdkAFA0axSQfZMfGYdwS1MlOAryONgsfED1x1g/M6HWO0uOslIZi6oCzIR6eRw43Lp9KIC+BN1w+8a8PisinfWeuE9bNTDYSUthSJs2wI87LDB/W32CvDJwNPMQJNhKUWnNYwmZLtGhz3l3s+yEk2DV6xMN998VdqwYUVas+aStGRJb+pD+9Q8DqHK6XNm9riIFI+fs+88G8DzhwDPjgp44O9Q15kYsLxVnVDGXCIL7V2ZcHzu7+wH8EiJEK3weDLFUwFPEypEAKHmswJPlZrvk+y3nzh+FuDh+zKBvPw+9W0u8tt1XyAyLJ5xb66lpD0y4QrL4xIdCK66ApuAdzY8jAdjHeYAAEAASURBVKEClOS7fm1BmHFRX1u69Zq16X23Ibax/tK0ZtWKtGgBwoSkarMrM2WbBLVDVuQ5TgE+fk8LKNnFL0PIgKPaHdvIUfX8u3tzRvE4b4ejMLkqRVIbm44f1AG+nb7MRDAIp/gt3WAHcsm199AUy6370v/7//15OjmDgvH2RUjfsqYmXm3w2RDWmB2KAR1LC4MqCoRbf1UNpV+/7I3+zs/1vWMAk1b1RoR91z/kRzARdOwA4QgrzGS7SQEdnwUDWqBVQ5flZ4bSZpZ8HvMUu1xQPplSYWAye7XRcdqYsXTRQfijviBVXYAyJgoDmwFmbROeqSurhfTtE/TYbE+Mckr16MhjdsUnPCeen1UTQ4SZSNR7vdPXmNUmZxItNFrw7wRNAhxpls+ZHL+FQUUuYxAriR0XciTyFORnjZw8Bk9rjGVVW7rj1uvTHeiKftedNyKtnPkO+TNQeqRtn9K5xLSveB1Hpump7UfSH/zJZ9N2jop4Ur4ZisdjOZOhXoAXCvBEC9PKFjnqIfcMCkAkLsPIs4S5fBeBp8bjUfLerdeYBAEeS1WAhwPCmzgy8Ru/xiFRBAh71ahvivEdgOfxY/B4HuSw6AsstfanJpjlU+5qBehQEabr9y2sdZj/60WYfkya0U7yXfJ4sm2ltNtJqy360RQ7g4NQMIppjKQ+9G8vWbI4rbl0Ufrwe29CodctaT5LWE+am6afc2ctGMmMQvue1HYWdeAbESH+ELNeRzFe+P3WAx4ryouKinnZCtMBDOq8sSOEDIA7ExTULuslcGEjjqXWY+n/+Td/mo6NwnhOSN/S2DLUWhCl1/aUGvBmkO/wxGQr56C0B+Un3BWJGwdPuApweJi7mJWZ763VDEDevQHgsYTReiyrqvI5PHN/9gGO8KrkhANEnv1xUFp+B0NEyw2bKRNGUkzTQcvEbDaLOR1JBoxHnnM6DoaGTpsTNSYXgKZfMkHI6a56aBnIo0tFNR7WtNcz47UrQGQyUE6awQmJY4EMYFQtiBk1CzqfZYlk0iBNAaMdik05khbIeZeV0+yyaL+9B/7O6hVL0Vt9RboeKwbqil6zekmYUY60aK4mGM9qfVRNBj/j8sjIviMznLw/mB56/Jn0yLbnMKL4EpsUmBrqXUCfcCmKMQFPzFouSQFc9AF/kxdb30yHXxtU1qPAw/coawAP8mdxViuO/JiOjGWXWpQd4MlyPIPpyrU96X/7pf8x3XrdyrBB5VeCs0CS334cyeX/+kD6Jru1Ow7uSx0AwoTkBcdaQiZAgSTzYOexIqnPfGKfn+aQPEsV53qnDqGMZWG4LI8L0JmAyT0K6AycOMa7nMxCVugmJOJvvvnGdPvN12IpYl66BJEE9+T4Qlx4AWLWguNUQPM+O/xyGwF2VvOY68w33kLAUzUoWbTCIotUWqZ6CKQx5T+Y+TBHI0OUsqi9gOqMC71SmAN+Pv3rP/qPNNJIOnwSwg97TqZoX9eOk51lUsqBhpJvompP01TkPmrLBoxaM6a1lxvPyrUjOnRLOA95Sk6jQm2SuXOa6ZFSyaBDHmMQFHAwn+Yv5y06XOS9np/cD6on5Nc6yZ2BerBT+DvKzm0tbe5PdTkhQstN5ftOvJfTMfWIEmE5Eb+UP2E+AF3bUoY54YoIxHKRCcY6hr4LhWFho8ktEwBH5Wkqzl++ZH7acNnKdP01m9MWpLY3rl/DKf6+1MW2LuOOi3bisg/FPAIAnmBSOtw/jrrYg+n5l3dxVOQVdDgdCC2Kg/B20NoMGMLboY5dCqhwzQKYZzxzWAqU8xttbimpu6jPqg4FHijZ2lJL/lUj8LDUCj5WBTxaNr1y7bz0679SAQ/bQq6+bU5F0B54/HD6AhTPvQ89BcWzL7UDPKOQQzMATxN6hZqaTY9v89284VzaIfeFsH3m8pTxow4qOjqg5pY42YZ6lB847Ul5QLoPafi1a1akK69Yn7Zs2ZQ2XXkFusH7sBoBkU2W5EBm6Mj1YZ1kSW7TJoJ11NDexsrOuvGD8QaxaCcb6nW4OVtqeaizOLOUC0V2KUgUyoKJHhbGhqZHSQDUgId7U9j69K70Z5//anr4mdfSK/tQaN4Nn8clzchI6uhbgLVLDpBC8UxWiowUHY/OH+tRv+w3SgVaRX5f34a0gvNzw3XRFNEJrdy5c8UsT21p6KeqvOQ8z85b5C9nMWeKolWl4TdPAwHMs2Xm4ncMsogtLBRXv2sIrB5Wz8yH1Ar12sSB1k5UVZg3Td9MDrHdyL2qYLt6e9G/zOls6nwM8JffAgczrE8oqOaiuRUmifIg7eymeD5NM8qqXJjk4jh6qIL9yAfvTne/+450GzPyQngQDqIhDslOMnlI5XUj66J66nBkzSnl1YNTiFnsTH/DUvzhx59KLwA885ZemhYsuzTNW3RJWMY4dhwb8ZwrkXBs6e0LEFOo0xoqtaef65GPVgMpD6qqLgN4pNAAVsqQT6eTg2Auq4o372pBZmSKJ5jLnNX6tc+kW665NPVx0HfCZR7A1wZV99C2Q+lLHBK975FnguJpnd+ThgCQaXQHtc5bAsXeG2w4GcPTwcCCmS3VGawD8sHgkbD00haa9ewydQYAH8PU8HD/cZZaKS1D9OD2W29M73vPu9IH338rVA/xXcmRlJtTZAvosC4sffSY2rgQjPwfzr4QLtdaFZMQfldg7Uhymfd63BwCDx23yknVhFFAmXWSrwE+MbOUYlNWbqGBsiVOgyEKXtlzCOuVT6cvfmNreuTpPam9d1kAzxgHBrs4qdwJKT1OZ1KuZVrKRyRmUKisy7GY682KNDe5i0VlBzUhtJmXHM4PfgmAVr25njsXwBONZ0F1pbZyXgNozBtP4r7WASJy/JnNm6i6kIUOV3x/lHv96jsNtxHd8HhUPZcilVphQgiJayKFaEBs2+Y4hYel/JLZm0Z96qRbTBDxLTR0B9oYY/t2aggAOITNrwPM1INs27Yw86IOZNNl6ZpNzsJrWGYt41zaQo6RoGwKhvmk1lWZhcwmq7jI2wAWVvbtG0gv7kSZ2c5dGBjcg4bGg2n/0RPpyHF2XtqxgskB02YU46tOdgwGkKDjAGnmBLzt7BIx15RlyG2f9TPZ5jyJPknb69shBR4v3p2Ch+WuVuzaCTzyG6vtdMju2lJrM8cN/rE8nqsuCQsk0+rX5nPajHuInVqB51uPPhM8nrYF8xKikgh9kh0OSgfFA3gLDnHOj+82yZYQfLgUsVCQTwZwC1cAPKDj4nMhIKaFk2uuQtJ94/q0ZiUK55YvSZcsm5/BlzQFcOsz9C1TS9Zv7fJbUScERmfgSW5qA3DG1FVvBFA7fdtH8pPz/TtnwDMai6WcjVIwCHE6HmGgv+dbBIjGglnGGvBwD/8VcnowPfPKofSn/+me9LX7n4Ezz5Y6FI8HBruYxdoBHk39jtPJJuT1mK5LmFhy+eXiSJ2K9YO5cq2uOvCUjJSON9fAkzt5zpv3OV/1vOac8yTybFPP6gHVrypWgE2JUd40rXwfCBxA6u+STvHLN32Uc1LyYmzlk4qgo2ZmMrMRUGAwTDojmz++r4UJaBPagJ2rJs75ADptLRgHhDM3OX6UldVBxuahtHhhS9qwdglmgDZhgucqBNeuRmMi/InIF+kwkLHJypcNcUsYdR9syhxH3ceePYfTS9t3I6PzfHpu1460+8hBlt5uSmRFcmOA1ThgpTkgz6lpTiOo31l8nQw8uazWgRd1R9niyVmAR+AIRWBnAR5lXfKRCQQI4fH85j/4DAKES5H8ZYcJsJO/JWvgO1t3py985Tvp248+m3Ye3g+Ppw8LKuzCeywoBJJyvkMYFSoiJkWAJvihFegIOC0gqspketFw2NfdkeYjYrx21XKO1qzDptq1LK9WoSUw5u4AHcUxhIh5MLM1Dz3DUoxWJCz3EgkBe1AQBISFcyzVXHUf46u6rwGPFE8t4nndzCHwSBDr7D75Xw146CDKcURu620fNZCBR3PGzDJw6IdZsx5A9/Affva/orntkTQwSgexkuAlhIY8zyRFp6k6Dl09lvM0dlA/wRTI+cidzMo1T1R65ec8kqj/q44398BjnnCNbZtD8t8aCPjTSjqbywlEjACg2fEsqVfM4LWPNaZnofM7xtRZL+7SafVhjC1ZKUkXJA4cl11+RupnDNmjEJzknQ7VaDZji3uSwY4OZxWRjrE1Pj56jJPlWF5d1g5lsyTdecfV6B5al9YBPksWtqUeAGtM0X0GU3c7yyGYtbI9WZiEnmtW1OmZZw6lbdteSE899VLaf+AEohb0if5j6QRnjdrQG9yCviYl3z2rNuZ5NTsRs1aAju1phkUwUpUXUdSdUoqoHds66om4cV/1gWgcupHAkXe1WBJ5wFmRgUqOp1A8deAZQDCvJ/2jX/5JKJ6lqQ+dyyoz65AqJN37Hnop/dWX7wN4nkmvHj6QOhcvSFNs68kFm0Sb2xSmnKh+sovMkMKiMvApr4x414rtMI+7sRzbA6D18J5GG7WfpjaDFWi2XIqJpU62qlyuyuvpZE01D3BScllhTasiWEj6oAye1RK+9xl4fOgDXcRo8GeHiUPW4lsKeOyslgBCl6zJ8pTi4Y6OoRAZAeY6X95zWZAJKokmhlmsdAfKiSZb01988QG2IR/F7tNrdK7JNA/+jlRO7Cazo+WRgQANdzxIZMrZ2FoO4LHyyIstWuXJ+wJVDrScCTxCfZIz5++5dLmGGr9gPdWd+Tpfl9/LbzS8Rx1k8KFM1ke4hudxmztgAA+/K6jKMRl0LrmUlo7qZPDELku1pi8pyotpQU6nicEzia2ecUzetiKSP5+t8csvWwLTeCVLgDXoHFqZVq9cmDB2Cv+H9QWDIQzCkV5HM8diAJ1x+sax46Np777+9PKOg+m553anF7e/mvYdOJ4G4f1M0F5wm5DpoiMBhtH2imPQbtACpMElJ1cgsW2dqQQeRpWMatvdflAAKOrHuJYc3/cLULsbFYc3eWMK0DkNeOTxAEJaGikUzxYonn8Mj0fgmcexbkGH3JCN1vTNB55Jf/mF/5Ye4PDzLiieVo7DTMH7AdZjaWlaLm3lmUj1KEbRCVXXDa9tUV9vWrxgflq2eCHGInsQBmyHelyN0UaEKjGp1NcNDELlxA4a+Z4GrJi7kfxm6RDMfgce2SVtVQhP02YCTa0NHXy4DD5xF7/rf0rM/MzovB7XWwh48iyZs5hBx78tAE+zMgvm2HLQH+Jkrgo/qCSdoDNl7VlB/HMF+41Hd6E7eFv60lfup/MNpSWXLMdIHQw1ZjjNzjjDuYMR9p9JKETI/QAdyc/4ufyXuwCaXGVFH0vIQ0Sc7y3wlJzFp2tdwF/mujzN9xFw2h+HS3G5lPlXuYe2o4NlMK3HLHEM8an/w48H1HqIKsAQptMrCetya5KOPAYzQqpBKxDd6H52YOjGIE2medZK3Y6hG3oQ0yirVixJ11x9BQcQ70o3XL8RVQssw4jrsB8Z6WegscWN68FInyKBqu8YBbj6T06kF17akx7Fpto379+KqeeBdGIAxWkdfVCznNDnlHoXS4Y2DmCOQJG5xHICaobq0cqpVyiXA3AUB4itZwDOLwtLGXCcp/O9YFNAJ2ApfluuamBS9sg3zOWwMtFI8TQATwuSy+rjuYojE7/9j/5uunnL0tQjgACHTdSneo7ve/Cp9Fdf+mZ65MntATwznF4fl1Nsc5HfNgDTE/i91EkfrIRFWH1YhvzNpcuWwbNZicYCLkwlLUa2CeHiyJdt6AaXFeuwUS4q+DgECewypqdkQONLtfIHfOOifFHGiFe7o34Mr1y9G5WQ8CO4yrb3byHgoaDxz8oRcvJfhciCv2NuvQQeek2TbHbaOt6BETTNoprqoi4RkmPd//zeEdbHO9If/YfPY/Z3P2eVelkTSxkBZpDannCXmegWquozg8zmu3mmjqbJeBMf5cMV+DjYyswXGZISI8184c2ZyxVQH+ylsSNH8dU6pBAWj0scH5vv7Ps3p1PeiAcRx5BG5qlxizO1eI+6yCnXfXd/BBoBJtRV0LMEH3XmSKGUerUzK0s1wXEPTbzMYwK5/NIl6coNazHBswVb8utgHC9GSTsDgiWAFEcLB5Ls/02c6QrqlOx63uwEulu379gLVbsL2+272B4/mg4fG0XDIjwcqKlJrimuvM0MGJCWO2qCjPszGkmEwUPC1eYCAziOFEBBO/AchIKAy7oCOvq5jgr4CE1SA43AIxzJXAbEXGo1nNWKXS2XXVI8Yxxp4XT6FrbT/8mv/e1005YlqYf6aKd+wQi6VGd6de+J9Mz2feibGkjH0IEzwzJIOR5pnnaokE7quQNZqS4onC7k0lzadlMOKZ5ulrM9bBH2IGYQ4EI3jTa0yOUKkBRUGQugUexcESkoPUnWqPiKwooy+m5u/fhLOrocwk31uwQ2/iz4ZNhbBniwlUmezZKNVoeeFhopgMdpj7oJ4KGyAnioyFBaLV1KW3L0kU4guPSkw/Sbp18aSn/4p3+ZnnnuhTQ4zAxLupA7mPdlS53+MAoFFKBDwzUTFh0Khk8WvMu5iZqsQKcGPq5/IzbfNc0An1rVGzhHLnJYS9tfpcnLfQGc/LsWNW5qYBO9oaSVu0Z+lvtNPGEWP9XljlZSrvwKhDLz2O3wzOsJfUIV9ahC+wmAQl9dyX4F1kNa2DWZ1q/oQ8n5ZWyN38DSaktadWkMOaRnoYq47KBgGXqnc26wI5f2IqO17+ARLGIcC0OD255DH/Ge/aht5SFK4NylauIArLyb6WpiaGLSaXaLmonGs2oaXzRPIcpsPqF+mtR3DMUBSrLsoAOx3MgQBfBEm9vupwAP7W96edfRSZJ6kZIguxl4+EYAj8DkzqlLLQolc1ngCUVg3ek3f/WnoHiWBBC38S1WQOxnd6NPqS3MRmNZKI2AFlPo2J6gPqylbiTUu0jK5ZEUS6FaCIrvU82lQWtAY1cWdCxmxONbWQAVkBRgybzP1HrQRPrGCsX1HrWJvk4Qzic60yqu8d6wAjTlefntK28h4EG+IGrKQgk9Ffy4hjXH9lfaUPIyim3NEzyBYFkz1E8zMwXdm26hMFhfWJ7YjYXNv/6brek7Dz6ctj35NKUFYOhgzVA8dkrte0vYxm4Gs0PYQLfTiPRVXiJPpwKPz6IjEi0aQ6AsTWHYXLmAhEg8D/v8zQiNPBc4NPzU/FhvXj7hjapMBYxKeO0LsdzKadRSclBFCpXf+DuSdkvb0S6Foig+CuxZdqmQy0vGs2E9CIkshUl61fq+9NH3XZeuQU/v8iVLmLWxp853PUUixU9jxoQLlgULxS3kYwMz6Zvf2Y6+6OfSy3tew8rp8XRoYJBpi/b3XUGEs0dhzRSmaowi0muDemiH+hlBvF01qTNQu2FokWVWFqVgVpev41JL/gbta6drdSDSowrwRKaiBh2QwlA1MPUJd/DF5dtsp8c5rRAgdJjLaGcHLoAHik+1GMgnXb1uXvqnqMW4Bbta8zyTIDVoPWqQEsa7xzvYxEpjdFWvce4FJrG4SBObXao9U3eRB0YRn3SAe5HVyFeOk8MEGF0GDMubJ9QcQCIkOg7vswm2RDPaIKLVTTveKu/Vf1fdq3pqwvVbXqv99v4tBzwO9ApywpfiKcCDBdRcJxZIKoeKGcU6ZSs6TFphuHG2lq4CGQ/wuDF7lA73xLPDoQTr83/9JdrbaYFZBwVY08p+0AEUobcj5B0NnjN7ZSG9qCofxr9C7RQ/Bmw0gpnh/QLn/Jo7Vwa+ucqtmn1yQ88q99HLGlu9ZKgAaMQk9ingY4q1Ukd6VV+JctYSqX85Ite+GuGmYU5cZk2zzPIUtHwTGZ998/vSSvgO69etQ0L2UgZcW7pp07y0atFQ6mZABkeFLeIpdro4E807pMY3YNHBOJ5JO189nrbvwvTOizvSDqSOD5zoT/3s4gyxfJNLOuXy237h+S+W3zQxPZxLWaFpJhxIhUlGcdHXHFQO1G60Pd+pAU+FesAYr7vUUn4lUzsCUG0pGnUk4MxeaplnJyKZy5q4qUsuS/E0Ak+meK7CoJ9LrduuWYblTTY7AKRmdmexEU1S84J5rnJ6JA9iQuUJgggZdFQO43a587HgEy3GfeQg+nLVT3zuREGe3YHMMaxew4gdVS1ySQHFoOAJbegtckKCT7hIO77iy5SywVXPGkJmR2iIXGVhVtRz/aCvRm89V5w39Iw5MSrBl200qZ74CygU4FGBd4QFlFtHUzCMTyKNDKuRaxIRcJnMGMiNLqMsLHJi6W++9lj6V//m37H2Z9td42Rh31uSHFIWfRzKctjXwuonwBS1VQaplWVj0Aj67mHE7FdrHAd9nv2IGY0R/jn/NLRAQzzLNts1/A5g83dDmDUWP+0+las9roWUJxXQ5BQKWZxfr71EXNPkgmdmqWvfq75f8ijQ+pbgpR/DjzqRedzKu+McNlR9xSjb2Io5LEL+ZAvCfze+47p06y03pw3rOtLqxVrPYGLHPIolcGNxCpCAy1EbDB6Z2r13Jj3y2HNcz6THUVA/BLk6SptpwnkCcJpi+myCumlSex+7QlOqhYWHAqMmgEedQzOQCTPjxGMQuXZrllnKwIzy2dYWlVEW7Rw/hBOXWHVqR0CVKvAdSx1LjwCffC8g2TecnAyZUpjHdZfCaHFIlAEctAo1FiaMKRwUz2Z4PL/xKwLPpWkxwjQzmDbW5HOzk6N9WXEDJlZYV2mYpOCnE2q9cdHn84YHadIPg0dFzrMDLoNhznQczGrPaKFehTYKbQXk0+EcIgO8bhs4phR98JdgZD1ZiZbVaiKo5uLeKjkf1/iiqRVy63zeJc6cAQ+GQEi+lMJObSNWV9zzNJZZFp5SREHg5zCbuhb1RLb8HQeNMg7jbtNSf6b60NaX01/81RewqCBpPoAYOzpXJGMxxTtC35y0U8D7CVQH2SXDaalcJXZq0jb1mP3wlQT1NK48C/o/r9JZXk9FZrTI6eeC1O6jWLXn8at65iCx8fVxgRy5g8RgsINH/dX98raDIL9iOQzlCuDIvvdG8RDqDOlIKajGaJJBF9RB1Lud2Svno7zv9JBDAWXRm3qZZuCcPKHpkwn0tLSmmxH6u4Xr2i0c5ERobcmidhigDEEw3n7t2SSFyOXlSJSa22NolNx3YCo99vizoaB++yu703F2qoYBHY5WxTGL0E7A6JiOiYi6kSfhRT6CbyEIOPjNsw3l7qi5ZYB65SV1LjsP+G5Ugrc4waOaZPB1uR5NLz/NIbwfSfAHl5m0TH6AX/xWIj4KRf5id7ZqP3boWlFgFsBz+QIoHne1OL6BIGU7k7B2ciNhfk05WdIgygsaqk00l1pCQht9sda+ZiQuvJpPsYMcClhhwMMzpa8KIpaiOEEm0xTEyw8jiVxH9rt62t6d1dWTbMxCQ/Qc4S0DPKpMiIaPLObhUa+X6ndD9uu3uSDxt0zjVPokqGOFe9J4x2sH06NPPpfu/c4j6bFnX0lHmTbGmyFW2W4dZ5U86UoZmYkmtRUqwWo/C+AhVVuEmW+GQSijsY1vxEzIoBrXYoHfRO4hOn3OSj1rZ72zlX1YmrDBb2jgWc/VVRNdTV9nJiOjRBMkvfKSwN95ADh4dPjxvQwTUZsCmLyG6oqOVQHPNLa7pjHWlq17VHEcsJEH36veJXUFO3mC2AOi+YjiT8kwnRxC0G86rUL0ftO6lZizvSrdeM0Vad0qlhJorZMZqoqPUQbUDDwNWDdQnibCUoIf+1FO//Ku/ehXejVM8LyMCZ6jWMRw8Ln17TLZaaAsL7PP+1FYC1oaotxX9Rt1y+NwhFXBJaTmx+s5jRylpFeLMeumHhOgYufNJZoqWAW6JhndaDS0nsXBAD8bAx3GLZMn2dXqT1sQlPytf/g/pxuuXJ66kGXqZDesXSVp0b5Uij2OtKIH0p8FXEMVUlQiOS+ZCTgPl4HkPCKeFuVslXVaxPMIkOKx15y/mzOKJ5N355+Rc8W0iryUxzip7A4DRltRf/ZXX05f/Pr9HKnYG0KGLd0L4d9xiBQQGsfqgsDT1DUv73BQMVJYIQnKskFJU8nmrEogS3pOMbu7QJTxF5PpuTLV+Kw2AEpj4kfv9Xe+MlCU3z6OrsZzfV0FOsUPsJG+oyMGCOmbKFfMYMKNjZ0vlVEVAAkDdObJwUEZJzHSNsPVBHnvCf4mSBEZ76HAXDFvZauIb4eXoJDU9/T4JCetBR6tm951+w1YILgp3X3ntalX6kZKCvWkXQDNvB62hEeHWTawYAC0Eb41SbbHE2aUx9LffP2etHXbs+mFV3bBv+uJq4UBPAw6nRxmCcKOlRsCTgHhYnLwzrJm37Jbe7nseBbP3xHozVw4v8mWNOAzGcBDnbEzRUXm5hLkpbTwmjmPlsYHAnyuWr8MAcKfT+/YuAzQmcKiA9NhAI+TSaY23J1j2gN0PEGfBQztI7HMKhTKeRTpjQPPeST+OqJ83wKPzE0vdQxPw7eRN/bA4zvTPQ9sRaL5vrTncF5ydfQtg27tRQkSOx3OUEQM8JHutx9znkt7QjPM6AZo2UEehqd+JSOkLcJUsr1plotuPitk9o8yAvKIyL/8W4U7Usr9KX4NUAJ0GPQM6ujZQfn4XX/rZ7JZ0rmATmacy0chvwKNQBajUvLb374HgJkWe952EHNiXbomspRCnzJsbjlPSfXBZ4PFhoRsX9qwdmXatGENYvkbOXh4WVp/GQdATYDk1OXrYdB2XlYMYnxGUzLwcLD39eLLB7h2pu2v7Ewvch0+NpAGRth1dDcFKnSamX4CdNLelwrM+ENOTRj33YCHaLk2jBtvzNGfDDwC/xTUn8Cu/bfgxgjYgThYD6H8TRz7mBrBFDA2x6/duCL9xq/+XLruisWpk7bUJnk2VdkAPNS6wCPVp4CnbZBZSGWCOb8iXQSeU+rpQlM8HoFwsGhp0k0NYeMYM+q2F19Lf/CnfxGqLg/3czalbylMSZZcRAp1BGxzNWEC2Zk+HIMtzr44SwE0wViO7VatG0Dus2ZWGFE1rLrZ/drufjZXxayixPInopbwklL25TcIKNm3E/tivgIsCvhEGhk+zIz16oSYOxwVEfmMbktM81xdFfiYpOZtlFgNgIPZKGCEdkP4ForLxULHJQWzuuZPpHSWIYJ//dVXprvvuiPdfts72C5HUpaJXle+5r1SVhPTLq7g60z2QJHOoCt7T/raPffBz3kyvfravhDw7EYpVxfHXIagcoaxuTyi/AMgZHsG6ECB1YEnkuMPmbdK4olP/W2BSgiPSrUa7YI7vylY2PeoM5fvAIVL1BB6ldfDhKbWP/VDawK4r3Mm3bB5dfr1X/5ZxAoWADgIBrL49DItqbo8IbhzJuh45Tq1C3guzNKdr7sIPKfU1IUGHoXDAnggy5XtUEmYS6IDnFq+/5En09fvfzh9/b4HoYZYg8NkbsVW+BQzlMKsQR7ZlnKn3fmAGdembIhBbN+GODmDsRWmcnNF8uel0CmFqnWIUztG6f3F5zOzopTwui8Jb4fOHdvOVhwgE9FMoNxnmsgYoeEw0iZSAZ3wAZzwCS/UVQEfwj1ZPsmJfhVHtSIp28lg6cAg+3D/kTQycDRNDh5Lyy5ZyLGGlenG61DItXl92nD5qgCgvj7lVeDCsIRqY4tbpQKCj9kYRk9y/0B/OnrseNrF9vgDD3IGafeJdPT4YOofHAJoFIlwWQG8UffijWIPUjwKBbYwIdgsEhAUwD81L0AmAjLoWAsuB6NYxG18JaJd8D98QQY7/MAg8WLfyXUkQEOm1UmkYFKnO2+cTRtFSf3ChZ1oHlyX/uEvfiaOTjjdtVFHrTMsKQUeyk4HpAwKKSr8yBKTYhtqgS4CjxXxJtyFBh7F8kOYjVlmisZyHpKsH6JP7D08me759iOcgflq2r3/aOpnmdXVt5iOzW4XjStJL3M6drd4XzkPVaTazVWlIQWkzIfWGVo8bsEgzVz/hgqIMRFdvSHw7LfVEMqjM6LVQqpfeSbNwNOYLgOqIapDzpFYY7w643tFeAU2BXDwjR2plUQqTIvT1Qj9wbSBoQ6RzxKpDQncaagbd1w03HY1xxtuun5zuu2ma5HNWY0ScLdzMyiEbhvQtFkD7tS7uXdH6tDho1A1r6UduzjICfX5+OPb04kT0KO0kZRMUDPUuW2QL6kkEnAJDMWjpLlqTTLwVMXCCxflzKDjb0FHuLF81oeuFDN+zMUfdzzdgncmsUzy0ljCh80yyqWhRtV6jJ88kkYP7UmXoq71XTdtTn//5z7NKXXOk5GnFqzjtcJjU3Qj87FsN8ArgEcxAKrDvPuJixTPm2vFCw08Ll0UhBpxu4TO2oaQIRR7UD4IsHL+ZSDdC/j8l6/fGwJpHT2QuXHNz2Z9OcPjgVK3eqOBpXwcsDKcq8EcCtcJt0vPplga6yKGdWNAvuel/CT/rYaFKZ0StzxXpkSOkrOpziEVX873MbAMs0tmP8CH/MaHqudRBu+5Gr8Uw9NP2ZF5x8ObXYoSsCwaGzqRhqFypoeOoa5ifrp642Xp3Xegk/f6LSjmujz1Yj7GTQpBuUMKB7Axl14ucYe5GUBwb/+Ro5hQfiVtffKZ9NSzL6S9uw8TH73YKJgZgmkcbBDaqrN7Xiy3XO6OItowjqyVVI7tGBRm5D+GHoG6XEcZYDPYRO1EcH5Wdr7mFHj8lCIIUMMytprZrAiKxZ0H+wz9R1tTHfB4RvoPpbH9O9KGq9an99/5jvR3fvLjacMK+D8k4Q5hyzQUj9ST7Wm/q2QcssxYBh55+iE3VMpP7O/mLi61TqmhCw48dk7aWgXvkuqhvoAgxTkcDEeRE9lzYCB96auoHHj0Cc7/HAv1l5L4Uj5xtIIZdpJOo2WG6ZhiGYgMhiCZnYG0TcQgVSahcRicUrTTfsYgj1EfPbV67v2pLs/WFkSyW2onW2c0nl+kXAEf+nbZXM4yS8YQrCXLB/1mReVk1Mnfz6BT5QWejpRCJ9e0u3kTQ2zZjqbF87vT6mXwca5al669cm26auOatGo5J6EXsWsjz8ZBAvoqPzMJ5dKEdj/rGa0U6dmX9wD0O9Pzr7yadiHasPfQsXT46AAChmNsanWTPkxTEMEqDpy0boP6YVkRTGQZq3C3RA2zCeUQSMdtdgbi3FqOCJScoAAfg73oD9k34hy5+IA8MSgeQVuZMBky0VYAinfkox1ycuTEQYBnZ7rlXTelj7zvtvQjP/TutGZJxTSGahJ4oq2jvZjcYuJzqZW5fKZqgS4CjxXxJtyFBh6zEo1DwzlbjkLmN8vUY7x6QFQK2J5w30O70/0PPpq+/fBWJGQPpaMDCHZ1zEvtMJi7MPEbuymMqRF2WHy5qasbvgWSpAyIMVTdObuZrmRx9UU/fU6XZ117qc5hX93PIpvqz42VZ/A8mwetHZ1Z8LGUlKv6XXw7ex14SlpV9PiO+eVy2mzwZYoq+NcBb2d6uJ8l1hQKuOala7ZsSLdcf1W65QbsVmFREq2ZIY/jzopWCixTByejR5HPGZJCYZkhlXO4fzjd//CT6YHHnkpPv7AjHT2B+RSYrS0AU5siC5CU7Sw/2uMUqG2FpVPOUrkbKa+nncO7zSxpXWqoXSAPapdkNqDOslXlawQeQutLLWqP/EV9RKfwvTlwkZWSRwX14FMFGQelQ1nL1ncbjHkpntEDr6aPfOyD6eMfuSu95/bN6RItSpMtVZc2S/HQLk5pIcogGLt0wwnO4fBrmw1V0HfzLlI8p9TQhQaerIKTJQOHFF1W2P6jiLzKN2jDdpETESupdHwQUyc7D2AW5/4QVnsRCdlBlmdSPl29yPnAdPZQ6eDwGIOBGQnQEXjkNYz29zMQ2H1A3sU5WWfnrrvG+xyaQcf7eu8J4AkwqIc1Pjd2LIwEPtMXPemQtav2225bgRFhOS81WLNH87xc5DdIeRmY9XuplykGxczAIdRirknXXr0p3XLjdemK9ZehKhOztX3dIYszAzApWuDWuHkNgT6+bT2fGJ7hEOeLaSvXY0++mI4OTsBHm6Fep9PQyDTHXOAZdffxPkthlnEtDMQ2VDlogshjK+Y7Dl9aFgAmqFUqTlCKUUd72qbZWWdVvZ0VeIhB/LkHHtsG4AFMpYqD9+esx+TXgWiCgKLUu6cKxwaPpOEjr6Wf+cyn04997ANpy8YFCT5zbj2Bh4OJAlUzgGM6QfHwZqmCKLLVEO1Zlb+qkXN5F4HnlNq58MBDB7Dh6LiKrNN2GXgYGapssIWFCi+XXU8993KceH4MCecXWRIcRI6Era7UPX8J16I0MDyO7SUbGEZzzMKdMAjRj4Lt7qY26Qw5GrpM0utnV3w7fxVUBkr4pFkDnaoDnfrbeFAJMR+GT+aDZKNDNoJOhPERwho5OPmzAk4psdu0MkHd8sU37+7EAEDNSNReMq85rV3ShUY8bI9fswXw2ZyWLlmASkyYu3Z0mJ/q2VGfciuMdweD5n9P9I+kQyyhXt17LD342LPUKTI5OzC7i1XXpnYUiLfMY9naEtLJgnlLMzJA4yeoO6R4GaieC5KRb3tZoxlwhMo8vHKZqN+qmnJt+qO6ZgEPMENEWyMDzvcKeMiOFUIZgtGOWIeyUJ2cj9KsTJMiCdT7BPyyoeP706/+/f8pffqTH0iXLkX8gHmDliUe/RbgCeqHjquV2YoWCgJVNpwlDuyNycRf5+cuAs8p9XShgccKtoN6OtoZQ7CxeewTY8rq0BkU1cGaSWzZco4QwDmRHnpsG5Kz96Ynnnkx9Q+Np97Fl6RFy1diLHAyBtekS7ZKmtbBN8MglOGbmb55iNvRTwceO35DcP5FAKG1pU+5N2a5fMl7gCdAR3Jb4Kmucl/5Ds58gFMAIiekbbcVdMKuUoAMgCMHJoBH8KkACPBpAXg+9v7b08/9rY+lFfBv5qORqwNmsTSN5+IymCu5nYV0hLJhAPnA4RNIHe9JDzz8RBzo3PUaMzo6HNq7FpFVVJQ2oWQfbYAzSvGiomJccnNmCN3L5KtpGCa+lFdunwCdqEPzTTkcYc78UhGCEiOvnCsiEeJw6QVE5d8BMyZYue8ZxWN+/azAw/fVg6wAZRfLcUHHXcJWgXuU7XTkeH7z138l/eSP3xHaAW1ZolbAk98TdDK1Y3vzX9y36rgPPLoIPFULv0HvQgKPWXAARke2lWhNKR+dYVMRRoMSpNyOywMlm49hnWAvysHvf+gxLEw+g2a7nSwRUN/JgVOP7bktrxBbSzCfYTzLdIZ0ji1uegTJcEXXobOQAztNNex9JuhFBowZ0xW/pSBqFA73VSq1sHhmPAa/3Fqlq93hYEkSBbAQAUJ8V5IqCs1jP0HaKtxSynqaTq8BN88SwS6Ps0QnMQGsHatujjBs2bwxrd+wNq2BYXzDlWs4sHh5HFjU4KGdfwJQ0iyQIgSmrEObDPpxxgGaJ9mt2gWP7HDas+8ICtb70wByC1OYr2kJg4qqd+CMFUxkt5hZoMVu4QyA09LKYGyGR0S+rZ+ookg/12P+FvfWJ5NF1BtxM/CYC1/yLZ20UT0Fw/0d1VKlWac68xsX9G/+UHQoZY5UpjWN3Jfn/rSEKr/MrfIJlpcd6pdGM+A/+KWfTz/y0evzNjqZcZKQYexmQl4sQ/EYGhm3ffkv8JjxHJmbUn4D3x7u+/LIRHRWOydtIACd3jCG1bup/B6HvP44L73w8on01PMvpYcr8Hll9z6WWfQfZvkOeBPueMHsgQIQeHyTL8Rg4CYARXCoX2bEQRXCfBl96DQ5D5E3waURfGr3hEfO9CvgYTmVgQfAEXRy78tFtHOSvksM5XA0R5sVWUGXADwuC2c4LyVPBdFZlHMNQtF0pkuXL03vu/tdqKu4MW3ewOlxNqrgHQNeGNQjHRV9T5DumEs4lkIQiUiBwzjmcNUuGPJf/so96elnX0bPMUaKPPip/O2MMrhQN1A5cXmeWoqt4urHxIDd8xmWW9NcPODKsKGf67HU0am+cYszg+X3KcBDmlZlwYNIvyRVXr+gPokLClRaM4rlXF5NYiZGzWbN1H8HwNNMGwyxo7V0QRd1vSr97N/+8fT+uzZEL7U1zV4GnAp4yHzW0hAok6upynPGIvt5Kf8FLcycJvb9CzxUW+mP9e7c0EDRIXMTF9CR+mclFfI+MkMPcMbiwa3b0Hj3SHoOK5SHwwhcV+rgIKmHF2Ob3cEYMhYVCATw0H3oFWJMkMb6ftorupaeP4gnaQIIqXIzSGd6rqo95LfE+ahg/JpDSHe+KeBJorm7EyadJdcCzEyL5SOJtJFWqxfpTIwMopBrFENx2OVEYfrxw5jBRQJ58cIeFKtvhH9zJXycTWntZSvh4/QxWFKax9VDcTR3oqK0GRjpMyxzVMfgYYcdB0bYDXwsPQcj/uVX93GSfF8aQDdnCxLgM57wF2ycw6VwABsPpDaFT105kGIG5xFKsqYVSlQZuo70a/VT6qnml2fWW3HWk/f+ydRN/b4K9xHplqezkjPKBXV+SICgHeADtlP/w/0nqInptGAeR3eo/3GozNGBI+mqKy9LH/nAu9IH3nsH6kIWRbbym2Y3c7Xst0U1TI3qyUXN1eTn+MZF4HkTjVgohzeRRMOr0YPPDDzRUXPU2rrfpuYVNyCC9UAPcJC5snlxxyD8nhfi2o56hv3o+vWU9JjLLAaUPIsWjl3ox4ACeEKvDb8y6OTfokqs11nyuQyL5R7p23EKVtHL6FAu2cykYOOo1zecAevBVZcbUFphCQESPh7z3DTV8ucmkxwZ2bOS95MoCA9VFTIrWWq1MtCv3HAZZmOQxwF0NqxbhRWCFVA+StSSNIXWgAcbdWHhROCRChzgTNWhwdH00p796Uk0AD6IGeD9R/uhfNCRM6QcD+Xqwk59LKV4OQagflV+0ojln0Xxqso+zQ+vcAbGk/zz7PdVfKPVEd0aNyCuSMrnlStPZiVfHl4w369m5ngzE4SCgGODLqtSWoIc1DhCmKP9hxHDOJrec+dN6Rd+7qfSlagNWQ5jWSfw5DIU4DGMdhes4yJGKYivcF0EHmvuTbjvLfA4/9loNnO+skkXBhsP1Akj6LiictiP0tjbd45ymPHp9I17v5Ve2P5S2rv3AECgjMl8mNQLGGexOCF29AbShZqis0TXgR/j0YpWgCO2jAGh0AjHoFEP0ZTUTVA4smr5IuATSsfpZ0EJRZLERZWE29i6/JweDR8h7ClJMfFuM0xaDpTF5Va/NjOnUA97Yv/utGARAoBQN5/+Hz6R3veeW0I3jp19HMGmbkgdjhAF47IAg7kfo+wqGt++czg9CgD/5698I2199sU0ge7i5oVLU8fS5QC2AyKXNS//eNEBoqOMRSlX8C4ob/YFnHwey2OnGX3zK6f/Ne0GF2nXPlA9yG2aP5yflbdmxSyBDclduFvaQOANwUFygvmamfHhsAW/UFUgbKGPwVCW6vmxj384/V+/+wsBSraBzqzZhrnXCT514MlqSKp6tkA58kXgoSrelJsL4IkMVb0uzyS2V2M3zL8KAGl5AGIiwMcJ26WPA0/Zwf6hmXTkxDBa8Q6ll15BfcPL6P1lmbEPiwfH+1GDMMOJdncyAJnYwpcRHTwYZS/4DukIRLEqIhfKF0mlyPdRWau7RVkZWgU8dCy/T5Q8JuEPTEGxaDO17FRF3zNhzwdBqgg0caGqIuSL2EFZtnh+WnnJ4rR29XJm1zUYyluXNq1fm1Ze2suSzAUcnZuzWK1svQQTmgNt8JBhnCe2xpFxevUEy80n0vZde1hiHU4HEbBELAcNjljqoDyCjjJNQYmRFXlbiv7F4AlyjISY+d05I1NQPfAuvIilMb64tLwQIyla7Nx/+EbdlR/Zn9229VjlLmJZaXPmqFBq1KV3SCyj3nRmYjihhDEt6mlNQxwKnRk+nlYu7Usf/+EPpF/+ez8KiWm/YJIjjtoPot6oFUIrbIGOpp4z8JB5O6aPLQe3Fyke6uHNuLkBntzL6h3SHJZOWu70icEIn4RfIsNYSWQHvcMnzOAwZmIjiVHqSmfvwan0yo5dqOR8Ad7PfgDoKNvtSNYicTvONtkUaai4ybM6oU6VHiIP2l2wCc4eCTaa8G2GbxI5osPF8io6Hne1LdLcAe1c5qYZgbsmdqEgcsg08aBupjiwOsnMqvSw2+UKMnZBunRxZqob//I1KwCb9emOW29ET866tAbzMX7VJF1WtXgAVOG2iuKaQCvX8cHmdIhT/C/tOowQ4LPpK/fcS5mPpJOsQ7uhcroWLEkd8xemE4PDaYgT5U2qqrAsjqBw5rsCH4BSWaHYkgvAycDjzJ6BB2N6MqFPBZ6SVE7wjH/P1K5njEhgLbmoy7PFerPh9jfrgfq0w3iUBAZ+F+22CPTpP7g7taMA7L3vvDF9+APvTh/9wVuimjQN1N7hUtx6q9o8eqXYcgrwFOrScgQORc95sxn/nr//fc1cbuzMGYJy96t1wobqzlRP7qDyejwBLaUi0RKES61LsPSCAhpm/aWemL2HhpD/OcggPZR2AEYvcQjywIGD6WT/UEg8d8IQ7mYnTHUOHhgc8zgA5ERQRQxWwadFhVugSbN735FRD6cKYF4slbh3O9wBrCKtNoGRjjnNs+GhwTQ5jKIhNP91co7h0mWL01Wbr0hXXrEO2+Nr0kp2rJYvXQQzuRcBQIwxMB7472QZTksQgtc035rkkCeKGNPjzx9I33r05fQS6ir27MOawxEUtiux3TMfyg9LnKxHmxAAlB/miG7CLI1Lv+A7VSCZgQdKrggnxuJVWSKpHf1M8eQdsDNRPGdqpcYWrQpgBk5zubVL8Kyh+T0CHq3VagFCnk4nu4hLettTP2ezFrKF/r/8/GfSO2+7HkufHEymMdgoBKgEausrl0ffxXMAj751Tn/MuIRvEbkkgM5UA6Xsb1X/+xZ4bJczdtP8IJ6e2mAyfD1UGjIiUEAuG1rYEmVMReM6zlyKxcROmFTRCXZL9x6a5joJ4BxKr6HIah/8n/0sS06w3TzISB6DbFJgToqH5ElDYKm6lrwZP6Bv3uJbMI9detERwwqn1APg08KM6HLIZVEb66R26PMuOMK9PZ1pAaCzYvmStHLFMkzHrAjAWbZ0Iees5mOVU4qGT3hRknaXVXxKiikuMqUKkQH05GyHyvnqt59PX7z3qTQw0R1MdI8qaFdJtRRxdIRB0ArFNuXums+63W2jMiShoqYcRCz/YjBB7QTo6AM4XoBPjue2OxQPW++nttVsaobH5+kKp+f06FVrzzXwMEsFtcPys43zVp53a2G51YWmwR7UmV7JObdf/oWfSddsXks7YHoSzG1lIlFBmkvU0if17Q7nBh5q6SLwnN7UryfkQi+15J+cyUXDxuA+/ekYBxyHsemtCV4Vf2mMrqQSAm4BGMIPncL0maocahxBCvGUGMz81kLCrl0D6UmWKU+zHHuJrfgjGJ5T9UOLItIg1gSi9C7rJl0uNVzSAQ5KrWbkS2pISeEmqBXy5HeJ3wP5snjRgrQRymYL1huuu3YLFhwWIx+Sc6xg5NBJ9B/Ts9X/MjqaTzt7WLGDcsmQlsLRb4cas/4P7N+fvvqtR9PnvvJI+uo9j6eO1VvS/AWL+X5bGsLOzDBLK0/nt2AWqJsDtCNY2JuEE9/agxoLDnoGaJP7mJYDdChLLB8EGq6GpUQAT0hiM92HD/DWhl0kctrvHDr7bxmoJB4PTgcew41VxZxj4AnVudSXir+mx09i6RNqFYHBoaN7042Azd23X59+6sc/CrUDqNMf5kEBtSEZLvA41Tgd1cuQKR7p2+Dx2DWie1Ami0Vf0LpJvQ4Ie5u471uKx0YpXa7WFgSURip+7Rk3xQZRqLmIl4GBoArYd3EpJGWCi7+QPRNQCePMcFMCEL6UkJf2oUZHp9IxznsdV7MeDNmTJ0fSMAdN1Q8kAA1g/XIEoHPZNYp06zggMMFulAxmyRNnQTtkO8rQ9bsArEXzFqAqcx72sdvTPICnr68nzZ8/jwufw5s98BEgRIJpbPkm1QsDdSE/ReN4gowzqNSN+Wx1t02GOEAoNTY4OJhe2Xci/af/9lj60y/dl47Dt4JsSd29CE0SV4bplOtQts7bkMyV4pmCkovdO9LI0uEMBPLv9y2Hq4MYTBFGKH52+lV9lqB4UB92JjJ7WOV3Inq8mt/Pr5f77OdvNN6bmDFz7Pz8Qv+VemWyAnimtVaKeeJOz/GND6bx/oPpkz/43vSJH3h3ugEdPIuZIBR5aNPgn9UMMGfg8T6X2h5se50ZeCjbReB58w14oSkeGyVc5ZXuVvxz5ThecanD0kHeh8uRdpdcmaubxwsjdxreyDg8lxlAgjPdsYySj+PWeVuTxwTsWtnJD1Gh3yBHCQYHTwJGAA/MonHAYUzzvgDPOMDjEqsReDqwkCnl1Y3S8MXzFqcFXfODPO/uboJBHX0PcARkIChiroTScBmmSgWnx3F2uuQVtUPBtbgM4J9g5zvtgIfd2vu4AJJBdrW++ODz6Y+/fG/a9tLeNIWK0hZ0H3fI43EmF2iQzC1yJU0wOycgrwSfVp47iuSXZfGErAXA35pk0eeDkQf9zP8RGF2GFcChxvgfbZCrLp7lW2szP4nYcdvwO2KWNyvfb5rgrIufc+KoXZnKUU/UCdoa1WXUDbj0YTLoZ3/iE+mTH7kzLZkHmNN2ii/IgHZJ7To4A4+gk68CPAE+1kk0KeWJasC3TplM/Pl2c9/XFE80RtX/Ghun8b6xwaQCpAbsqzanOCO1EOSBs2VEcJDgYhDxjA4jkeyVO4xv0iEAoCkohGmuLFSWt9kd4IzvAIoY7H5TEOOy63lFz/Lb5kMqi/9tSAPTVz14EEKChul4PTt/2zOjd0rRCAbs0PG+6XhY1nzZ4C3MyqpbiF08Nfwhrt3d1ROANULcbz13JP31t7emb259Nu1BRalxAw9RC9KJHh3EFAFdM86QgPqJKZtQay2Ax/LzUc2wmL98T/TIc86POc/b7gIPl3UbzlzWXb43rs6/JQS/iljeKH5E9WE85w+vxVCufSMnU9LMfi3p/Hr1xerH+Xm1hOCjuVwHVAYO7EZZ2rx0+/Wb0qc++sH0vjtWY74mt2HgDlvu07RVM5OFE45lMJlclkzxOI0wvwXYx0O7SHSOXM+1z55fLt8Ssd4WwHM2fs25ajA3RtUzq4izGmj2o4gho9Sljo8c79WY51fuCjH6RAsj2PCCEZcsQSHDB6XjuCNm1CJEmOV7HJh1V/Jzql+Pkb/s79rwrj7vGIqrimx2Sn5CGJEllsCjugmfTULlyKcKhjlLQ/1YKkEqucxSiVcru2ps2KVXjk2lJ3buS5/78tfTtm1PQ40BTuoy4mFHZy/8HA5zwZfR3PAUB2inASAWFCwzmO2D4smZysssRwmZBRAzfFgAS5xLHTs1UaHV7/xq/a/BEd+gAkDWfUmh7ueXrAhceNU9aWgGO3A5PwUMc1rhR1pEMnr5ln4AFXUGWOvq0uKEwdMCxSOcTgOqKuoAvwaKUw2DkwhtTo+exCbiKMYMN6dP/8gPpZuu4SDuKsAEAseaEmtkyNuDIqnq27neIjNkh3x7RYEjo7zks+zluPnnXP59Q2Mw6u/Mufq+BR6Le7Zy21hnc6Xfle6c5x9j07lw9Vfz79zwdOLag/IGARHog/KwPDs9b/X34zMNf8p36bDclpQaItRvI/M5fslv3S/RGlNoyFuVAc3ksiJM8MfTv/2TL6R773sgHXN3DhUhw2Msp9CR3OLVhm4dgGcM0x3jnqmQ2oHxnFU4+DsDTCyngqLJp/iDuqmWVg4/uBzE1XeAcVvVs3c1RzYL5BgW0SKsxIiQhsppLCPBkFotcbloyWnVAIeP1o5tmAEiZEXtfFEyTx4Z1kR0MzAJ9jwhAAAWGUlEQVToZ7ReAoh7CBQSkVBe0JQSlLL2snqwwDqvfTod27cDkYrjCG1elj76kQ+lX/z5j3Lan1oiSQ6ox7EUzf/kMufvxMQWXzJZc1pd0TYVyEVYqYNSK1X5y7sX2H8joGMWYnf4LHn5PgeeuW2Qs9TpeQWfq1HOlsAb7QBnS+9M4doH84jIEDzPl1/bH/p1Pvsf/zNS2+hfbu2FV4MuZS9UXkwjcTyNHfpm9CZDWzH4rO+YxvEZTHExUFXHwf6fytJCNYc+z7IMT3WKvRpQp+epgHpuy9KidaCuQvIIPv11QpqhyFqgzFpjaciAIK6XS79peSveB6pLEZJedYU1Eci85l5MIAEyMwIMvDjBp0mb6FCOUVqoRoGnE+BpGT+eJgb2p9ax42nh/N70iY/9cLrz9ts4CLo+zYe30wX4IMgdFI8yPAEnFgE+Yq6vxiJUwEObCEJGs9xViasai9DGly74/Rvtd+fq4xeB54I30/kleK5GOVsKb7QDnC29M4XLl0E7aUI7aexyP7t9X/rDP/6z9By6iQ4eHQ47ZJOpi1Pr7NwAOuylQwFxSBbgccmWF4UFdBwULvEEGqiEAJ6KpxMLVAazJ9iD6pmdmzK4GvGozO/GzMDTEOIYPYtT+M7t6JYa8Ph+fpegACB/+60MPCbEczcWoG6atKnG5kKMeJZUag1wqRqgwTIrtAgQ1i6IDR1MQ4d2pNXL56Xrrt6SfvLTn0Kg88oQFJyPNQ6ObJFuriWEy3PxJM0NlMIKVwoTGSKkAh5+Wi/GMkaOZYjX3Lk32u/O1ccvAs/ctdc5Uz5Xo5ztxTfaAc6W3pnCBZ5yMh/1OqiFHUn7sArxuc9/KX32c19M3QsuQQ/1QkAJjYKcyJ9E+M9jJSHIVFtqmXIeEMFAdrkSyy19eWjZd0DN1JjTZ8hNNdBmP2Gg5xHHF+oDroTNjpt/ySORxyMA6SJnps1VDgfH0obfscIxkvfwcZoR0pw4cZxlFrq1uVfZfzeK6SdYdk2yGzkl9QNvR3UkqBXEMschTqHvSx96z43pIz/wwXTnHbelFZcAXOCKFI4n/wvwsBlaX15K8dSAp2SAyGbEeiJjuUZz/g3V1UPz77n4+0b73bn6+EXgmYuWehunKfBoAohhwNksllwwfEbg4dz3nYfTf/naN9HKuDsd50E3pp+nVGGKkbJheTyqxWB7ntE6u/TBaKsAh4GVgSf7NQSJwVV/LeCkjKx6cNzlZ/G3Bjxni59jOTgr/phIYyCDWAySrxRb/H6/4qlk4Kk+LmOeaxqh0jBlZDR+K9MFV50L2gPfZZZqcKfYPu/rmkzrVvWlj/7A7en9772L4yrzEeJkN5JXIPyCwe02OjKhsWGQD4aSqRrw+BGL6p98hS0t7s16lCme85QfDaG+NCfuIvC8zmo9F+K+zqT+u4lesz9GicUTjSAi84hO5cH04s696d//yWfTkyjG71mwDCXunNdiqTQGRxrWKiOJ82jBvagPmlxxMcQZKJXv8AlActHg6OHKQypHP8tfY8VYxKtRO3wqws/wTmN45KgKyNRDySOIEGiDT+Kxe1R9JC+hWERiAUPFalMIek6MyWDGHhjLr3ZASAAZGxnGWga7WOg+uuLyJemjH35n+uB7bsCW/Ap2AzPAyEjmVfg7Y6mXH+pNUqOAEumxfcpSrb6IsjBV/gRJKR5+F9y0GDm3xIp6bCyp715YdxF4Xmd9XgSe11lhRBd45BFL8djRVX0q8LCphc2xsXTP/Q+GBdb7H3wsKB5NP7d29hEXcz/I9qhbx631WB5UwyMGM+k4lHT1mdqvcKmK9RzOfDS6AJ0q7ExDblZYxDOkXKZUhm3OZ0V7EB60UfghBqHsE8zkrgULkMvBEi121AQOzdQs6J2HP5lOHEXHDoYPTenKK7CwevvV6RMY51u9HEX5nJELmVMwhajxXit8oG4k0V1WTaJRoIPlW3Pwj4gUIFIVrKLAMlQriFmnbayP4IVbkovAQy28CXcuyeW5QNw3kdUL8moMxqqPnVeCjJvaLH9eL7zRSBUXxu+RP6FB8NGX4fzSq8dQhr81/cXnvwizeRBF+C2pg6McqYVlF2s0zs6TTyW2vVx2MSQDOdzKJkHuw+epO10JjYj5EKnAgDtDnVRP4nHcm0z8Ov1PeT77CaE14UqfVIDjCctY8ECt4ddMBREe41nZJ3ayuno0PkhuR1EBAoOmDeRU9cgkitmOHT6YujjCcuky9Fa/553prjuvSXfetjQoGs/MYhEoeDqjHJdpR06qAwDzkC9rM0R4DEMiXiGeWrnLjUAjlaOfKZ68PMxljxJQrIvAY3u+CfffHfDEjPb6K2zuqTg6fpU3T9TLnWlpZ0+KTu5hWLfZX9lzNCyv3nPfg5gDehKOKTay2NlqQ/XpTJPLLcFHykfgyYNaIKoNbEeZAMRp7Qw8+MSO4DNWSZ7tT33OG6e7Mm4bnxTQiYOrPmDYBujo5/xFPg2rXRQLQGilLsaGESXg6EknwOGBWwUE+48eTqMc/pQCuvaqzWyZ35o+8qG70X3UmnrZ7JNlMwUF2NlJhqi3sZFRpL7bAnjcLRNKpIamOTJjmyroWerdijgVdApzmaSsqQyd3LRcpHhs0DfuLgLP+dXd9wR47Nl06Dg0yyCQ4RzbzowN6ZPjQynt3n80feuhR9N9DzyadmCFox/dy03I8wg8meoRfPIV+/IBQC4xGG0xbAQ4Bl2heqAizggkZoWrDMozx6nQ5kygE++CAoJOAI8pUJCSD4EnwKeADoDIMymJTLdB8bEkUl91N9tSMyjAn4CJPNx/NPWxN74ZJWt33nZLuuO2m9Ff3YvsDqABOoBRwf/xkHGkxW8VrmViR5kmYBlqZ5rlnH1f9SuZsuf9AH7Bh3oXhKh/c914RS0SELRQgI8FnRs3FyuOi7tac9NW3zXVuWjM7/rR84gQY7eSTfG0uTPsKMsNt5abmO0Zvkjj5OuZXcfSw48/yY7XI2HMr58tsGzeRvCR8skXQw4cU16nLL0c0gwdgQf+jtYmdA6sM7lYqUnunNGVcPxye2q8AB2ZLObcr/DtU4EnAEjQ4SkfFCyyDXO1OlIa0uiA0hkePAboHGZrfAYTz2vRIvjB9M7bb8a2PEKUJM/qDIbyGJoCWFZB4QyjTkT+cU9XZ4CO5M8kQonCSps7ZuyIeU4vjrYQUUrHgpTlVTD74/ds4AEuyeNF4KEa3py7SPGcX/3NNcUT3d4Z1MuZl8uBEQdbpXyYsgUjAeg4OzYHMFm8fefuWHJ95RvfxDKr6h2yNHL4YeqmAiDOd5XlVwwsBrPAM+3hJZ7o8t+4rf+pKIB6QLkzt7riz74tT0IhWYAOACey1ECnAiB/AzwxkC12AA9scvg5Kl/TTM0UKkxPHEYimdNsC+a1p7vvuh1K5x3ppndcnZYu7kzzOL5m5gUZ8BrqxhJSV6CRW+1qORCINPLnUYwJmNajbNN3dWL4zyMZUUaTyODTCDw5LJKP+rGOLgKPrXsB3EXg+e6VONegYw4cwvWT4v4ghP8ens02tpilCSuUj+e6jp6cxk769vTVb9yHNdFD6eDhgXTs+DB6hkxN8z+oRmXrvXag1EGu6gjG+0QosAfK4jv5W4UadIDFx/X8UQ1Of2Ynmzq/A4JVYfUlW+2ZAId5H2gRLr4Vcfl4Rfm4tMpgw3DnmYNaKidMDsPbQcUZSDuC0rN+dqsWw8dZGzqTb7huE1ofAQ2SnOKUPxtUcdC2zb3ygBA8fNWSTLCvrsbINnewcP4eGQZ4oITa2K4X6C1ipnhiAUU2GyifeObz7CL3/Li41Koq5I165wKeN5rmxfdefw04ZOqyIfTshsEegoVutzPYvVy4CEAulFAzhPL36XT/A4+k++5/JD2+7bl0+AinswGcbvQItXf0oncIjg5capcj7Sg0Y/qHQqqsiMLIzbbR8QsIkW4QX/h5xAElkR+HX+S0yl8FOhGZAVyNzlApG2kBPKghVffNjOuheM53VIImXQLYSAg1wWuRmeylkN/40EAaxhbWzMQIVE5b2rh+Vbr7XbciGHh7WrNiAVvqvMN7KtqfQr1Fb09XWA+pPm+ucwHCB8jIZs4pMQQaLsvjld8p1A5+hOUyZuqnyrZJchXgcdFaK7DfeZu4twWP521Sl98X2YyuHyPX7p2HQzVaglBQoZcMT09fKTQo8Lj0EoQEoF17B+H37E3PPb8jPf/irrT9pVfTif5RFOOrooMDpehtbkabomZxPJDKdM/yTd5PduWrNequBMTjPBBdz3hWqgzjeEQ81ZrUByFxjedWtUs5+ElNUD3TKltTWI//bXy3VSFA6QakkD0UOoVpIBW8wVGG0pkII4dbNq5NV2+6PF3HQc9NV6xO6y5bEuEdrbDRW5RcRpkXxyXcN9eySKsG2UKC28zrMh2jr8vgE7fxp4TW/Ap08hKrgE8Bp/xeAZ7vxXZ6PacX7u4i8Fy4uvy+SKl08xgkApBTeuVcoQg6ypPkQxBSP+68ZPAxmgDkIdPX9k+mbU+9kL51/8MA0M60d98RQEDQaQ/wGR7B2gZLnC50Ogf48C2pXnfSBAY/7ZeLX78BTDxDJSOlei4PKiILPIKKQ9uCBOhA06CLohXwQVci2JCBx2IVVbAaGNTaxjTLnyl2rQSgJo6QL1nQA2WzNH0Au/LvvPW6tGVjH6agSZZ31U+kbfnuTmBL5jWgNsq2uwKUXZVFVfOXM9bo56yRRIMzsyVmRfUAPsY0Xoat2cATxePhReCx5t6Eu7jUehOVdwFfbezuZSjUfcY1ETLQCECCTrXlW+VhmDGIBRyUh82kISxwDCDy/PKO3em5F3akbU8+m3a9+lo6dBhzOVqt6OhJzR3zoHhkRutInAHn0iPM/0jVOPsHKAFMUCWCTGsb4KUys2pg+qaAZR8K6x0BRKaY09N22OQ4MgBQJT1d7aEdsB3w8pjD8MmBNHr8OIgJlcPnLl15abps1QoMIF6art68IV131ca0fMl8rHU0J1Rbxza5wCOV0wIVpR16bZ3FohNeDijKZy2Pu3g6IlupuYBxW4Xm8CqkesyjDDw5Ts5/fnYK8BAo1VNfFvvG28ddpHjePm31PcmpYyS6eAwWuzxXw71Uj6FSPs7EcY4IgJjigVoxtG6hfmlHhSsoeakHMA746u7BtO3pZ9OLL74SxhCHMM86gCj0CSQSR9RiaMIV6LTwolYrWgUXqRa+o0kggUdgsdOqcMzllnwc/Yw1gE8FUrwU7/kuMsYsoQAe+DCtbInzVuw+TbGzNMWSSmlk+TNLFs2HcbwB2/Lr0vq1q9IV61enK9a6FMu7SCGHSPqoPiMN7NBjQaIltsIyFEfNxC4eoBN+ZOK0P9ZfdtShdTvLFYDJD85E7Rjdp9ECFvxt6C4Cz9uw0eY6y+qkKd0+f6vq3HTyAB5+GmKsYHwCGEo5D2Pqph0DhujIiudlOMoHUkWzhhD37p+C7/NKevrZ59NT8IGe3b4Ly6XI/7hMMlHSEnhUcN9GQll1awaW2NYHfDQN5H1YyBCkuKIjA0A6k3FY+i/SY0Eov2YG4Bk8fjSNDA5gSngotfbNS5csXZw2brg8bbryinTVpo2AzWVp9YqetKAP/dLgh2osYlFHoh6BkE+kMjPPXLVq2dU1m4ik1GA4KZ1KcLIKObM3G2BKrs23/0sZ6u8SWIWWsLwKzjFL2NvFvwg8b5eW+l7m075Pr7ZLl+ERP2J2dQAwBAQhR4gxAAtZK9oJk1KBGAnqRwpI6kc+q5hgei6/jvVPYvzwcHrt4HFMIx/HXPJQOn5iIB06dAj7Y0fZiscGGcugMXTgBM+HF4OZzHf8Xux+kWAAi983P3ynUDuRb+JqtkeKqRVg6EX1n1cX0sfzAZwlixemVSsxfLjikrR82ZK0bAnGDxcvSAv7WqB+2NUizyEQiLyAFiHcKneNqZno2NPjg6HSIrCOL5oBARGIk4E+c6p6EF5vdObRssx2kfPZQaf9ym+eFvw2C7gIPG+zBpvz7DIW6uT/KcMDsHHrOVzp/+Fn8ImBVL2PWAvLrhkuziVhiBCeMlRJ/VVVbgxDAQ2hZxVbh4DOYfg/u1mS7cYa62vp8OEjWGI9gX0yVFE4oBnXfsqrlfQEosxLdgkmfycvs2KLGsZzoZqM69a4jOJli/rQj7M4XXbZqrRh/eXpsjWr03KUdAksHmWwZGZR32uMpeDoyEnUWHQh/AfyuGsFIDcLgAHC5KYgKsAzjVIw+V4t7NQpcXxuV4P0BvixdDq/rsu/86/T7zPFmWO+3f5eBJ63W4vNdX4dU158x8tOnzt+DoiVxf/f3hnoNg0DYbhbNkqXIqG9/0sOOrYJqvJ9v33JQEOsoAoy1V12qX22L2nv79k5+3rhlE/Rnn2HjQ2mF65RWMGJDJ8Enr3WEXo4CBhquGW0IThlXgjKkqXVI34+j2xnaNTTB7x6jV56d/cpMciku9198nZaQyh5ksICBAMRLpx0XuOMN263BDzcrj4QiHAkvLITyrcEPPzII6n3oNCGJePjuCakD7HJBEQaCo4AXq4cd/FmxARojK0m6ul5rLfxNRadMcaMGtJAh/7rZimQoMSfk/C/S1ar9BJ7yxPsi/M5pZS/pYLPGXjqkz/T3IGADspTuuSXvykAlMw6ZPC8krvwGbn0yqEWR1MKnAWxBPYoMN4uaDiDI47mHOfI5Tqb+KUZ9ag6olGaCxh94dm8APQZ0Hlghbchpu8Zr1WcMDvKi/Gdw7x3AN8GsLnhEHw2PO5mVcJqXLPROiAT+elH6wtR2rUhwIHH5y5vcMOvBjzIqRUD4FhHi+oblpdBC42iOscT63fAi1B+jnYPe/4vSK75WZlVK/1wXpZVPhE5qiZc9sW/yqn6S6D/DfBkzmBC9iXcurcpo0rTNp3yiVWzBkoRVEAf4kR5/bbX4a2QKYxkOt9hbd9nDMMwiJfws6fM2SGDBDJoyhxQ4nLR8dxcgYlARTNT21T5KVnHYZhAxRRTLBfruMuET9Q4nYdPcwdpU9GaM4CwyORzH0pVd1/x53Ge6YZ9li+vGI/ZUhaTsqDCTc94GlcAFrFo31X8YZMekezTGxDa682QUoJDPQ1jk7JAvFdZBClv7WOExeo7HTqcfXmO+ShOw5uJYjS9Q8estHRXgBPwkcFUOjFpjRkWggTm6eNChQMTvC2yg7AjDMmHw79jMJW5z4n47fJX3GKpL8v8shaPk9jy+aup4quCvrfXF7+dlAkyAxegZSMwXiDPQGaWHERWfXDSQqeNOH9UIHkgvPMF237gfBRW8dVDyylCQHI5vJe+OiGfTZiKtnMKcp+g04WZR+povETgOdbayeWeEnjs4Gz5eBf+Xfor4FELo4QqcDsS1RTfGcEna6dQJEFH68fwzpeEUyb+JkfT1KZqDnPgswlTV7Ly6Xl6wv8GRv183HjdoVGlVp/eOdEKShucG9HBR+AHo+l14DFy6gw8AuUsdxQ9YEhFJqL27q6IhTPg7Oj6s8gEuxt+TcCTaycPquX46oR8xV7UurMNCMMbAJ4/sXTqHn4HJEmBFjLzHEUAAAAASUVORK5CYII=;" vertex="1" parent="1">
          <mxGeometry x="179.36" y="170" width="61.29" height="60" as="geometry" />
        </mxCell>
        <mxCell id="VQ3jYR1XkbSHoC4K4Hg8-13" value="&lt;span lang=&quot;EN&quot; style=&quot;font-size:11.0pt;line-height:115%;&#xa;font-family:&amp;quot;Arial&amp;quot;,sans-serif;mso-fareast-font-family:Arial;mso-ansi-language:&#xa;EN;mso-fareast-language:EN-US;mso-bidi-language:AR-SA&quot;&gt;time of day, Search, Device,&#xa;stock {technical specs} &lt;/span&gt;" style="text;whiteSpace=wrap;html=1;" vertex="1" parent="1">
          <mxGeometry x="290" y="90" width="220" height="60" as="geometry" />
        </mxCell>
        <mxCell id="VQ3jYR1XkbSHoC4K4Hg8-14" value="searches" style="html=1;dashed=0;whiteSpace=wrap;shape=mxgraph.dfd.start" vertex="1" parent="1">
          <mxGeometry x="640" y="320" width="90" height="20" as="geometry" />
        </mxCell>
        <mxCell id="VQ3jYR1XkbSHoC4K4Hg8-15" value="inventory" style="html=1;dashed=0;whiteSpace=wrap;shape=mxgraph.dfd.start" vertex="1" parent="1">
          <mxGeometry x="370" y="320" width="125" height="70" as="geometry" />
        </mxCell>
        <mxCell id="VQ3jYR1XkbSHoC4K4Hg8-16" value="technical specs" style="html=1;dashed=0;whiteSpace=wrap;shape=mxgraph.dfd.start" vertex="1" parent="1">
          <mxGeometry x="440" y="380" width="90" height="20" as="geometry" />
        </mxCell>
        <mxCell id="VQ3jYR1XkbSHoC4K4Hg8-17" value="demoraphics" style="html=1;dashed=0;whiteSpace=wrap;shape=mxgraph.dfd.start" vertex="1" parent="1">
          <mxGeometry x="640" y="345" width="90" height="20" as="geometry" />
        </mxCell>
      </root>
    </mxGraphModel>
  </diagram>
</mxfile>
